<svg width="291" height="150" viewBox="0 0 291 150" fill="none" xmlns="http://www.w3.org/2000/svg">
<g clip-path="url(#clip0_1893_8553)">
<path d="M226.382 8.08205C218.77 14.2419 215.115 23.3063 213.512 32.7917C212.076 41.2811 211.306 52.7533 216.802 60.0793C223.386 68.8548 233.114 74.2724 244.136 74.7853C258.928 75.4709 276.879 68.9439 282.736 54.2703C288.159 40.7089 287.028 23.4493 276.889 12.1607C265.377 -0.661093 240.886 -2.91774 227.157 7.4612C226.9 7.67175 226.652 7.8742 226.382 8.08205Z" fill="#DFE4EC"/>
<path d="M226.382 8.08205C218.77 14.2419 215.115 23.3063 213.512 32.7917C212.076 41.2811 211.306 52.7533 216.802 60.0793C223.386 68.8548 233.114 74.2724 244.136 74.7853C258.928 75.4709 276.879 68.9439 282.736 54.2703C288.159 40.7089 287.028 23.4493 276.889 12.1607C265.377 -0.661093 240.886 -2.91774 227.157 7.4612C226.9 7.67175 226.652 7.8742 226.382 8.08205Z" stroke="#101820" stroke-width="1.48937" stroke-linecap="round" stroke-linejoin="round"/>
<path d="M244.762 11.3698C240.956 14.4497 239.128 18.9819 238.327 23.7246C237.609 27.9679 237.223 33.7121 239.971 37.367C243.264 41.7561 248.128 44.4636 253.64 44.72C261.033 45.0628 270.011 41.7993 272.943 34.4625C275.656 27.6818 275.102 19.0494 270.019 13.4078C264.265 6.99684 252.018 5.86851 245.153 11.0593C245.021 11.1646 244.891 11.2672 244.762 11.3698Z" fill="white"/>
<path d="M235.728 56.3111C235.998 54.1732 234.132 50.9745 232.102 52.7398C231.849 52.9585 231.33 54.7778 231.33 54.7778C231.33 54.7778 230.791 57.38 230.607 58.6919C230.469 59.6474 230.583 60.6948 230.607 61.6611C230.656 65.1892 231.085 69.1734 232.766 72.3208C233.79 74.2346 235.792 77.2795 238.284 76.0432C238.764 75.8056 239.442 75.5816 239.634 75.0336C240.624 72.3127 238.467 69.6674 237.374 67.327C236.227 64.8706 236.041 62.0471 235.787 59.3856C235.693 58.376 235.728 56.3111 235.728 56.3111Z" fill="#FF4040"/>
<path d="M226.142 49.7649C227.103 46.6849 227.667 45.2678 227.068 43.4484C226.652 42.1932 224.695 41.8153 223.778 44.5578C223.778 44.5578 223.184 46.2449 222.86 47.0871C222.285 48.5717 221.51 50.0294 220.787 51.4735C219.497 54.0649 217.818 56.4268 216.851 59.1099C216.732 59.4366 216.444 59.6822 216.311 60.0034C215.834 61.318 215.394 62.449 215.412 63.8851C215.374 64.2507 215.397 64.6201 215.48 64.9783C215.572 65.2172 215.716 65.4321 215.903 65.6065C216.09 65.781 216.315 65.9105 216.56 65.9851C216.965 66.1336 217.27 66.3765 217.745 66.3846C219.205 66.4116 220.314 64.873 221.022 63.7555C222.217 61.8727 223.17 59.8466 223.859 57.7252C224.147 56.8209 224.318 55.8653 224.636 54.9881C225.241 53.3118 226.142 49.7649 226.142 49.7649Z" fill="#FF4040"/>
<path d="M221.386 37.4805C221.386 37.4805 223.187 35.9581 223.484 35.6449C224.453 34.6273 225.705 33.2668 225.438 31.7039C225.249 30.6242 224.088 30.1059 223.09 30.2517C222.901 30.2787 221.1 31.1452 221.1 31.1452C221.1 31.1452 219.092 32.3059 218.242 32.9753C216.827 34.0874 215.073 34.6543 213.639 35.7799C212.503 36.6921 211.46 37.7137 210.524 38.8302C210.206 39.2 209.736 39.6022 209.498 40.0287C209.021 40.8843 208.365 42.5417 208.583 43.5216C208.853 44.7174 209.363 45.7674 210.638 45.6811C211.177 45.6379 211.717 45.7512 212.23 45.4867C214.643 44.2207 216.619 42.3555 218.611 40.4471C219.265 39.8235 219.713 38.9327 220.404 38.3524C220.714 38.0581 221.386 37.4805 221.386 37.4805Z" fill="#FF4040"/>
<path d="M220.25 22.2025C220.25 22.2025 223.219 23.9759 224.215 22.1161C224.801 21.0094 223.278 19.244 222.231 18.607C222.231 18.607 220.611 17.4489 220.142 17.0872C219 16.2126 215.753 13.848 214.384 15.3678C213.887 15.9076 214.149 16.8416 214.427 17.4111C215.175 18.9498 216.897 20.0268 218.282 20.9203C218.873 21.3225 220.25 22.2025 220.25 22.2025Z" fill="#FF4040"/>
<path d="M233.528 8.84057C234.338 10.7814 235.174 11.1998 235.957 11.243C237.361 11.3213 238.8 9.14559 237.822 6.94834C237.822 6.94834 237.315 5.69315 237.085 5.15328C236.671 4.21129 236.165 3.31254 235.574 2.47014C235.153 1.8547 233.504 0.478033 232.721 0.540118C232.146 0.588706 231.101 1.38501 231.125 1.96267C231.201 4.48924 233.528 8.84057 233.528 8.84057Z" fill="#FF4040"/>
<path d="M247.761 25.6924C250.277 26.9881 253.33 24.2185 252.89 21.6164C252.789 20.9393 252.55 20.2901 252.188 19.7092C251.826 19.1283 251.348 18.628 250.785 18.2395C250.085 17.786 249.281 17.6295 248.582 17.2678C246.406 16.4364 245.723 16.2258 245.461 15.1947C245.062 13.6156 246.517 12.1228 249.672 12.7869C249.672 12.7869 252.248 13.2539 253.341 14.0691C253.921 14.501 254.261 15.1488 254.723 15.6887C255.469 16.5587 256.103 17.518 256.612 18.5446C257.193 19.7404 257.808 21.1494 258.95 21.9592C259.558 22.3629 260.209 22.6987 260.891 22.9607C261.639 23.2549 262.672 22.9472 263.434 22.796C265.323 22.41 266.819 21.279 268.606 20.7067C269.109 20.58 269.62 20.4898 270.136 20.4368C270.77 20.3288 271.464 20.0184 272.125 20.2316C273.804 20.7715 275.197 22.0105 276.617 22.9553C278.288 24.0647 279.983 25.1471 281.627 26.2727C283.479 27.5414 285.9 27.5414 287.749 28.8533C288.583 29.4472 289.539 30.7428 288.829 31.6984C288.64 32.004 288.348 32.2319 288.006 32.3408C287.349 32.4554 286.679 32.4691 286.019 32.3813C285.058 32.2707 284.07 32.4218 283.123 32.1114C280.321 31.2125 277.754 29.2582 275.332 27.6872C273.861 26.7343 272.077 24.8313 270.187 24.9555C267.072 25.1552 265.107 28.1731 262.035 28.3728C260.772 28.4565 259.001 27.4874 258.051 26.7289C257.768 26.5022 256.521 25.5979 256.208 25.6978C255.973 25.7734 255.668 26.5724 255.576 26.7775C255.188 27.5212 254.698 28.2064 254.118 28.8128C252.191 30.7023 248.126 30.5296 246.174 28.8128C246.174 28.8128 244.665 27.752 244.428 27.3822C243.947 26.6425 243.772 25.7815 244.374 25.0526C244.657 24.7125 245.3 24.6882 245.691 24.7179C246.082 24.7476 247.391 25.4872 247.761 25.6924Z" fill="#FF4040"/>
<path d="M276.05 34.53C276.05 34.53 274.039 34.0252 273.826 33.9523C272.241 33.4125 270.921 34.1413 270.886 35.8689C270.864 36.8703 272.103 38.0715 273.585 38.6681C273.585 38.6681 276.042 39.6506 276.762 39.9772C278.922 40.9517 280.93 42.2879 283.038 43.3757C284.056 43.8994 285.441 44.5688 286.637 44.4932C287.973 44.4069 288.694 44.002 289.295 42.8304C289.393 42.6415 289.565 42.3473 289.501 42.1178C289.221 41.2726 288.683 40.5369 287.962 40.015C285.219 38.0661 281.754 36.6652 278.641 35.3749C277.796 35.0267 276.05 34.53 276.05 34.53Z" fill="#FF4040"/>
<path d="M261.447 38.3927C262.543 39.8908 264.063 41.5617 263.369 43.5619C262.255 46.7795 259.65 48.2318 256.564 46.4421C256.025 46.1263 255.19 45.7241 254.821 45.2166C253.779 44.2907 252.583 43.8291 251.9 45.0114C251.217 46.1938 252.772 47.6001 252.772 47.6001C255.134 50.3237 257.506 52.3995 261.256 51.6491C262.516 51.3954 263.572 50.5694 264.468 49.7002C264.63 49.5436 265.248 48.8742 265.488 48.9957C266.131 49.3277 266.347 50.5019 266.733 51.031C267.591 52.2079 269.114 53.6709 270.512 54.2027C272.636 55.0125 274.226 52.1782 275.867 52.7045C277.932 53.3659 279.317 55.7926 281.29 56.8075C281.763 57.0505 282.551 57.6713 283.104 57.5769C284.724 57.3069 284.324 54.6913 283.898 53.6466C283.026 51.5007 279.962 47.4705 277.33 47.6406C276.201 47.6975 275.084 47.8924 274.002 48.221C273.684 48.3208 273.433 48.6043 273.149 48.7608C272.013 49.3925 270.963 49.4222 270.026 48.4639C269.85 48.283 269.783 47.924 269.675 47.7108C268.803 45.9076 268.755 44.2017 268.474 42.2581C268.104 39.7181 266.514 36.7434 264.155 35.5287C264.155 35.5287 262.487 34.7027 262.336 34.673C261.796 34.5569 261.277 34.2843 260.789 34.5488C260.125 34.9052 259.998 36.0524 260.192 36.738C260.281 37.0592 261.307 38.0931 261.447 38.3927Z" fill="#FF4040"/>
<path d="M267.315 57.9171C265.139 54.8561 262.186 57.4178 263.433 59.8715C263.765 60.7515 264.435 61.7961 264.883 62.5924C265.331 63.3887 265.793 64.212 266.276 64.9813C266.667 65.6075 266.937 66.2851 267.296 66.941C267.506 67.3859 267.739 67.8193 267.995 68.2394C268.983 69.67 269.666 71.6891 271.677 71.6136C272.111 71.6333 272.537 71.4984 272.881 71.233C274.501 69.67 273.793 67.6671 272.77 66.0205C271.04 63.2375 269.38 60.468 267.315 57.9171Z" fill="#FF4040"/>
<path d="M231.84 41.6024C231.84 41.6024 232.25 43.3894 232.569 43.9886C233.441 45.6298 235.625 48.3238 237.63 48.6369C238.288 48.7386 238.95 48.8052 239.614 48.8366C240.033 48.8582 240.748 48.6909 241.102 48.9419C241.865 49.4818 241.641 51.0204 241.739 51.8248C241.96 53.8844 241.509 56.7214 242.853 58.4787C243.067 58.6838 243.31 58.8566 243.574 58.9915C244.217 59.4504 244.8 60.0497 245.55 60.3574C247.17 61.0214 249.143 61.5316 250.517 62.641C252.028 63.8557 252.215 65.8154 252.512 67.5754C252.871 69.7349 253.162 71.8484 253.902 73.9053C254.156 74.6072 255.079 76.9421 256.126 76.7504C259.967 76.0486 258.62 65.1433 257.657 62.6086C257.387 61.8798 257.319 61.0106 256.825 60.3682C256.331 59.7257 255.5 59.1184 254.841 58.6487C254.12 58.1358 252.193 57.0642 251.332 56.9292C249.308 56.6134 246.873 56.0007 246.373 53.6576C245.653 50.2673 246.338 47.576 247.029 44.2748C247.351 42.7442 247.342 41.1192 247.299 39.5671C247.256 37.7748 246.8 36.4305 245.95 34.8271C245.68 34.3708 245.386 33.9292 245.07 33.5044C243.871 32.0306 242.484 31.8173 241.628 32.4517C241.444 32.5605 241.282 32.7024 241.15 32.8701C240.88 33.356 240.88 34.0173 240.923 34.5626C240.95 34.8838 241.65 36.8408 241.65 36.8408C241.796 37.4699 241.977 38.0907 242.189 38.7006C242.673 39.9523 242.743 41.3258 242.389 42.6201C242.195 43.2544 241.501 43.5837 241.039 43.9697C240.735 44.2271 240.379 44.4166 239.995 44.5258C236.769 45.4895 236.013 42.7577 234.769 40.412C234.048 39.03 233.384 38.3227 232.159 39.0623C231.446 39.4996 231.84 41.6024 231.84 41.6024Z" fill="#FF4040"/>
<path d="M234.78 40.4008C236.025 42.7465 236.78 45.4783 240.006 44.5146C240.39 44.4054 240.746 44.2159 241.051 43.9585C241.51 43.5833 242.203 43.254 242.4 42.6089C242.754 41.3146 242.684 39.9411 242.201 38.6894C241.988 38.0795 241.808 37.4587 241.661 36.8296" stroke="black" stroke-width="1.48937" stroke-linecap="round" stroke-linejoin="round"/>
<path d="M231.841 41.6024C231.841 41.6024 232.251 43.3894 232.57 43.9886C233.442 45.6298 235.625 48.3237 237.631 48.6369C238.288 48.7385 238.951 48.8052 239.615 48.8366C240.033 48.8582 240.749 48.6908 241.102 48.9419C241.866 49.4817 241.642 51.0204 241.739 51.8248C241.961 53.8844 241.51 56.7214 242.854 58.4786C243.068 58.6838 243.311 58.8566 243.575 58.9915C244.217 59.4504 244.8 60.0496 245.551 60.3574C247.17 61.0214 249.144 61.5316 250.517 62.641C252.029 63.8557 252.215 65.8154 252.512 67.5754C252.871 69.7348 253.163 71.8484 253.902 73.9053C254.156 74.6071 255.079 76.9421 256.127 76.7504C259.968 76.0486 258.621 65.1433 257.657 62.6086C257.387 61.8798 257.32 61.0106 256.826 60.3682C256.332 59.7257 255.5 59.1184 254.842 58.6487C254.121 58.1358 252.194 57.0642 251.333 56.9292C249.308 56.6134 246.873 56.0006 246.374 53.6576C245.653 50.2673 246.339 47.576 247.03 44.2747C247.351 42.7442 247.343 41.1192 247.3 39.5671C247.257 37.7747 246.801 36.4305 245.95 34.8271C245.702 34.3574 245.513 33.8202 245.07 33.5044" stroke="black" stroke-width="1.48937" stroke-linecap="round" stroke-linejoin="round"/>
<path d="M247.761 25.6922C250.277 26.9879 253.329 24.2184 252.889 21.6162C252.789 20.9391 252.55 20.2899 252.188 19.709C251.825 19.1281 251.348 18.6278 250.784 18.2393C250.085 17.7859 249.28 17.6293 248.581 17.2676" stroke="black" stroke-width="1.48937" stroke-linecap="round" stroke-linejoin="round"/>
<path d="M246.16 28.7994C248.112 30.5135 252.177 30.6889 254.104 28.7994C254.684 28.1929 255.174 27.5077 255.562 26.7641C255.662 26.5724 255.959 25.7734 256.194 25.6843C256.507 25.5845 257.754 26.4941 258.037 26.7155C258.987 27.474 260.758 28.4431 262.021 28.3594C265.093 28.1596 267.058 25.1418 270.173 24.942C272.063 24.8179 273.847 26.7209 275.318 27.6738C277.748 29.2448 280.307 31.1991 283.109 32.098C284.056 32.4003 285.044 32.2491 286.005 32.3679C286.665 32.4557 287.335 32.442 287.992 32.3274C288.334 32.2185 288.626 31.9906 288.815 31.685C289.53 30.7267 288.575 29.4337 287.735 28.8399C285.886 27.528 283.465 27.528 281.613 26.2593C279.969 25.1337 278.274 24.0512 276.603 22.9418C275.183 21.9971 273.79 20.7581 272.112 20.2182C271.45 20.005 270.762 20.3154 270.122 20.4233C269.606 20.4764 269.095 20.5666 268.592 20.6933C266.805 21.2655 265.32 22.3966 263.42 22.7826C262.658 22.9337 261.625 23.2415 260.877 22.9472C260.195 22.6852 259.545 22.3494 258.936 21.9458C257.794 21.136 257.179 19.7269 256.598 18.5311C256.089 17.5046 255.455 16.5453 254.709 15.6752C254.247 15.1354 253.899 14.4956 253.327 14.0556C252.234 13.2458 249.658 12.7734 249.658 12.7734" stroke="black" stroke-width="1.48937" stroke-linecap="round" stroke-linejoin="round"/>
<path d="M254.82 45.2165C255.19 45.724 256.019 46.1262 256.564 46.442C259.649 48.2316 262.254 46.7794 263.369 43.5618C264.063 41.5616 262.543 39.8907 261.447 38.3926" stroke="black" stroke-width="1.48937" stroke-linecap="round" stroke-linejoin="round"/>
<path d="M252.771 47.6002C255.133 50.3239 257.506 52.3996 261.255 51.6492C262.516 51.3955 263.572 50.5695 264.468 49.7003C264.63 49.5437 265.248 48.8743 265.488 48.9958C266.131 49.3278 266.346 50.502 266.732 51.0311C267.591 52.208 269.113 53.671 270.511 54.2028C272.636 55.0126 274.226 52.1783 275.867 52.7047C277.932 53.366 279.317 55.7927 281.29 56.8077C281.762 57.0506 282.55 57.6714 283.104 57.577C284.723 57.307 284.324 54.6914 283.898 53.6467C283.026 51.5008 279.962 47.4707 277.33 47.6407C276.201 47.6977 275.083 47.8926 274.002 48.2211C273.683 48.321 273.432 48.6044 273.149 48.7609C272.012 49.3926 270.962 49.4223 270.026 48.464C269.85 48.2832 269.783 47.9241 269.675 47.7109C268.803 45.9077 268.754 44.2018 268.473 42.2583C268.104 39.7182 266.514 36.7435 264.155 35.5288" stroke="black" stroke-width="1.48937" stroke-linecap="round" stroke-linejoin="round"/>
<path d="M273.588 38.6679C273.588 38.6679 276.044 39.6504 276.765 39.977C278.924 40.9515 280.933 42.2877 283.041 43.3755C284.059 43.8992 285.443 44.5686 286.639 44.493C287.975 44.4066 288.696 44.0017 289.298 42.8302C289.395 42.6413 289.568 42.347 289.503 42.1176C289.224 41.2724 288.686 40.5367 287.965 40.0148C285.222 38.0659 281.756 36.665 278.644 35.3747C277.796 35.0265 276.047 34.5298 276.047 34.5298" stroke="black" stroke-width="1.48937" stroke-linecap="round" stroke-linejoin="round"/>
<path d="M263.434 59.885C263.766 60.7649 264.435 61.8096 264.883 62.6059C265.331 63.4022 265.793 64.2255 266.276 64.9948C266.667 65.621 266.937 66.2986 267.296 66.9545C267.506 67.3994 267.74 67.8328 267.995 68.2529C268.983 69.6835 269.666 71.7026 271.677 71.6271C272.111 71.6468 272.538 71.5119 272.881 71.2464C274.501 69.6835 273.794 67.6806 272.771 66.034C271.04 63.251 269.38 60.4815 267.315 57.936" stroke="black" stroke-width="1.48937" stroke-linecap="round" stroke-linejoin="round"/>
<path d="M223.778 44.5581C223.778 44.5581 223.184 46.2452 222.86 47.0874C222.285 48.572 221.51 50.0297 220.787 51.4738C219.497 54.0652 217.818 56.4271 216.851 59.1102C216.732 59.4368 216.444 59.6825 216.311 60.0037C215.834 61.3183 215.394 62.4493 215.412 63.8853C215.374 64.251 215.397 64.6204 215.48 64.9786C215.572 65.2175 215.716 65.4323 215.903 65.6068C216.09 65.7813 216.315 65.9108 216.56 65.9854C216.965 66.1339 217.27 66.3768 217.745 66.3849C219.205 66.4119 220.314 64.8733 221.022 63.7558C222.217 61.873 223.17 59.8469 223.859 57.7255C224.147 56.8212 224.318 55.8656 224.636 54.9883C225.241 53.3255 226.142 49.7786 226.142 49.7786" stroke="black" stroke-width="1.48937" stroke-linecap="round" stroke-linejoin="round"/>
<path d="M231.33 54.7778C231.33 54.7778 230.791 57.38 230.607 58.6919C230.469 59.6474 230.583 60.6948 230.607 61.6611C230.656 65.1892 231.085 69.1734 232.766 72.3208C233.79 74.2346 235.792 77.2795 238.284 76.0432C238.764 75.8056 239.442 75.5816 239.634 75.0336C240.624 72.3127 238.467 69.6674 237.374 67.327C236.227 64.8706 236.041 62.0471 235.787 59.3856C235.693 58.3787 235.728 56.3138 235.728 56.3138" stroke="black" stroke-width="1.48937" stroke-linecap="round" stroke-linejoin="round"/>
<path d="M221.1 31.1475C221.1 31.1475 219.092 32.3082 218.242 32.9776C216.827 34.0897 215.073 34.6566 213.639 35.7822C212.503 36.6935 211.46 37.7143 210.524 38.8298C210.206 39.1996 209.736 39.6018 209.498 40.0283C209.021 40.884 208.365 42.5413 208.583 43.5212C208.853 44.717 209.363 45.767 210.638 45.6807C211.177 45.6375 211.717 45.7509 212.23 45.4863C214.643 44.2203 216.619 42.3551 218.611 40.4467C219.265 39.8231 219.713 38.9323 220.404 38.352C220.725 38.082 221.386 37.5071 221.386 37.5071" stroke="black" stroke-width="1.48937" stroke-linecap="round" stroke-linejoin="round"/>
<path d="M220.25 22.2021C220.25 22.2021 218.874 21.3221 218.282 20.9388C216.898 20.0372 215.175 18.9602 214.428 17.4297C214.158 16.8601 213.888 15.9342 214.385 15.3863C215.753 13.8773 219 16.2312 220.142 17.1057C220.615 17.4675 222.232 18.6255 222.232 18.6255" stroke="black" stroke-width="1.48937" stroke-linecap="round" stroke-linejoin="round"/>
<path d="M233.528 8.84057C233.528 8.84057 231.201 4.48924 231.115 1.96267C231.093 1.38501 232.135 0.588706 232.71 0.540118C233.493 0.478033 235.139 1.8547 235.563 2.47014C236.154 3.31254 236.66 4.21129 237.075 5.15328C237.304 5.69315 237.812 6.94833 237.812 6.94833" stroke="black" stroke-width="1.48937" stroke-linecap="round" stroke-linejoin="round"/>
<path d="M260.569 9.44206C260.569 9.44206 259.085 10.4381 258.901 10.5731C258 11.2398 257.214 12.4626 257.843 13.5235C258.596 14.8137 259.986 15.934 261.865 15.17C263.744 14.4061 264.278 14.0174 264.278 14.0174C264.278 14.0174 267.685 11.8256 268.867 11.2668C270.637 10.4615 272.328 9.4946 273.92 8.37852C274.46 7.99252 275.219 6.82371 275.113 6.13808C275.008 5.45245 274.158 4.424 273.55 4.14327C273.245 4.00021 272.552 4.08928 272.23 4.14327C271.118 4.37012 270.045 4.76227 269.048 5.30668C268.646 5.51453 268.16 5.57662 267.76 5.77637C266.535 6.435 265.25 6.99646 264 7.6389C262.866 8.21656 260.569 9.44206 260.569 9.44206Z" fill="#FF4040"/>
<path d="M260.569 9.44212C260.569 9.44212 262.867 8.21662 264 7.63356C265.25 6.99112 266.535 6.42966 267.76 5.77102C268.16 5.55777 268.646 5.50109 269.048 5.30134C270.045 4.75693 271.118 4.36478 272.231 4.13792C272.552 4.08934 273.245 4.00026 273.55 4.13792C274.158 4.40786 275.011 5.48759 275.113 6.13273C275.216 6.77787 274.449 7.98717 273.92 8.37318C272.328 9.48926 270.637 10.4561 268.867 11.2615C267.685 11.8202 264.278 14.0121 264.278 14.0121" stroke="black" stroke-width="1.48937" stroke-linecap="round" stroke-linejoin="round"/>
<path d="M232.256 16.8629C229.112 17.9993 227.2 22.5693 227.279 25.6655C227.333 26.18 227.495 26.6775 227.754 27.1258C227.921 27.4659 228.113 28.0733 228.442 28.2973C230.089 29.4337 232.613 29.3986 234.335 28.4323C235.954 27.5199 238.999 24.2726 239.067 22.2994C239.148 19.87 238.67 18.2504 236.637 16.9007C236.176 16.5984 235.609 16.234 235.018 16.2205C234.283 16.207 233.43 16.6983 232.845 17.06C232.057 17.5199 231.343 18.097 230.728 18.7714L232.256 16.8629Z" fill="#00FF00"/>
<path d="M232.256 16.8629C229.112 17.9993 227.2 22.5693 227.279 25.6654C227.333 26.18 227.495 26.6775 227.754 27.1258C227.921 27.4659 228.113 28.0733 228.442 28.2973C230.089 29.4337 232.613 29.3986 234.335 28.4323C235.954 27.5199 238.999 24.2726 239.067 22.2994C239.148 19.87 238.67 18.2504 236.637 16.9007C236.176 16.5984 235.609 16.234 235.018 16.2205C234.283 16.207 233.43 16.6983 232.845 17.06C232.057 17.5199 231.343 18.097 230.728 18.7714" stroke="black" stroke-width="1.48937" stroke-linecap="round" stroke-linejoin="round"/>
</g>
<g clip-path="url(#clip1_1893_8553)">
<path d="M13.5293 72.534C14.6522 72.2641 15.7643 72.0589 16.9007 71.897C17.4001 74.132 17.8995 76.3698 18.3665 78.6129C18.5204 79.3444 18.7498 80.0544 18.9387 80.7724C19.0899 81.3419 19.1466 81.9277 19.2546 82.508C14.7494 82.9507 10.2307 83.2774 5.73633 83.801L13.5293 72.534Z" fill="#BCA95B"/>
<path d="M30.2681 51.6332C30.9484 51.0555 32.2144 50.4616 32.9837 50.8234C33.4561 51.0257 33.8395 51.3919 34.0634 51.8545C34.2391 52.2055 34.3419 52.5884 34.3658 52.9801C34.3917 53.3532 34.3616 53.7281 34.2767 54.0923C34.2038 54.3211 34.1136 54.544 34.0067 54.759C33.5937 55.7119 32.5356 56.1572 31.5476 56.1087C31.2396 56.0671 30.9501 55.9378 30.7136 55.7361C30.4703 55.5799 30.2511 55.3889 30.063 55.1693C29.3557 54.2542 29.2532 52.7399 30.0468 51.8599C30.1116 51.7762 30.1871 51.7033 30.2681 51.6332Z" fill="#BCA95B"/>
<path d="M44.1916 41.1328C44.1916 41.1328 44.0108 43.4029 44.0216 43.8807C44.0427 44.4849 44.0273 45.0897 43.9756 45.692C43.8713 47.1751 43.5342 48.6325 42.9769 50.0109C42.8959 50.1972 42.7717 50.3537 42.707 50.5508C42.5369 51.0043 42.2454 51.3606 42.0402 51.8033C41.5049 52.8226 40.8248 53.7591 40.0211 54.5836C39.5919 55.056 39.2464 55.6255 38.7875 56.0628C36.2825 58.4598 38.4771 56.8159 34.6306 59.8419C33.2053 60.9675 30.2981 62.3334 29.0888 62.6897C26.9294 63.3267 19.5791 65.3431 19.5791 65.3431C19.5791 65.3431 19.9867 63.8072 20.0542 63.3213C20.1298 62.768 20.2404 62.2119 20.3241 61.6558C20.5941 59.8365 21.3715 58.1278 21.8789 56.3436C22.3189 54.7887 24.2624 52.0381 24.6106 51.5927C25.4905 50.4241 26.4992 49.3584 27.6177 48.4156C30.9136 45.414 32.6655 44.1885 36.9277 42.8334C38.1046 42.4582 39.2815 42.0695 40.4827 41.8103C41.6191 41.5728 43.0363 41.4378 44.1916 41.1328ZM34.0664 51.8492C33.8425 51.3866 33.4591 51.0204 32.9867 50.818C32.2174 50.4617 30.9514 51.0556 30.2711 51.6278C30.1901 51.698 30.1146 51.7709 30.0498 51.8384C29.24 52.713 29.3587 54.2327 30.066 55.1478C30.2541 55.3674 30.4733 55.5583 30.7165 55.7146C30.9531 55.9162 31.2426 56.0456 31.5506 56.0871C32.5386 56.1465 33.5967 55.7011 34.0097 54.7374C34.1166 54.5224 34.2068 54.2995 34.2797 54.0707C34.3646 53.7065 34.3947 53.3317 34.3688 52.9586C34.3411 52.572 34.2364 52.1948 34.061 51.8492H34.0664Z" fill="#3DED5A"/>
<path d="M50.4621 42.52C52.2086 42.8169 53.9712 43.0059 55.7096 43.2839C57.5613 43.5836 59.3915 44.0074 61.2351 44.3394C61.1757 44.8469 61.1109 45.357 61.0408 45.8618C60.5657 49.4168 59.899 52.9422 59.27 56.4702C58.6411 59.9982 56.9162 76.5046 56.9162 76.5046L56.8028 77.6087L55.6961 77.7247C55.6961 77.7247 39.1708 79.4577 35.6616 80.0785C32.1525 80.6994 28.6083 81.3742 25.056 81.8466C24.5161 81.9222 23.9763 81.9897 23.4364 82.0545C22.7373 78.467 21.6089 74.9417 20.8369 71.3786C24.6754 70.8873 28.53 70.4149 32.3712 70.0289C33.9908 69.8697 35.5834 69.7293 37.1814 69.5134C38.6498 69.3136 40.1102 69.1139 41.5894 69.0572C43.209 68.9924 45.6195 68.7009 47.6251 68.4228C47.895 66.4199 48.1947 63.9959 48.2568 62.3898C48.3134 60.9106 48.5267 59.4475 48.7129 57.9818C48.9316 56.3838 49.0719 54.775 49.2312 53.1689C49.5902 49.6301 50.0086 46.0696 50.4621 42.52Z" fill="#BCA95B"/>
<path d="M51.7247 34.3252L62.9972 26.5322C62.4573 31.059 62.1415 35.6074 61.6934 40.1396C59.1019 39.3787 56.474 38.7481 53.8194 38.25C52.9016 38.0935 51.9866 37.9396 51.0742 37.7722C51.2416 36.625 51.4467 35.4886 51.7247 34.3252Z" fill="#BCA95B"/>
<path d="M10.8406 21.2116C12.1628 21.8753 13.2942 22.8647 14.1284 24.0864C14.6251 24.8422 14.5117 25.7195 14.6683 26.5752C14.8842 27.7008 15.0732 28.4647 14.6278 29.5606C14.59 29.6497 14.5549 29.7388 14.5253 29.8306C14.2175 30.6593 14.0474 31.4502 13.521 32.1979C13.2248 32.609 12.8884 32.9897 12.5169 33.3343C12.3118 33.5368 12.0986 33.7311 11.8961 33.9255C11.164 34.6146 10.2394 35.0647 9.24534 35.2157C8.24073 35.366 7.2176 35.3395 6.22211 35.1375C4.76177 34.8675 3.75491 33.858 2.71297 32.8268C1.31472 31.4475 0.707368 29.8009 0.553506 27.8412C0.399644 25.8815 1.13922 24.3887 2.12987 23.0445C2.44487 22.6189 2.81839 22.24 3.23933 21.9188C3.44448 21.7812 3.65234 21.6489 3.85749 21.5031C5.97646 20.2641 8.81343 20.2884 10.8406 21.2116Z" fill="#9061C2"/>
<path d="M12.5225 33.3291L16.5013 37.2701C16.6336 37.7911 16.7578 38.3148 16.8793 38.8411C17.6216 42.056 19.1197 45.4059 18.3693 48.7585C18.0184 50.0701 17.5857 51.3584 17.0736 52.6158C17.0736 52.6158 18.0697 57.5124 18.3477 58.63C18.8876 60.7624 19.0387 63.2188 19.5678 65.3486C19.8108 66.3419 20.1319 67.2543 20.275 68.2747C20.4181 69.295 20.6151 70.3505 20.8392 71.3816C21.6112 74.9447 22.7288 78.4701 23.4387 82.0575C23.5413 82.5973 23.6312 83.1291 23.7086 83.6528C23.8517 84.584 24.8072 90.8681 22.1618 89.8126C21.1415 89.405 20.8122 87.8232 20.5045 86.9136C19.9973 85.5022 19.5816 84.0595 19.2601 82.5946C19.2601 82.5676 19.2601 82.5379 19.2439 82.5109C19.1359 81.9306 19.0792 81.3448 18.928 80.7753C18.7391 80.0546 18.5097 79.3446 18.3558 78.6158C17.8888 76.3727 17.3895 74.1349 16.8901 71.8999C16.747 71.2439 16.5985 70.5907 16.4528 69.9348C16.1451 68.5446 15.9129 67.1733 15.7186 65.7643C15.3083 62.8895 14.5794 59.9607 14.0153 57.1048C13.6509 55.2666 13.3188 53.4175 12.9355 51.582C12.4982 49.5008 11.8207 47.479 11.3159 45.414C10.8813 43.6594 10.9003 41.805 10.4576 40.0774C10.0473 38.4578 9.67747 36.8382 9.25098 35.2186C10.245 35.0675 11.1695 34.6175 11.9017 33.9284C12.1041 33.7259 12.3174 33.5316 12.5225 33.3291Z" fill="#BCA95B"/>
<path d="M64.0772 40.8034C65.1569 41.0976 70.2182 41.5916 69.7971 43.5027C69.3625 45.4733 64.2122 44.7903 62.8787 44.6041C62.3388 44.5258 61.78 44.434 61.2348 44.3341C59.3911 44.0021 57.561 43.5783 55.7092 43.2787C53.9682 43.0088 52.2001 42.8117 50.4618 42.5148L49.9219 42.4149C48.7153 42.1909 46.599 41.705 44.1939 41.1273C38.2149 39.6913 30.457 37.6803 30.457 37.6803C29.6674 37.9881 28.8552 38.2345 28.0276 38.4172C24.1325 39.0219 16.6661 37.4103 16.6661 37.4103L16.5149 37.2646L12.5361 33.3236C12.9077 32.979 13.244 32.5983 13.5403 32.1871C14.0666 31.4313 14.2367 30.6485 14.5444 29.8198C14.6892 29.8695 14.8399 29.9004 14.9926 29.9116C16.0836 30.0292 17.1656 30.2186 18.2318 30.4785C23.9003 31.623 29.4205 33.0941 35.0216 34.5275C38.9005 35.5181 42.9091 35.8771 46.7853 36.8678C48.2159 37.2349 49.6493 37.5264 51.0907 37.791C52.0031 37.9583 52.9181 38.1122 53.8359 38.2687C56.4905 38.7668 59.1184 39.3974 61.7099 40.1583C62.4927 40.3715 63.2863 40.5956 64.0772 40.8034Z" fill="#BCA95B"/>
<path d="M51.3876 53.3931L51.3013 54.2946C51.1744 55.5984 51.0313 56.9454 50.8639 58.2843C50.6642 59.7419 50.478 61.1105 50.424 62.4871C50.37 63.8638 50.154 65.9963 49.7707 68.728L49.5467 70.3476L47.9271 70.5716C45.1846 70.9495 43.0845 71.1682 41.6835 71.2249C40.2825 71.2815 38.941 71.4651 37.4914 71.6621C36.1418 71.843 34.7921 71.9726 33.4991 72.0994L32.5895 72.1885C30.1115 72.4315 27.6578 72.7122 25.3525 72.9983" stroke="#FFF4A6" stroke-width="1.48937" stroke-linecap="round" stroke-linejoin="round"/>
<path d="M2.13553 23.0393C1.14487 24.3889 0.410695 25.8655 0.559158 27.8333C0.707622 29.8011 1.31227 31.4423 2.71862 32.8216C3.76597 33.8528 4.77012 34.8677 6.22776 35.1323C8.24956 35.4994 10.3604 35.3833 11.8964 33.9203C12.492 33.3994 13.0346 32.8207 13.516 32.1927C14.0963 31.3559 14.2447 30.4867 14.6199 29.5609C15.0653 28.4649 14.8899 27.701 14.6659 26.5754C14.5012 25.7197 14.6119 24.8424 14.126 24.0866C13.291 22.8656 12.1597 21.8764 10.8382 21.2118C8.17933 19.9836 4.11954 20.3453 2.13553 23.0393Z" fill="#BCA95B" stroke="#101820" stroke-width="1.48937" stroke-linecap="round" stroke-linejoin="round"/>
<path d="M14.528 29.8257C14.6739 29.8749 14.8253 29.9057 14.9788 29.9175C16.0696 30.0364 17.1516 30.2257 18.218 30.4843C23.8866 31.6288 29.4067 33.1 35.0078 34.5333C38.8868 35.5213 42.8953 35.883 46.7716 36.8736C49.1065 37.4729 51.4495 37.8697 53.8222 38.2746C57.2665 38.8604 60.7136 39.8942 64.0796 40.8147C65.1594 41.1089 70.2207 41.6029 69.7996 43.514C69.365 45.4845 64.2146 44.8043 62.8785 44.6126C60.4734 44.2698 58.1114 43.6787 55.7144 43.29C53.7871 42.9795 51.8382 42.7852 49.919 42.4262C45.7026 41.6434 30.4541 37.6915 30.4541 37.6915C29.6644 37.9991 28.8522 38.2455 28.0247 38.4285C24.1323 39.0331 16.6632 37.4216 16.6632 37.4216L12.5332 33.3375" stroke="#101820" stroke-width="1.48937" stroke-linecap="round" stroke-linejoin="round"/>
<path d="M9.25098 35.2104C9.67477 36.83 10.0608 38.4496 10.4603 40.0692C10.9003 41.7968 10.8813 43.6513 11.3159 45.4058C11.8315 47.4708 12.509 49.4899 12.9355 51.5738C13.3188 53.4067 13.6509 55.2584 14.0153 57.0966C14.5794 59.9525 15.311 62.8813 15.7186 65.7588C15.9183 67.1652 16.1451 68.5364 16.4555 69.9266C17.0979 72.8176 17.7512 75.7085 18.3585 78.6076C18.5097 79.3391 18.7391 80.0491 18.928 80.7671C19.0873 81.3663 19.144 81.9818 19.2601 82.5891C19.5819 84.054 19.9976 85.4966 20.5045 86.9081C20.8041 87.8177 21.1415 89.4023 22.1618 89.8099C24.8072 90.8626 23.8517 84.5785 23.7086 83.6473C22.8988 78.4565 20.985 73.4384 20.2643 68.2611C20.1212 67.2407 19.8026 66.3284 19.5543 65.3323C19.0279 63.2025 18.866 60.7434 18.3369 58.6164C18.067 57.4988 17.0628 52.605 17.0628 52.605C17.5747 51.3465 18.0074 50.0573 18.3585 48.7449C19.1089 45.3923 17.6108 42.0425 16.8685 38.8276C16.747 38.3039 16.6228 37.7775 16.4905 37.2538" stroke="#101820" stroke-width="1.48937" stroke-linecap="round" stroke-linejoin="round"/>
<path d="M23.4386 82.0522C23.9784 81.9875 24.5183 81.9173 25.0582 81.8471C28.6132 81.3693 32.1358 80.7026 35.6665 80.0763C39.1972 79.4501 55.7009 77.7225 55.7009 77.7225L56.805 77.6064L56.921 76.5024C56.921 76.5024 58.6513 59.9771 59.2749 56.468C59.8984 52.9588 60.5678 49.4146 61.0429 45.8623C61.1104 45.3548 61.1752 44.8446 61.2373 44.3372M16.9034 71.8974C15.7643 72.0593 14.6522 72.2618 13.5293 72.5344L5.73633 83.8041C10.2334 83.2804 14.7494 82.9538 19.2546 82.5111L16.9034 71.8974ZM50.4616 42.5205C50.0108 46.0701 49.5816 49.6306 49.2306 53.1802C49.0741 54.7863 48.9337 56.3951 48.7151 57.9931C48.518 59.4588 48.3183 60.9219 48.2589 62.4011C48.1968 64.0072 47.9026 66.4312 47.6246 68.4341C45.6217 68.704 43.1977 69.0037 41.5916 69.0685C40.1124 69.1278 38.652 69.3384 37.1863 69.5246C35.5856 69.7406 33.9794 69.881 32.3733 70.0402C28.5322 70.4181 24.6775 70.8878 20.8391 71.3899L50.4616 42.5205ZM61.6935 40.1586C62.1416 35.6237 62.4682 31.0781 62.9972 26.5513L51.7248 34.3253C51.4549 35.4753 51.2417 36.6171 51.077 37.7832L61.6935 40.1586Z" stroke="#101820" stroke-width="1.48937" stroke-linecap="round" stroke-linejoin="round"/>
<path d="M6.42772 25.5684C6.42772 25.5684 5.84465 26.0191 5.74208 26.3782C5.64094 26.7124 5.58107 27.0578 5.56388 27.4066C5.52609 28.6078 5.93908 29.9683 7.11059 30.5027C7.8718 30.851 8.47918 31.0021 9.29978 30.6593C10.528 30.1437 11.1218 27.8304 9.35105 27.69C9.08286 27.6621 8.81207 27.7049 8.56557 27.8142C8.30354 27.944 8.04934 28.0891 7.80434 28.2488C7.80434 28.2488 8.04459 27.9789 8.15256 27.825C8.53857 27.2851 9.28897 26.173 9.28897 26.173" stroke="#101820" stroke-width="1.48937" stroke-linecap="round" stroke-linejoin="round"/>
<path d="M44.1914 41.1328C44.1914 41.1328 44.0105 43.4003 44.0213 43.8834C44.0438 44.4867 44.0284 45.0907 43.9754 45.692C43.871 47.1751 43.534 48.6326 42.9767 50.0109C42.8957 50.1999 42.7715 50.3537 42.7067 50.5508C42.5367 51.0016 42.2479 51.3606 42.04 51.8006C41.5063 52.8209 40.826 53.7576 40.0209 54.5809C39.5917 55.0533 39.2462 55.6228 38.7873 56.0628C36.2823 58.4571 38.4742 56.8132 34.6331 59.8419C33.2051 60.9675 30.2979 62.3334 29.0886 62.6897C26.9292 63.3267 19.5762 65.3404 19.5762 65.3404C19.5762 65.3404 19.9838 63.8072 20.054 63.3213C20.1322 62.768 20.2402 62.2119 20.3239 61.6558C20.5938 59.8338 21.3712 58.1278 21.8787 56.3409C22.3187 54.7887 24.2595 52.0381 24.6104 51.5927C25.4903 50.4241 26.499 49.3584 27.6175 48.4156C30.9134 45.414 32.6652 44.1885 36.9275 42.8334C38.1044 42.4582 39.284 42.0668 40.4825 41.8103C41.6189 41.5701 43.0388 41.4378 44.1914 41.1328Z" stroke="#101820" stroke-width="1.48937" stroke-linecap="round" stroke-linejoin="round"/>
<path d="M30.27 51.6334C30.1916 51.6995 30.1169 51.7698 30.046 51.8439C29.2362 52.7185 29.3549 54.2382 30.0649 55.1533C30.2512 55.3736 30.4697 55.5647 30.7127 55.7202C30.9493 55.9218 31.2388 56.0511 31.5468 56.0927C32.5347 56.1521 33.5929 55.7067 34.0059 54.743C34.1128 54.528 34.2031 54.3051 34.2758 54.0763C34.363 53.7124 34.394 53.3374 34.3676 52.9642C34.3438 52.5724 34.2409 52.1895 34.0653 51.8385C33.8394 51.3774 33.4566 51.0118 32.9856 50.8074C32.2135 50.4592 30.9475 51.0611 30.27 51.6334Z" stroke="#101820" stroke-width="1.48937" stroke-linecap="round" stroke-linejoin="round"/>
<path d="M51.5635 68.1235C51.7821 68.353 52.0331 68.5392 52.268 68.7525C52.6729 69.1142 53.0508 69.5083 53.4341 69.8943" stroke="#101820" stroke-width="1.48937" stroke-linecap="round" stroke-linejoin="round"/>
<path d="M51.7061 62.6953C51.9889 62.9599 52.2892 63.2051 52.6049 63.4295C53.1825 63.8884 53.7386 64.377 54.2866 64.871" stroke="#101820" stroke-width="1.48937" stroke-linecap="round" stroke-linejoin="round"/>
<path d="M52.2139 56.6274C52.543 56.9507 52.89 57.2553 53.2531 57.5398C53.8794 58.05 54.4651 58.6061 55.0967 59.1054" stroke="#101820" stroke-width="1.48937" stroke-linecap="round" stroke-linejoin="round"/>
<path d="M53.4287 51.5688C53.7875 51.9271 54.1708 52.2599 54.5759 52.5649C55.0969 52.9806 55.5774 53.4449 56.1091 53.8444" stroke="#101820" stroke-width="1.48937" stroke-linecap="round" stroke-linejoin="round"/>
<path d="M54.7432 47.0122C55.5666 47.5533 56.3295 48.1814 57.0187 48.8855" stroke="#101820" stroke-width="1.48937" stroke-linecap="round" stroke-linejoin="round"/>
<path d="M47.3164 72.3696C47.5458 72.5883 47.7321 72.8393 47.9426 73.0769C48.307 73.4818 48.7011 73.857 49.0871 74.2403" stroke="#101820" stroke-width="1.48937" stroke-linecap="round" stroke-linejoin="round"/>
<path d="M41.8887 72.5156C42.1538 72.797 42.3991 73.0965 42.6229 73.4118C43.0791 73.9922 43.5677 74.5482 44.0643 75.0962" stroke="#101820" stroke-width="1.48937" stroke-linecap="round" stroke-linejoin="round"/>
<path d="M35.8242 73.02C36.1477 73.3507 36.4532 73.6985 36.7393 74.062C37.2467 74.6855 37.8028 75.2713 38.3022 75.9056" stroke="#101820" stroke-width="1.48937" stroke-linecap="round" stroke-linejoin="round"/>
<path d="M30.7598 74.2349C31.1181 74.5936 31.4509 74.9769 31.7558 75.3821C32.1715 75.9031 32.6358 76.3835 33.0353 76.9153" stroke="#101820" stroke-width="1.48937" stroke-linecap="round" stroke-linejoin="round"/>
<path d="M26.208 75.5498C26.7482 76.374 27.3754 77.1378 28.0787 77.828" stroke="#101820" stroke-width="1.48937" stroke-linecap="round" stroke-linejoin="round"/>
</g>
<g clip-path="url(#clip2_1893_8553)">
<path d="M114.419 107.07L128.824 99.4623L112.318 85.5493L105.356 95.0956L114.419 107.07Z" fill="#98A093"/>
<path d="M113.288 114.353L126.638 106.342L128.824 99.4624L114.42 107.07L113.288 114.353Z" fill="#7A8076"/>
<path d="M113.288 114.353L114.419 107.07L105.356 95.0957L104.549 100.275L113.288 114.353Z" fill="#7A8076"/>
<path d="M108.273 98.9488L105.356 95.0956L112.318 85.5493L128.824 99.4623L114.419 107.07L111.426 103.112" stroke="#101820" stroke-width="1.51532" stroke-linecap="round" stroke-linejoin="round"/>
<path d="M105.356 95.0957L104.549 100.275L113.288 114.353L126.638 106.342L128.824 99.4624" stroke="#101820" stroke-width="1.51532" stroke-linecap="round" stroke-linejoin="round"/>
<path d="M114.42 107.072L113.288 114.353" stroke="#101820" stroke-width="1.51532" stroke-linecap="round" stroke-linejoin="round"/>
</g>
<g clip-path="url(#clip3_1893_8553)">
<path d="M174.544 148.587L148.763 118.622L152.366 114.254L180.04 146.026L174.544 148.587Z" fill="#7A8076"/>
<path d="M180.04 146.025L152.366 114.254L175.289 111.639L180.04 146.025Z" fill="#98A093"/>
<path d="M171.534 136.262L180.04 146.025L175.289 111.639L152.366 114.254L160.761 123.894" stroke="#101820" stroke-width="1.48937" stroke-linecap="round" stroke-linejoin="round"/>
<path d="M180.04 146.026L174.544 148.587L148.763 118.622L152.366 114.254" stroke="#101820" stroke-width="1.48937" stroke-linecap="round" stroke-linejoin="round"/>
</g>
<g clip-path="url(#clip4_1893_8553)">
<path d="M195.06 120.037L204.28 122.957L200.01 115.988L195.06 120.037Z" fill="#98A093"/>
<path d="M193.71 124.197L200.796 126.896L204.281 122.958L195.06 120.037L193.71 124.197Z" fill="#7A8076"/>
<path d="M197.062 120.671L195.06 120.037L200.01 115.988L204.28 122.957L201.006 121.921" stroke="#101820" stroke-width="1.48937" stroke-linecap="round" stroke-linejoin="round"/>
<path d="M195.06 120.037L193.71 124.197L200.796 126.896L204.281 122.958" stroke="#101820" stroke-width="1.48937" stroke-linecap="round" stroke-linejoin="round"/>
</g>
<defs>
<clipPath id="clip0_1893_8553">
<rect width="82.0597" height="77.3008" fill="white" transform="translate(208)"/>
</clipPath>
<clipPath id="clip1_1893_8553">
<rect width="70.3608" height="70.4742" fill="white" transform="translate(0 20)"/>
</clipPath>
<clipPath id="clip2_1893_8553">
<rect width="25.3735" height="29.9023" fill="white" transform="translate(104 85)"/>
</clipPath>
<clipPath id="clip3_1893_8553">
<rect width="32.3569" height="38.0282" fill="white" transform="translate(148.223 111.099)"/>
</clipPath>
<clipPath id="clip4_1893_8553">
<rect width="11.6503" height="11.9877" fill="white" transform="translate(193.17 115.448)"/>
</clipPath>
</defs>
</svg>
