<svg width="119" height="216" viewBox="0 0 119 216" fill="none" xmlns="http://www.w3.org/2000/svg">
<g clip-path="url(#clip0_1893_8552)">
<path d="M53.8324 135.1C52.7527 136.148 52.9228 136.72 53.2764 139.392C54.2589 146.81 56.4778 163.91 56.853 169.719C56.9475 171.145 56.9501 173.045 56.9232 174.775C56.853 179.232 57.0743 179.072 53.9539 181.599C53.9539 181.521 53.9539 181.443 53.9539 181.367C53.9809 179.637 53.9755 177.736 53.8864 176.308C53.8513 175.798 53.8054 175.202 53.7461 174.532C53.6192 173.115 53.441 171.374 53.2251 169.439C53.0091 167.503 52.7554 165.309 52.4882 163.084C51.7216 156.76 50.8362 149.971 50.3071 145.981C49.8185 142.299 48.4176 140.294 53.8162 135.098L53.8324 135.1Z" fill="#909090"/>
<path d="M74.909 176.568C74.5392 179.397 73.7726 180.314 71.5726 182.131C64.2007 188.207 50.4206 199.623 46.4067 202.948C45.1515 201.367 43.8585 199.685 42.7248 198.192C40.2306 194.918 39.5504 193.757 41.0647 192.084L41.1025 192.046C41.7045 191.387 42.6466 190.648 43.9449 189.67C44.6117 189.168 46.1044 187.975 47.8482 186.566C49.5919 185.157 51.5813 183.537 53.2468 182.182L53.9649 181.599C57.0799 179.073 56.8585 179.232 56.9341 174.775C56.9611 173.045 56.9584 171.145 56.8639 169.72C56.4887 163.911 54.2699 146.81 53.2873 139.393C52.9337 136.726 52.7718 136.153 53.8434 135.101C54.2483 134.698 54.834 134.229 55.6573 133.551L59.1368 130.679C59.9115 130.042 61.2962 128.814 62.7701 127.48C63.6932 128.56 64.9592 129.999 65.5423 130.574C67.1619 132.193 68.5979 133.975 70.1608 135.703C71.5726 137.255 72.763 139.017 74.1666 140.597C76.3882 143.099 77.0711 145.015 76.9497 148.425C76.7067 155.173 76.1021 161.956 75.6189 168.67C75.4137 171.293 75.2599 173.958 74.909 176.568Z" fill="#B3B3B3"/>
<path d="M99.7694 170.548C99.3106 172.693 98.1289 174.615 96.4222 175.993L62.3944 203.942C60.3942 205.45 58.4075 206.973 56.3938 208.466C53.6944 210.469 52.8415 210.317 50.4552 207.785C49.4025 206.665 47.9314 204.881 46.4062 202.948C50.4202 199.623 64.2002 188.207 71.5721 182.131C73.7721 180.314 74.5414 179.397 74.9085 176.568C75.2513 173.957 75.4133 171.293 75.6076 168.64C76.0908 161.935 76.6874 155.143 76.9384 148.395C77.0599 144.996 76.377 143.08 74.1554 140.567C72.7518 138.988 71.5613 137.225 70.1496 135.673C68.5867 133.956 67.1641 132.164 65.531 130.544C64.948 129.969 63.682 128.52 62.7588 127.451C63.7009 126.598 64.6834 125.699 65.5688 124.886C68.7675 121.955 68.5165 122.011 72.8975 123.199C74.4091 123.612 75.9369 124.009 76.7332 124.233C78.1126 124.597 80.1479 125.175 81.7324 125.629C84.3292 126.374 83.9702 126.141 85.579 128.161C87.293 130.32 90.1246 133.829 91.8441 135.74C93.4853 137.562 96.7029 141.29 98.9488 143.922C101.667 147.096 101.465 146.532 101.378 150.541C101.308 153.345 101.187 157.038 100.998 158.979C100.809 160.92 100.285 166.035 99.9178 169.62C99.8782 169.942 99.8288 170.251 99.7694 170.548ZM86.5156 172.192C87.8869 171.922 88.0084 169.938 87.0339 169.274C86.683 169.036 86.1944 168.966 85.5736 169.201C85.252 169.303 84.9701 169.502 84.7674 169.772C84.5646 170.041 84.451 170.368 84.4426 170.705C84.4183 171.733 85.5871 172.381 86.5156 172.192ZM86.4886 161.125C86.6906 161.327 86.933 161.485 87.1999 161.587C87.4668 161.689 87.7523 161.734 88.0378 161.719C88.3232 161.704 88.6023 161.629 88.8568 161.498C89.1112 161.368 89.3354 161.186 89.5146 160.963C90.0761 160.266 89.9087 159.044 89.2824 158.434C89.1312 158.284 88.946 158.172 88.7426 158.11C87.9328 157.872 86.9718 158.42 86.4428 159.041C86.3078 159.18 86.2018 159.344 86.1309 159.524C86.06 159.704 86.0257 159.896 86.03 160.09C86.0343 160.283 86.077 160.474 86.1558 160.651C86.2345 160.827 86.3477 160.987 86.4886 161.119V161.125ZM87.8032 150.327C88.0166 150.554 88.2749 150.734 88.5616 150.856C88.8483 150.978 89.1573 151.039 89.4688 151.035C89.7803 151.031 90.0875 150.962 90.371 150.833C90.6544 150.703 90.9079 150.517 91.1153 150.284C91.9872 149.291 91.5931 147.38 90.3568 146.826C90.2551 146.781 90.1494 146.746 90.041 146.721C88.1973 146.289 86.405 148.881 87.8032 150.327Z" fill="#B3B3B3"/>
<path d="M87.0341 169.274C88.0086 169.938 87.8871 171.911 86.5158 172.192C85.5873 172.381 84.4185 171.733 84.4428 170.705C84.4512 170.368 84.5648 170.042 84.7676 169.772C84.9703 169.503 85.2522 169.303 85.5738 169.201C86.1946 168.967 86.6832 169.037 87.0341 169.274Z" fill="#00FF00"/>
<path d="M91.1163 150.285C90.9089 150.517 90.6554 150.704 90.372 150.833C90.0885 150.962 89.7813 151.031 89.4698 151.035C89.1583 151.039 88.8493 150.978 88.5626 150.857C88.2759 150.735 88.0176 150.555 87.8042 150.328C86.4059 148.881 88.1983 146.279 90.0419 146.721C90.1504 146.746 90.2561 146.782 90.3578 146.827C91.5941 147.38 91.9963 149.291 91.1163 150.285Z" fill="#FF4040"/>
<path d="M89.5148 160.963C89.3356 161.186 89.1114 161.368 88.857 161.499C88.6025 161.629 88.3235 161.704 88.038 161.719C87.7525 161.735 87.467 161.69 87.2001 161.587C86.9332 161.485 86.6909 161.327 86.4889 161.125C86.3464 160.993 86.2317 160.834 86.1515 160.657C86.0713 160.48 86.0273 160.289 86.022 160.095C86.0167 159.901 86.0503 159.708 86.1207 159.527C86.1912 159.346 86.2971 159.181 86.4322 159.041C86.9721 158.42 87.9303 157.872 88.732 158.11C88.9355 158.173 89.1207 158.284 89.2719 158.434C89.9089 159.038 90.0763 160.261 89.5148 160.963Z" fill="#1A78FF"/>
<path d="M99.7698 170.548C99.0788 177.318 98.1259 179.804 96.1392 181.437L62.1087 209.389C60.1085 210.895 58.1191 212.418 56.1081 213.91C53.4087 215.913 52.5558 215.762 50.1695 213.23C48.253 211.192 44.9463 206.949 42.4278 203.637C38.9538 199.067 36.7593 196.457 41.0566 192.084C39.5423 193.757 40.2225 194.918 42.7167 198.192C43.8504 199.685 45.1461 201.367 46.3985 202.948C47.9318 204.881 49.4029 206.665 50.4475 207.786C52.8257 210.318 53.6867 210.469 56.3861 208.466C58.3998 206.973 60.3865 205.451 62.3867 203.942L96.4226 175.993C98.1293 174.615 99.311 172.693 99.7698 170.548Z" fill="#909090"/>
<path d="M56.1514 134.885L56.505 134.593L59.9871 131.721C60.527 131.265 61.4124 130.501 62.6406 129.402C63.5475 130.439 64.1765 131.13 64.549 131.502L64.6543 131.608C65.6395 132.59 66.5438 133.624 67.4886 134.717C68.0284 135.335 68.5683 135.975 69.1514 136.607C69.8532 137.379 70.501 138.199 71.1759 139.071C71.7994 139.881 72.4446 140.691 73.1464 141.501C75.1277 143.736 75.6999 145.339 75.5758 148.373C75.3949 153.467 74.9954 158.669 74.6121 163.7C74.4906 165.295 74.3638 166.939 74.2477 168.559C74.218 168.95 74.191 169.344 74.164 169.736C74.0074 171.941 73.8455 174.222 73.5567 176.409" stroke="white" stroke-width="1.48937" stroke-linecap="round" stroke-linejoin="round"/>
<path d="M86.4484 147.305C85.671 148.673 85.8249 150.231 86.8344 151.275L86.8776 151.321C87.2305 151.675 87.6519 151.954 88.116 152.139C88.5801 152.325 89.0772 152.414 89.577 152.401M66.4814 125.913L66.7838 125.643C67.9634 124.563 68.6139 123.961 69.0944 123.853C69.5749 123.745 70.552 123.999 72.1392 124.431L72.5441 124.541C74.2717 125.011 75.6727 125.389 76.3907 125.578C77.8051 125.95 79.8728 126.539 81.3602 126.963L81.9162 127.122C83.1039 127.459 83.2335 127.508 83.4414 127.716C83.6492 127.924 83.8436 128.18 84.1675 128.59L84.5211 129.041C86.4781 131.495 89.1612 134.815 90.8429 136.683C92.5813 138.616 96.0256 142.621 97.9233 144.838L98.482 145.488C99.3296 146.468 99.7966 147.008 99.9478 147.421C100.099 147.834 100.077 148.411 100.04 149.737C100.04 149.985 100.04 150.252 100.018 150.547C99.9505 153.3 99.829 156.982 99.6454 158.888C99.4997 160.386 99.1245 164.062 98.5657 169.518C98.5404 169.775 98.5017 170.031 98.4497 170.284L66.4814 125.913ZM83.0877 170.681C83.0804 171.047 83.1485 171.411 83.2878 171.75C83.4271 172.089 83.6347 172.396 83.8975 172.651C84.2731 173.019 84.7318 173.29 85.2346 173.442C85.7374 173.595 86.2695 173.623 86.7858 173.526L83.0877 170.681ZM85.4038 158.172C84.9092 158.708 84.6444 159.416 84.6661 160.145C84.6878 160.874 84.9943 161.565 85.5198 162.07L85.5576 162.108C85.8904 162.438 86.289 162.695 86.7276 162.861C87.1662 163.027 87.6349 163.099 88.1031 163.072L85.4038 158.172Z" stroke="white" stroke-width="1.48937" stroke-linecap="round" stroke-linejoin="round"/>
<path d="M33.5336 181.923C33.6091 182.841 32.9937 183.465 32.1839 183.789C31.6273 184.038 31.0146 184.137 30.4077 184.075C30.118 184.038 29.8405 183.936 29.5959 183.777C29.3513 183.617 29.1462 183.405 28.996 183.154C28.5479 182.458 28.3616 181.756 28.7584 180.995C29.0771 180.334 29.6333 179.818 30.3159 179.551L30.8099 179.426C31.3463 179.351 31.8919 179.47 32.3485 179.761C32.7013 180.004 32.9922 180.326 33.198 180.701C33.4038 181.077 33.5187 181.495 33.5336 181.923Z" fill="#101820"/>
<path d="M49.5024 117.28C49.4141 116.873 49.4234 116.451 49.5294 116.049C49.9073 115.112 51.2597 114.429 52.2288 114.556C52.5207 114.591 52.7956 114.712 53.0179 114.905C53.2402 115.097 53.3997 115.352 53.4759 115.636C54.1561 117.755 51.7483 119.707 49.991 118.046C49.7547 117.846 49.5844 117.579 49.5024 117.28Z" fill="#101820"/>
<path d="M51.668 156.406C51.9055 158.296 52.1512 160.25 52.3833 162.172C51.1668 162.021 49.962 161.787 48.777 161.473C47.687 161.187 46.6211 160.816 45.5891 160.364C44.3528 159.824 43.13 159.243 41.9315 158.62C40.9165 158.08 39.745 157.481 38.9217 156.679C38.417 156.188 37.842 155.837 37.3318 155.329C35.5719 153.545 34.3221 151.28 33.3692 148.986C33.1911 148.559 32.9454 148.176 32.7996 147.72C32.7087 147.356 32.658 146.983 32.6485 146.608C32.5567 145.704 32.554 144.797 32.4514 143.892C32.3678 143.155 32.4244 142.418 32.3192 141.679C32.2691 141.244 32.2937 140.804 32.392 140.378C32.5873 139.522 32.9338 138.709 33.4151 137.975C33.6836 137.557 33.9737 137.152 34.2843 136.763C34.5731 136.396 34.7998 135.986 35.0941 135.635C35.3883 135.284 35.6663 134.796 36.0064 134.418C36.6327 133.721 37.4317 133.211 38.1254 132.588C38.4979 132.256 38.8354 131.899 39.2322 131.597C40.8065 130.454 42.4489 129.409 44.1503 128.466C45.3785 127.75 46.685 127.038 47.5002 125.836C48.2696 124.787 48.8203 123.594 49.1198 122.327C49.4977 120.667 49.4734 118.967 49.4923 117.277C49.572 117.578 49.7414 117.849 49.9782 118.052C51.7354 119.712 54.1433 117.76 53.463 115.641C53.6628 116.14 53.8544 116.643 54.0515 117.142C54.1865 117.479 54.3376 117.811 54.4672 118.149C54.5998 118.476 54.6905 118.819 54.7371 119.169C55.1123 122.792 53.3227 126.711 50.8393 129.251C50.2246 129.896 49.5145 130.442 48.7338 130.871C45.8374 132.442 42.825 134.167 40.706 136.747C38.1848 139.816 38.3171 142.929 39.0864 146.611C39.2543 147.221 39.5284 147.798 39.8962 148.314C41.0218 150.133 42.2149 152.004 43.9776 153.275C45.0451 154.008 46.1981 154.609 47.4111 155.062C48.7879 155.625 50.2079 156.077 51.6572 156.412L51.668 156.406Z" fill="#00FF00"/>
<path d="M43.0594 177.429C42.7274 178.311 42.2847 179.27 41.5073 179.858C39.8877 181.065 37.9981 181.872 36.1086 182.595C35.1638 182.962 32.3565 183.753 32.1811 183.802C32.9909 183.478 33.5982 182.854 33.5307 181.937C33.5161 181.51 33.4018 181.092 33.197 180.717C32.9922 180.342 32.7025 180.02 32.3511 179.777C31.8945 179.486 31.3489 179.367 30.8125 179.443C31.6574 179.229 33.3391 178.795 34.0517 178.525C35.0147 178.148 35.947 177.697 36.8401 177.175C37.8767 176.581 38.8214 175.72 39.2695 174.57C39.7797 173.256 39.9174 171.903 40.2413 170.548C40.4545 169.647 40.9377 168.818 41.2724 167.96C41.7537 166.689 42.4979 165.535 43.4562 164.572C43.8428 164.134 44.2868 163.751 44.7761 163.433C45.3619 163.101 45.9666 162.793 46.5604 162.474C47.2714 162.083 48.0158 161.755 48.7847 161.495C49.9697 161.808 51.1745 162.042 52.391 162.194C52.5421 163.417 52.6852 164.623 52.8256 165.805H52.7419C51.8141 165.754 50.8841 165.854 49.9886 166.102C49.413 166.228 48.8494 166.403 48.3042 166.626C47.208 167.083 46.2511 167.821 45.5293 168.764C44.8838 169.641 44.4077 170.63 44.1256 171.682C43.7666 172.945 43.88 174.179 43.6667 175.461C43.5273 176.135 43.324 176.794 43.0594 177.429Z" fill="#FF4040"/>
<path d="M62.3948 203.942C60.3946 205.451 58.4079 206.973 56.3942 208.466C53.6949 210.469 52.8419 210.317 50.4557 207.786C48.5391 205.748 45.2325 201.504 42.714 198.192C39.2319 193.603 39.2885 193.171 43.9395 189.67C45.2702 188.666 49.9131 184.892 53.2333 182.182C57.096 179.027 56.8396 179.548 56.9152 174.775C56.9422 173.045 56.9395 171.145 56.845 169.72C56.4698 163.911 54.2509 146.81 53.2684 139.393C52.7825 135.711 52.6556 136.013 55.6384 133.551L59.1205 130.679C60.3865 129.634 63.291 127 65.5611 124.916C68.7598 121.985 68.5088 122.041 72.8871 123.229C74.4014 123.639 75.9266 124.039 76.7256 124.263C78.1049 124.627 80.1402 125.205 81.7247 125.658C84.3215 126.403 83.9625 126.171 85.5713 128.19C87.2853 130.35 90.117 133.859 91.8391 135.77C93.4776 137.592 96.6979 141.32 98.9411 143.952C101.659 147.123 101.457 146.562 101.37 150.57C101.3 153.375 101.179 157.068 100.99 159.009C100.801 160.949 100.277 166.067 99.9101 169.647C99.6342 172.139 98.3822 174.421 96.428 175.993L62.3948 203.942Z" stroke="#101820" stroke-width="1.48937" stroke-linecap="round" stroke-linejoin="round"/>
<path d="M99.7658 170.548C99.0775 177.318 98.1246 179.804 96.1352 181.437L62.1074 209.389C60.1072 210.895 58.1205 212.418 56.1068 213.91C53.4075 215.913 52.5545 215.762 50.1683 213.23C48.2517 211.192 44.945 206.949 42.4266 203.637C38.9417 199.048 36.7418 196.44 41.0931 192.046" stroke="#101820" stroke-width="1.48937" stroke-linecap="round" stroke-linejoin="round"/>
<path d="M53.9568 181.599C53.9568 181.521 53.9568 181.443 53.9568 181.367C53.9838 179.637 53.9811 177.736 53.8867 176.308C53.5115 170.502 51.2926 153.402 50.31 145.984C49.8215 142.299 48.4205 140.294 53.8192 135.098" stroke="#101820" stroke-width="1.48937" stroke-linecap="round" stroke-linejoin="round"/>
<path d="M62.7588 127.492C63.682 128.571 64.9507 130.013 65.531 130.588C67.1506 132.207 68.584 133.989 70.1496 135.717C71.5613 137.269 72.7517 139.031 74.1554 140.61C76.3769 143.113 77.0626 145.029 76.9384 148.439C76.6981 155.187 76.0908 161.968 75.6049 168.684C75.4133 171.337 75.2513 174.001 74.9085 176.611C74.5387 179.44 73.7748 180.358 71.5721 182.175C64.2002 188.251 50.4202 199.666 46.4062 202.992" stroke="#101820" stroke-width="1.48937" stroke-linecap="round" stroke-linejoin="round"/>
<path d="M90.3578 146.827C90.2561 146.782 90.1504 146.747 90.0419 146.722C88.1983 146.29 86.4059 148.881 87.8042 150.328C88.0176 150.555 88.2759 150.735 88.5626 150.857C88.8493 150.979 89.1583 151.039 89.4698 151.035C89.7813 151.031 90.0885 150.962 90.372 150.833C90.6554 150.704 90.9089 150.517 91.1163 150.285C91.9963 149.292 91.5941 147.383 90.3578 146.827Z" stroke="#101820" stroke-width="1.48937" stroke-linecap="round" stroke-linejoin="round"/>
<path d="M88.732 158.104C87.9222 157.867 86.9613 158.415 86.4322 159.036C86.2971 159.175 86.1912 159.34 86.1207 159.521C86.0503 159.702 86.0167 159.896 86.022 160.09C86.0273 160.284 86.0713 160.475 86.1515 160.652C86.2317 160.829 86.3464 160.988 86.4889 161.12C86.6909 161.322 86.9332 161.479 87.2001 161.582C87.467 161.684 87.7525 161.729 88.038 161.714C88.3235 161.699 88.6025 161.623 88.857 161.493C89.1114 161.363 89.3356 161.18 89.5148 160.958C90.0763 160.261 89.9089 159.038 89.2827 158.431C89.1296 158.278 88.9402 158.165 88.732 158.104Z" stroke="#101820" stroke-width="1.48937" stroke-linecap="round" stroke-linejoin="round"/>
<path d="M87.0341 169.274C86.6832 169.037 86.1946 168.967 85.5738 169.201C85.2526 169.303 84.971 169.502 84.7683 169.771C84.5656 170.04 84.4518 170.365 84.4428 170.702C84.4185 171.733 85.5873 172.381 86.5158 172.192C87.8871 171.911 88.0086 169.938 87.0341 169.274Z" stroke="#101820" stroke-width="1.48937" stroke-linecap="round" stroke-linejoin="round"/>
<path d="M53.4735 115.644C53.6733 116.143 53.8649 116.645 54.062 117.145C54.1969 117.482 54.3481 117.814 54.4777 118.154C54.6106 118.481 54.7013 118.823 54.7476 119.172C55.1228 122.795 53.3331 126.714 50.8497 129.254C50.2356 129.899 49.5254 130.446 48.7443 130.874C45.8479 132.445 42.8381 134.17 40.7165 136.75C38.1953 139.819 38.3276 142.932 39.0969 146.613C39.2668 147.224 39.5408 147.8 39.9067 148.317C41.035 150.136 42.2254 152.007 43.9881 153.278C45.0556 154.011 46.2086 154.611 47.4216 155.065C48.7996 155.628 50.2204 156.079 51.6703 156.415" stroke="#101820" stroke-width="1.48937" stroke-linecap="round" stroke-linejoin="round"/>
<path d="M49.502 117.274C49.4832 118.967 49.502 120.67 49.1322 122.33C48.8318 123.596 48.2811 124.789 47.5126 125.839C46.7028 127.041 45.391 127.756 44.1628 128.469C42.4614 129.412 40.8189 130.457 39.2446 131.6C38.8478 131.902 38.5104 132.258 38.1406 132.59C37.4441 133.211 36.6451 133.724 36.0189 134.421C35.6788 134.798 35.4385 135.252 35.1065 135.635C34.7745 136.019 34.5667 136.399 34.2967 136.766C33.9835 137.154 33.6924 137.558 33.4248 137.978C32.9435 138.712 32.5971 139.525 32.4018 140.381C32.3035 140.807 32.2789 141.247 32.3289 141.682C32.4342 142.421 32.3775 143.158 32.4612 143.895C32.5637 144.8 32.5665 145.706 32.6582 146.613C32.668 146.988 32.7187 147.36 32.8094 147.723C32.9551 148.166 33.2008 148.562 33.3789 148.989C34.3318 151.294 35.5816 153.548 37.3416 155.332C37.8382 155.837 38.4213 156.188 38.9315 156.682C39.7413 157.492 40.9236 158.094 41.9412 158.623C43.1397 159.246 44.3706 159.824 45.5988 160.367C47.7654 161.291 50.0535 161.9 52.3931 162.175" stroke="#101820" stroke-width="1.48937" stroke-linecap="round" stroke-linejoin="round"/>
<path d="M52.7312 165.792C51.8043 165.741 50.8752 165.841 49.9806 166.089C49.4053 166.216 48.8418 166.391 48.2962 166.613C47.2 167.07 46.2431 167.807 45.5213 168.751C44.876 169.628 44.3992 170.617 44.1149 171.669C43.7586 172.932 43.8747 174.166 43.6588 175.448C43.5228 176.126 43.3221 176.789 43.0595 177.429C42.7275 178.312 42.2848 179.27 41.5101 179.859C39.8905 181.065 38.0009 181.872 36.1114 182.596C35.1342 182.974 32.1758 183.805 32.1758 183.805" stroke="#101820" stroke-width="1.48937" stroke-linecap="round" stroke-linejoin="round"/>
<path d="M48.7771 161.474C48.0082 161.735 47.2638 162.064 46.5529 162.456C45.959 162.775 45.3544 163.082 44.7686 163.417C44.2787 163.735 43.8346 164.118 43.4487 164.556C42.4885 165.517 41.7432 166.671 41.2622 167.941C40.9302 168.8 40.4524 169.631 40.2338 170.53C39.9098 171.88 39.7722 173.229 39.262 174.552C38.8139 175.702 37.8691 176.563 36.8326 177.157C35.9398 177.679 35.0075 178.13 34.0442 178.506C33.0886 178.874 30.3164 179.551 30.3164 179.551" stroke="#101820" stroke-width="1.48937" stroke-linecap="round" stroke-linejoin="round"/>
<path d="M52.2243 114.556C51.2606 114.426 49.9082 115.112 49.5249 116.046C49.4415 116.307 49.413 116.583 49.4412 116.856C49.4376 117.084 49.4841 117.31 49.5774 117.518C49.6707 117.726 49.8085 117.911 49.9811 118.06C51.7411 119.717 54.1462 117.765 53.4659 115.646C53.392 115.361 53.2341 115.105 53.0127 114.91C52.7913 114.716 52.5166 114.592 52.2243 114.556V114.556Z" stroke="#101820" stroke-width="1.48937" stroke-linecap="round" stroke-linejoin="round"/>
<path d="M32.3539 179.759C31.2283 179.038 29.5925 179.391 28.7584 180.995C28.3616 181.762 28.5479 182.461 28.996 183.154C29.1456 183.405 29.3502 183.618 29.5943 183.778C29.8384 183.938 30.1156 184.04 30.405 184.078C31.0128 184.14 31.6264 184.042 32.1839 183.791C32.9937 183.467 33.6118 182.847 33.5336 181.923C33.4472 180.89 32.9802 180.158 32.3539 179.759Z" stroke="#101820" stroke-width="1.48937" stroke-linecap="round" stroke-linejoin="round"/>
</g>
<g clip-path="url(#clip1_1893_8552)">
<path d="M36.3438 14.7251C37.634 13.945 38.9999 13.2054 40.2416 12.4307C41.3672 11.7261 42.7979 11.4157 43.8695 10.7463C44.3095 10.4763 45.1085 10.4088 45.6052 10.2469C46.8388 9.84739 48.0589 9.57476 49.2493 9.28593C50.2885 9.03489 51.4087 8.5868 52.5101 8.41674C53.7841 8.21969 55.2283 8.45993 56.5078 8.26018C58.4602 7.92026 60.4334 7.71284 62.4139 7.63934C63.939 7.61504 65.8933 8.26288 67.4104 8.6138C68.5225 8.87023 69.8614 8.9917 70.9195 9.4236L70.9924 9.45329C73.2247 10.3738 75.4949 11.3428 77.7407 12.266C79.7031 13.0758 81.4415 14.8358 83.1718 16.0451C84.6834 17.0951 86.3327 17.9643 87.6581 19.2411C88.4355 19.9915 89.5152 20.6285 90.2089 21.4491C90.505 21.8572 90.8394 22.2359 91.2077 22.5801C91.7476 23.0147 92.2874 23.2739 92.7193 23.8299C92.9622 24.135 93.2592 24.6748 93.548 24.9097C93.8368 25.1445 94.4982 25.4927 94.76 25.9084C94.8275 26.0218 94.76 26.1919 94.8518 26.2917C95.2594 26.7749 95.945 27.0475 96.3634 27.5415C97.4809 28.8669 98.9008 30.0276 99.967 31.434C103.206 35.7016 106.259 39.8586 109.056 44.3341C110.883 47.2574 112.778 50.2726 114.578 53.169C115.002 53.8465 114.897 54.8453 115.305 55.4958C116.013 56.6869 116.566 57.9643 116.949 59.2965C117.097 59.7554 117.588 60.1063 117.737 60.5598C117.982 61.3156 118.233 62.6571 118.422 63.4453C118.422 63.4453 116.571 64.2551 116.168 64.4063C115.514 64.6522 114.877 64.9398 114.26 65.2674C114.036 65.4217 113.799 65.5572 113.553 65.6723C112.5 66.0691 111.58 66.8249 110.554 67.2919C107.471 68.7171 104.372 69.9669 101.336 71.4921C100.256 72.0319 98.9791 72.3288 97.8265 72.7607C89.248 75.9864 80.8773 79.8276 72.5526 83.6553C72.5526 83.6553 70.0341 79.7898 68.015 76.6532C65.4156 72.6042 63.5422 68.0747 61.183 63.861C59.7713 61.3345 58.5997 58.7026 57.3338 56.1032C55.3012 51.9246 53.2524 47.8783 51.7057 43.4865C50.993 41.462 50.3911 39.343 49.5462 37.3779C49.2979 36.8083 48.9199 36.2982 48.6959 35.7097C48.2883 34.6624 48.0049 33.5745 47.5973 32.5272C47.4137 32.0629 47.0574 31.6688 46.8847 31.1964C46.6822 30.6565 46.4852 30.1032 46.2449 29.5903C46.0398 29.1584 45.705 28.7805 45.4864 28.3459C45.2677 27.9113 45.1895 27.5064 44.9735 27.1393C44.4633 26.2566 44.0153 25.3874 43.5483 24.4724C42.9193 23.2415 42.1149 22.043 41.4509 20.8283C41.1459 20.2614 40.6006 19.7485 40.2119 19.2303C39.5316 18.3071 38.8865 17.2409 38.0821 16.4284C37.7879 16.1368 36.3438 14.7251 36.3438 14.7251Z" fill="#96A782"/>
<path d="M61.4186 17.4432C61.5287 16.6728 61.8959 15.9623 62.4605 15.4268C62.8276 15.0732 64.2529 14.347 64.7793 14.4442C65.1666 14.5037 65.5437 14.6172 65.8995 14.7816L66.2369 14.949C66.2369 14.949 66.3611 14.6116 66.4016 14.5495C66.6113 14.2841 66.8921 14.0837 67.2114 13.9718C67.9872 13.6601 68.8338 13.5681 69.6585 13.7057C70.4832 13.8433 71.254 14.2053 71.8866 14.7519C72.3239 15.1271 72.7963 16.7926 72.7963 16.7926C71.7317 16.566 70.636 16.524 69.5571 16.6685C68.858 16.7575 68.1237 16.601 67.4219 16.7494C67.152 16.8061 66.8982 17.0005 66.6121 17.0572C65.9967 17.1867 65.0141 17.427 64.4823 17.8022C63.9506 18.1774 63.3027 18.2665 62.8007 18.612C62.4174 18.8819 62.007 19.1519 61.6075 19.4218C61.5859 19.4272 61.3538 17.7995 61.4186 17.4432Z" fill="#73845F"/>
<path d="M62.4674 5.85203C64.1626 6.71582 69.6746 8.91848 70.7948 9.36117C69.7502 8.97786 68.4761 8.85639 67.4098 8.60805C65.8928 8.25984 63.9385 7.6093 62.4107 7.63629C60.4312 7.71114 58.459 7.91855 56.5073 8.25714C56.002 8.32624 55.4919 8.35423 54.9821 8.34082H54.9524C54.1419 8.30361 53.3297 8.32888 52.5231 8.4164C51.4433 8.58376 50.2988 9.03185 49.2595 9.28289C48.0718 9.57172 46.849 9.84435 45.6154 10.2438C45.1215 10.4031 44.3225 10.4679 43.8825 10.7432C42.8028 11.4154 41.3775 11.7231 40.2519 12.4276C39.0102 13.2023 37.6443 13.9392 36.354 14.722C36.1921 14.8192 36.0274 14.9191 35.8709 15.019C35.412 15.3078 34.7371 15.4347 34.2675 15.7289C33.4145 16.2688 32.5723 16.9355 31.7031 17.4781C28.5288 19.446 25.4971 21.6352 22.6306 24.0293C21.6778 24.8391 19.737 26.4236 19.737 26.4236C19.737 26.4236 16.3925 22.2532 15.1481 20.8684C12.4326 17.8317 9.60636 14.8624 6.86114 11.8392C5.55736 10.4004 4.1267 9.09663 2.85262 7.6309C2.39913 7.11263 0.541992 5.23659 0.541992 5.23659C0.541992 5.23659 4.05113 3.40644 4.91762 3.20129C5.45748 3.06902 6.13502 2.71001 6.69378 2.52916C7.63585 2.22143 8.48343 2.3591 9.45519 2.25922C10.3568 2.17284 11.2287 1.75445 12.1248 1.61408C14.0441 1.31986 15.9363 0.898759 17.8609 0.955445C19.3213 0.998634 20.8302 0.49116 22.277 0.534349C24.8333 0.609931 27.3545 0.958146 29.9053 1.03373C31.6356 1.08501 33.3605 1.03373 35.0989 1.1498C35.6387 1.18489 36.211 0.947347 36.7562 0.993235C40.565 1.31716 44.3927 1.78144 48.2257 2.01898C49.5754 2.10266 51.0141 2.66412 52.3287 2.96375C54.6339 3.50362 56.9607 3.92471 59.077 4.88567C60.1216 5.35806 61.4551 5.33916 62.4674 5.85203Z" fill="#73845F"/>
<path d="M61.8984 38.3007C62.3789 37.3938 64.3683 36.7378 65.3292 36.727C66.0877 36.7135 67.0109 36.6542 67.7316 36.8863C67.8639 36.9241 68.6332 37.0105 68.6332 37.0105C68.676 36.5508 68.773 36.0977 68.9221 35.6608C69.1044 35.2485 69.3413 34.8626 69.6266 34.5136C70.188 33.9332 71.2057 33.7038 71.9804 33.6444C73.0274 33.538 74.0849 33.6738 75.0711 34.0412C75.2061 34.0979 76.3857 34.716 76.437 34.6701C76.437 34.6701 76.4208 34.3651 76.4235 34.3273C76.4232 34.078 76.4486 33.8292 76.4991 33.585C76.6181 32.9953 76.856 32.436 77.1982 31.9411C77.6085 31.3797 78.2779 31.1313 78.9204 30.9397C79.382 30.8155 79.7815 30.5591 80.27 30.5402C81.4891 30.4894 82.6998 30.7623 83.7792 31.3311C84.203 31.5632 84.5161 31.9978 84.8238 32.3568C84.9831 32.5404 85.1882 32.6429 85.3232 32.8508C85.7043 33.4555 85.9184 34.1502 85.944 34.8645C85.8944 35.1334 85.8033 35.3929 85.6741 35.6338C85.5904 35.8417 85.5607 36.0765 85.469 36.279C85.3238 36.5361 85.1419 36.7707 84.9291 36.9754C84.7839 37.2016 84.6253 37.4188 84.454 37.6259C84.0508 37.9888 83.5701 38.2548 83.0485 38.4036C82.5269 38.5523 81.9782 38.5799 81.4442 38.4843L81.1743 38.4141C81.1743 38.4141 80.7019 39.0593 80.5427 39.2806C80.0622 39.9392 79.2713 40.7167 78.4669 40.9488C76.9661 41.3807 75.7676 41.1242 74.3558 40.6789C73.6801 40.4234 73.0194 40.1296 72.3772 39.7989C72.3772 39.7989 70.0909 40.9272 69.0759 41.2376C66.9164 41.899 63.0564 41.7586 61.6339 39.7611C61.283 39.2779 61.6447 38.7731 61.8984 38.3007Z" fill="#73845F"/>
<path d="M59.0591 36.7647C58.0711 35.8685 57.2128 33.8278 56.8996 32.5132C56.4542 30.6048 56.2275 28.7342 56.7674 26.8068C56.851 26.5099 56.7943 26.1995 56.9212 25.9134C57.4815 24.6718 58.1301 23.472 58.8621 22.3232C59.2588 21.6351 59.7413 21.0002 60.2981 20.4337C61.035 19.7454 61.9528 19.2163 62.7707 18.6387C63.2728 18.2824 63.9503 18.1744 64.4524 17.8289C64.9544 17.4833 65.9667 17.2134 66.5848 17.0838C66.8548 17.0272 67.1058 16.8328 67.3811 16.7761C68.0857 16.6277 68.8172 16.7761 69.519 16.6951C71.1934 16.4598 72.9003 16.6924 74.4507 17.3673C75.2146 17.702 76.6507 19.3783 76.9503 20.1476C77.096 20.5255 77.3201 20.8872 77.4739 21.2813C77.5468 21.473 77.698 21.8617 77.698 21.8617L77.6413 21.7159" stroke="#50613C" stroke-width="1.48937" stroke-linecap="round" stroke-linejoin="round"/>
<path d="M64.2139 25.9677C64.8077 25.5439 65.407 25.1228 65.963 24.6558C66.1466 24.5047 66.4084 24.448 66.5974 24.2887C66.9024 24.0188 67.4423 23.7758 67.8256 24.0566C68.2033 24.3125 68.5091 24.661 68.7137 25.0688C68.7542 25.1768 68.7136 25.2605 68.7973 25.3603" stroke="#50613C" stroke-width="1.48937" stroke-linecap="round" stroke-linejoin="round"/>
<path d="M61.6259 39.7612C63.0512 41.7587 66.9166 41.8991 69.0707 41.2377C70.0856 40.9273 72.372 39.799 72.372 39.799C73.0139 40.1296 73.6746 40.4225 74.3506 40.6763C75.7678 41.127 76.9609 41.3808 78.459 40.9462C79.2688 40.714 80.057 39.9366 80.5375 39.2753L81.1691 38.4115L81.4391 38.4817C81.973 38.5771 82.5216 38.5494 83.0432 38.4007C83.5648 38.2519 84.0455 37.986 84.4488 37.6233C84.6404 37.4479 84.7511 37.1698 84.9239 36.9755C85.1362 36.7693 85.3179 36.5339 85.4637 36.2763C85.5555 36.0739 85.5825 35.839 85.6689 35.6312C85.7969 35.3888 85.8879 35.1286 85.9388 34.8592C85.9101 34.1459 85.6951 33.4526 85.3153 32.8482C85.1803 32.6376 84.9752 32.5351 84.8159 32.3515C84.5082 31.9979 84.1951 31.5606 83.7713 31.3258C82.6904 30.761 81.4808 30.4884 80.2622 30.5349C79.7682 30.5565 79.3687 30.8048 78.9125 30.9398C78.2619 31.1179 77.6006 31.3744 77.1903 31.9385C76.8484 32.4338 76.6097 32.9929 76.4885 33.5824C76.4393 33.8268 76.414 34.0754 76.4129 34.3247C76.4129 34.3652 76.4291 34.6675 76.4291 34.6675C76.3778 34.7134 75.1982 34.0953 75.0659 34.0386C74.0788 33.6713 73.0204 33.5355 71.9725 33.6418C71.1978 33.6904 70.1801 33.9279 69.616 34.511C69.3322 34.8596 69.0962 35.2445 68.9141 35.6555C68.766 36.0926 68.6699 36.5456 68.628 37.0052C68.628 37.0052 67.856 36.9215 67.7237 36.8783C67.003 36.6489 66.0798 36.7082 65.324 36.719C64.3631 36.719 62.3548 37.3885 61.8878 38.2954C61.6448 38.7732 61.2831 39.278 61.6259 39.7612Z" stroke="#50613C" stroke-width="1.48937" stroke-linecap="round" stroke-linejoin="round"/>
<path d="M66.166 29.2069C66.4503 29.0027 66.7469 28.8161 67.0541 28.6481C67.1691 28.5791 67.28 28.5034 67.3861 28.4214" stroke="#50613C" stroke-width="1.48937" stroke-linecap="round" stroke-linejoin="round"/>
<path d="M62.6943 23.6323L63.8173 22.9277" stroke="#50613C" stroke-width="1.48937" stroke-linecap="round" stroke-linejoin="round"/>
<path d="M73.4438 23.395C73.2469 23.4663 73.0435 23.5179 72.8364 23.5489C71.9268 23.6083 70.8686 23.6865 70.2181 22.8983C69.8402 22.4394 69.8591 21.5838 70.102 21.0871C70.2185 20.8821 70.3755 20.7029 70.5636 20.5607C70.6149 20.5229 70.7849 20.3853 70.7849 20.3853" stroke="#50613C" stroke-width="1.48937" stroke-linecap="round" stroke-linejoin="round"/>
<path d="M58.0867 16.3657C57.1404 17.0362 56.2657 17.8024 55.4764 18.6521C55.2539 18.9417 55.0723 19.2605 54.9365 19.5995C54.5451 20.4093 53.8217 21.13 53.4222 21.9695C53.0862 22.7552 52.8565 23.5822 52.7393 24.4286C52.6691 24.8578 52.4154 25.2546 52.3479 25.6838C51.9476 28.4325 52.1605 31.2358 52.9714 33.8925C53.4168 35.4122 54.6153 36.7349 55.4926 37.9415C56.2376 38.9753 56.9178 40.0281 57.9409 40.8622C58.5401 41.348 59.2501 41.726 59.8304 42.228C61.1463 43.3448 62.6636 44.1996 64.3005 44.7465C65.0375 44.976 65.7609 45.4618 66.5032 45.6913C66.6678 45.7453 66.8568 45.6319 67.0215 45.6913C67.5451 45.8532 68.0715 46.1906 68.6411 46.2851C70.5352 46.5796 72.4593 46.6304 74.3663 46.4363C75.554 46.3148 76.8227 46.5578 78.0077 46.3661C79.3696 46.1064 80.7031 45.715 81.9892 45.1973C82.6055 44.949 83.1786 44.6046 83.6871 44.1769C83.9004 44.0069 84.1919 43.9637 84.4079 43.799C85.7953 42.7517 87.3609 41.4776 88.5 40.0794C88.8914 39.5989 89.0939 38.9996 89.353 38.4598C89.5258 38.1007 89.847 37.8335 90.0117 37.4583C90.1494 37.1425 90.0468 36.94 90.0981 36.6242C90.2384 35.7577 90.4274 34.8831 90.5704 34.014C90.7675 32.802 90.5191 31.347 90.4948 30.1134" stroke="#50613C" stroke-width="1.48937" stroke-linecap="round" stroke-linejoin="round"/>
<path d="M61.5885 19.4271C61.5885 19.4271 61.3536 17.8075 61.4157 17.4431C61.5258 16.6721 61.894 15.9613 62.4604 15.4267C62.8248 15.0731 64.25 14.3469 64.7737 14.4441C65.162 14.5031 65.5401 14.6167 65.8966 14.7815L66.234 14.9489C66.234 14.9489 66.3582 14.6088 66.396 14.5494C66.6068 14.2851 66.8873 14.0851 67.2058 13.9717C67.982 13.6601 68.8291 13.5681 69.6542 13.7057C70.4793 13.8433 71.2506 14.2052 71.8837 14.7518C72.321 15.1271 72.7934 16.7925 72.7934 16.7925" stroke="#50613C" stroke-width="1.48937" stroke-linecap="round" stroke-linejoin="round"/>
<path d="M112.908 59.288C112.908 59.288 111.998 57.5631 111.558 56.64C110.654 54.7153 109.361 53.0013 108.454 51.0739C108.119 50.3613 107.525 49.7755 107.175 49.071C106.782 48.2957 106.35 47.5407 105.882 46.809C105.629 46.496 105.395 46.1679 105.182 45.8264C104.697 44.798 104.027 43.9369 103.441 42.9678C102.885 42.0474 102.405 41.0594 101.735 40.2307C101.384 39.7961 101.158 39.1807 100.869 38.7029C99.9827 37.2534 99.0006 35.8646 97.9293 34.5459C97.5406 34.0627 97.2734 33.4473 96.8496 33.0127" stroke="#50613C" stroke-width="1.48937" stroke-linecap="round" stroke-linejoin="round"/>
<path d="M10.8701 6.36768L12.0794 7.53649" stroke="#50613C" stroke-width="1.48937" stroke-linecap="round" stroke-linejoin="round"/>
<path d="M14.4229 10.2731C14.4229 10.2731 16.7767 12.5568 17.8753 13.7445C18.623 14.5543 19.4382 15.3128 20.1562 16.1739C20.5773 16.6787 21.1037 17.0593 21.5626 17.5559C21.7751 17.7487 21.9986 17.929 22.232 18.0958C22.4571 17.8701 22.6941 17.6565 22.9419 17.4561C23.2389 17.2554 23.5492 17.075 23.8705 16.9162C24.7748 16.4654 25.76 15.9552 26.7156 15.5989C27.7305 15.2183 28.6645 14.3545 29.5418 13.7472C30.9654 12.7717 32.4678 11.9167 34.0335 11.1909C34.8973 10.786 35.7584 10.0599 36.7085 9.84125C37.571 9.61264 38.405 9.28757 39.1946 8.87219C39.3917 8.77501 40.9006 8.08398 40.9006 8.08398" stroke="#50613C" stroke-width="1.48937" stroke-linecap="round" stroke-linejoin="round"/>
<path d="M44.6816 17.3296C44.6816 17.3296 46.6441 20.2665 47.3108 21.6485" stroke="#50613C" stroke-width="1.48937" stroke-linecap="round" stroke-linejoin="round"/>
<path d="M118.417 63.4396C118.228 62.6514 117.977 61.3098 117.731 60.554C117.583 60.0978 117.091 59.7442 116.943 59.2907C116.489 57.8951 116.082 56.7425 115.299 55.49C114.891 54.8395 114.997 53.8407 114.573 53.1632C112.772 50.2776 110.877 47.249 109.05 44.3283C106.253 39.8528 103.201 35.6904 99.9614 31.4255C98.8816 30.0218 97.4753 28.8611 96.3577 27.5358C95.942 27.0418 95.2537 26.7691 94.8461 26.286C94.7597 26.1861 94.8218 26.016 94.7516 25.9027C94.4817 25.487 93.8555 25.163 93.5423 24.9039C93.2292 24.6448 92.9566 24.1184 92.7136 23.8242C92.2736 23.2681 91.7284 23.0144 91.202 22.5744C90.8329 22.2302 90.4975 21.8515 90.2006 21.4434C89.5095 20.6336 88.4298 19.9857 87.6497 19.2353C86.327 17.9585 84.6804 17.0893 83.1661 16.0393C81.4331 14.8354 79.6948 13.07 77.735 12.2602C75.5027 11.3371 73.2325 10.3707 70.9867 9.44753C69.907 9.00214 68.5357 8.88066 67.3966 8.61883C65.8796 8.26792 63.9253 7.61738 62.3974 7.64437C60.4179 7.71787 58.4456 7.92529 56.494 8.26522C55.2145 8.46227 53.7677 8.22473 52.4963 8.42448C51.4165 8.59183 50.2747 9.03993 49.2355 9.29096C48.0451 9.57979 46.825 9.85242 45.5914 10.2519C45.0947 10.4139 44.2957 10.476 43.8557 10.7513C42.776 11.4207 41.3534 11.7312 40.2278 12.4357C38.8296 13.3076 37.2775 14.1336 35.8468 15.027C35.3906 15.3132 34.7158 15.4427 34.2434 15.737C33.3931 16.2768 32.5482 16.9436 31.679 17.4861C28.5043 19.4534 25.4726 21.6426 22.6066 24.0374C21.651 24.8472 19.7129 26.4317 19.7129 26.4317" stroke="black" stroke-width="1.48937" stroke-linecap="round" stroke-linejoin="round"/>
<path d="M71.0007 9.44235C71.0007 9.44235 64.3603 6.8186 62.4654 5.85224C61.4558 5.33666 60.1197 5.35826 59.0858 4.89397C56.956 3.93301 54.6292 3.50382 52.3375 2.97205C51.0229 2.66972 49.5734 2.11096 48.2345 2.02728C44.3988 1.78974 40.5738 1.32546 36.765 1.00154C36.2252 0.955647 35.6529 1.19319 35.1076 1.1608C33.3693 1.05283 31.6444 1.09332 29.9141 1.04203C27.3633 0.969146 24.8394 0.618232 22.2858 0.54265C20.8282 0.499461 19.3165 1.00693 17.867 0.963745C15.9451 0.909759 14.0501 1.32546 12.1336 1.62238C11.2374 1.76275 10.3656 2.18114 9.46398 2.26752C8.48953 2.362 7.64462 2.22433 6.70256 2.53746C6.14379 2.71831 5.47435 3.07732 4.92639 3.20689C4.0707 3.41474 0.550781 5.24759 0.550781 5.24759" stroke="black" stroke-width="1.48937" stroke-linecap="round" stroke-linejoin="round"/>
<path d="M0.540039 5.24219C0.540039 5.24219 2.39449 7.11552 2.84798 7.6338C4.12747 9.09953 5.54731 10.406 6.86189 11.8421C9.60441 14.8653 12.4306 17.8346 15.1434 20.8713C16.3797 22.2561 19.7323 26.4266 19.7323 26.4266" stroke="black" stroke-width="1.48937" stroke-linecap="round" stroke-linejoin="round"/>
<path d="M118.417 63.4397C118.417 63.4397 116.565 64.2495 116.163 64.4007C115.509 64.6466 114.872 64.9342 114.255 65.2618C114.03 65.4162 113.794 65.5516 113.547 65.6667C112.495 66.0635 111.574 66.8193 110.548 67.2863C107.466 68.7115 104.367 69.9613 101.327 71.4838C100.248 72.0236 98.9763 72.3232 97.8318 72.7551C89.2533 75.9808 80.88 79.822 72.5579 83.6497C72.5579 83.6497 70.0394 79.7869 68.0203 76.6476C65.4209 72.5986 63.5476 68.0691 61.1884 63.8554C59.7766 61.3289 58.6051 58.697 57.3391 56.0976C55.3065 51.919 53.2577 47.8727 51.711 43.4809C50.9984 41.4564 50.3964 39.3374 49.5515 37.3723C49.3032 36.8027 48.9253 36.2926 48.7012 35.7041C48.2909 34.6568 48.0102 33.5689 47.6026 32.5216C47.4217 32.0573 47.0628 31.6632 46.89 31.1908C46.6875 30.651 46.4905 30.0976 46.2476 29.5847C46.0451 29.1528 45.7077 28.7749 45.4917 28.3403C45.2758 27.9057 45.1948 27.5008 44.9788 27.1337C44.466 26.251 44.0206 25.3792 43.5536 24.4668C42.9246 23.2359 42.1203 22.0374 41.4562 20.8227C41.1512 20.2558 40.6059 19.743 40.2172 19.222C39.5343 18.3015 38.8918 17.2326 38.0874 16.4201C37.7986 16.1285 36.3545 14.7168 36.3545 14.7168" stroke="black" stroke-width="1.48937" stroke-linecap="round" stroke-linejoin="round"/>
<path d="M63.4131 52.2969C63.9934 53.517 64.4685 54.7911 65.138 55.968C66.4012 58.1922 67.6078 60.2869 68.504 62.6974C69.0925 64.2873 74.7611 75.746 74.7611 75.746" stroke="#50613C" stroke-width="1.48937" stroke-linecap="round" stroke-linejoin="round"/>
<path d="M107.021 63.5503C107.021 63.5503 97.506 67.5993 92.7767 69.5266C90.6874 70.3769 88.6009 71.2299 86.4981 72.0451C85.4183 72.4608 84.3548 72.8549 83.2832 73.2517C82.3033 73.6134 81.3936 74.1128 80.376 74.3935" stroke="#50613C" stroke-width="1.48937" stroke-linecap="round" stroke-linejoin="round"/>
<path d="M92.1253 51.3414C91.2197 51.4377 90.3448 51.7247 89.5582 52.1836C88.5834 52.7168 87.5712 53.1787 86.5296 53.5657C83.7142 54.5779 77.7595 55.9951 78.4073 60.1035C79.101 64.498 85.7198 61.1832 87.855 60.1548C90.3572 58.959 93.9986 57.9953 95.2268 55.215C95.818 53.8653 94.9569 52.3132 93.7422 51.6735C93.2437 51.4172 92.6845 51.3024 92.1253 51.3414Z" fill="#73845F"/>
<path d="M92.1253 51.3414C91.2197 51.4377 90.3448 51.7247 89.5582 52.1836C88.5834 52.7168 87.5712 53.1787 86.5296 53.5657C83.7142 54.5779 77.7595 55.9951 78.4073 60.1035C79.101 64.498 85.7198 61.1832 87.855 60.1548C90.3572 58.959 93.9986 57.9953 95.2268 55.215C95.818 53.8653 94.9569 52.3132 93.7422 51.6735C93.2437 51.4172 92.6845 51.3024 92.1253 51.3414V51.3414Z" stroke="#50613C" stroke-width="1.48937" stroke-linecap="round" stroke-linejoin="round"/>
</g>
<defs>
<clipPath id="clip0_1893_8552">
<rect width="73.9536" height="101.824" fill="white" transform="translate(28 114)"/>
</clipPath>
<clipPath id="clip1_1893_8552">
<rect width="118.957" height="84.1976" fill="white"/>
</clipPath>
</defs>
</svg>
