<svg width="274" height="166" viewBox="0 0 274 166" fill="none" xmlns="http://www.w3.org/2000/svg">
<g clip-path="url(#clip0_1894_8555)">
<path d="M161.732 118.606C162.226 122.115 162.698 123.821 159.737 126.011C157.548 127.63 154.77 129.706 153.655 130.626C152.694 131.415 151.574 132.341 150.589 133.15C147.96 135.31 148.251 135.248 144.963 134.362C138.342 132.578 123.075 128.502 117.838 127.422C116.55 127.152 114.825 126.909 113.249 126.707C108.895 126.146 109.402 126 106.028 128.807C104.581 130.011 102.846 131.458 101.34 132.727C99.8333 133.995 98.5484 135.083 98.0059 135.572C94.2133 138.989 93.8057 138.978 90.0914 135.48C87.4056 132.953 83.9774 129.647 82.3713 127.784C80.3846 125.479 77.966 122.456 80.9272 119.497C79.5775 120.947 79.8475 121.765 81.5642 123.749C83.1838 125.608 86.5985 128.915 89.2843 131.444C93.0013 134.953 93.4062 134.953 97.1988 131.536C97.7386 131.048 99.0235 129.96 100.532 128.691C102.041 127.422 103.772 125.976 105.224 124.772C108.595 121.964 108.088 122.11 112.442 122.669C114.021 122.871 115.749 123.122 117.031 123.387C122.265 124.467 137.546 128.532 144.156 130.316C147.444 131.201 147.153 131.266 149.782 129.104C150.767 128.294 151.89 127.368 152.846 126.577C153.963 125.66 156.741 123.584 158.93 121.964C161.119 120.345 161.699 119.986 161.689 118.582L161.732 118.606Z" fill="#909090"/>
<path d="M103.316 115.705C104.142 116.539 105.705 118.285 104.139 119.214C103.329 119.697 102.166 119.044 101.464 118.623C99.8175 117.627 98.1844 115.788 97.0426 114.263C95.674 112.438 96.527 110.643 98.8889 111.88C100.125 112.528 101.467 113.834 102.587 114.968L103.316 115.705Z" fill="#4D4D4D"/>
<path d="M154.033 100.335C148.727 105.463 138.574 114.703 138.053 114.911C137.532 115.119 136.704 114.733 136.118 114.565C134.018 113.955 131.867 113.467 129.729 112.946C127.394 112.382 125.07 111.831 122.759 111.178C121.382 110.786 120.238 110.638 119.28 109.558C116.955 106.891 114.472 104.316 112.086 101.69C110.609 100.07 109.036 98.5854 107.473 97.0765L116.478 89.6317C118.222 88.1877 120.443 87.4483 122.705 87.5586C126.012 87.7179 130.717 87.9473 132.525 88.0445C134.334 88.1417 137.692 88.5196 140.253 88.8273C143.914 89.2673 143.428 89.0244 145.96 91.7021C148.06 93.9237 151.034 97.0819 152.479 98.6853C152.908 99.155 153.445 99.7245 154.033 100.335Z" fill="#B3B3B3"/>
<path d="M93.7874 125.984C94.4622 127.25 94.4379 128.459 92.6671 128.116C90.8964 127.773 88.7747 125.204 87.6464 123.93C87.1335 123.36 86.0268 121.902 86.5667 121.082C87.4601 119.702 89.4927 121.554 90.2297 122.189L90.9342 122.788C92.0139 123.724 93.0963 124.691 93.7874 125.984Z" fill="#4D4D4D"/>
<path d="M96.9826 119.055C98.0462 119.962 101.032 121.93 99.3203 123.511C97.5333 125.155 93.0227 120.194 92.1589 119.171C91.2007 118.034 90.5043 115.2 92.8986 115.683C94.7341 116.056 95.633 117.889 96.9476 119.022L96.9826 119.055Z" fill="#4D4D4D"/>
<path d="M80.9299 119.5C81.1486 119.263 81.4104 119.011 81.7154 118.731C83.335 117.249 84.9816 115.791 86.612 114.323L107.472 97.0713C109.035 98.5802 110.609 100.059 112.086 101.684C114.472 104.311 116.944 106.886 119.279 109.553C120.238 110.649 121.382 110.792 122.759 111.173C125.069 111.826 127.394 112.376 129.728 112.941C131.866 113.459 134.018 113.948 136.118 114.56C136.698 114.728 137.494 115.13 138.053 114.906C138.612 114.682 148.726 105.458 154.033 100.329C155.513 101.865 157.316 103.655 158.557 104.878C160.177 106.481 160.02 106.155 160.361 108.411C160.549 109.658 160.776 111.224 160.933 112.395C160.949 112.522 160.962 112.641 160.979 112.757C161.054 113.37 161.203 114.477 161.359 115.632C161.378 115.783 161.4 115.934 161.419 116.088C161.537 116.963 161.632 117.627 161.67 118.158C161.67 118.312 161.689 118.455 161.689 118.588C161.689 119.991 161.097 120.367 158.93 121.97C156.762 123.573 153.963 125.665 152.846 126.583C151.89 127.374 150.767 128.3 149.782 129.11C147.153 131.269 147.444 131.207 144.156 130.322C137.535 128.537 122.265 124.461 117.031 123.392C115.746 123.123 114.018 122.877 112.442 122.674C108.088 122.116 108.595 121.97 105.224 124.777C103.774 125.981 102.039 127.428 100.532 128.697C99.0263 129.965 97.7414 131.053 97.1988 131.542C93.4063 134.959 93.0014 134.948 89.2844 131.45C86.5985 128.921 83.1704 125.614 81.5643 123.754C79.8529 121.77 79.5911 120.952 80.9272 119.503L80.9299 119.5ZM104.144 119.214C105.71 118.285 104.144 116.539 103.321 115.705L102.592 114.968C101.472 113.834 100.13 112.538 98.894 111.88C96.5321 110.644 95.6791 112.439 97.0476 114.263C98.1895 115.788 99.8226 117.627 101.469 118.623C102.166 119.055 103.318 119.697 104.139 119.214H104.144ZM99.3259 123.514C101.048 121.932 98.0518 119.964 96.9883 119.057L96.9478 119.025C95.6386 117.891 94.7397 116.056 92.8988 115.686C90.5045 115.203 91.2009 118.037 92.1592 119.173C93.0229 120.196 97.5335 125.158 99.3205 123.514H99.3259ZM92.6666 128.116C94.4374 128.459 94.4617 127.25 93.7869 125.984C93.112 124.718 92.0134 123.725 90.9148 122.788L90.2102 122.189C89.4733 121.554 87.4407 119.702 86.5472 121.082C86.0074 121.892 87.1222 123.36 87.627 123.93C88.7742 125.204 90.9175 127.779 92.6666 128.116Z" fill="#B3B3B3"/>
<path d="M110.66 95.9131L117.206 90.5144C118.731 89.2511 120.673 88.6048 122.651 88.7031C126.146 88.8705 130.684 89.0918 132.463 89.189C133.856 89.2619 136.512 89.5318 140.118 89.9664L140.855 90.0528C142.933 90.293 143.014 90.3038 143.792 91.0812C144.019 91.3053 144.283 91.586 144.602 91.9423L145.117 92.4822C148.321 95.8726 150.516 98.2156 151.617 99.4438" stroke="white" stroke-width="1.48937" stroke-linecap="round" stroke-linejoin="round"/>
<path d="M95.766 111.1C94.9562 112.063 95.0884 113.578 96.125 114.96C96.8224 115.897 97.5846 116.785 98.4059 117.616C99.1462 118.372 99.9745 119.036 100.873 119.595C101.591 120.029 103.276 121.044 104.717 120.191M155.761 103.714C156.382 104.335 157.054 105.002 157.759 105.696L158.118 106.049L158.49 106.414C158.678 106.568 158.833 106.757 158.949 106.97C159.053 107.34 159.125 107.718 159.163 108.101C159.184 108.249 159.208 108.411 159.233 108.587C159.373 109.513 159.632 111.256 159.802 112.552C159.818 112.673 159.835 112.795 159.848 112.914C159.913 113.427 160.037 114.371 160.229 115.791C160.242 115.886 160.256 115.988 160.269 116.091L160.337 116.598C160.431 117.284 160.504 117.824 160.534 118.245L155.761 103.714ZM107.414 98.5991C108.102 99.2605 108.809 99.9488 109.492 100.621C110.175 101.293 110.726 101.882 111.244 102.451C112.148 103.447 113.079 104.449 113.978 105.42C115.458 107.01 116.985 108.66 118.421 110.303C118.497 110.39 118.578 110.476 118.659 110.557C119.642 111.54 120.759 111.831 121.839 112.115L122.449 112.279C124.546 112.873 126.684 113.391 128.752 113.899L129.462 114.069L130.752 114.379C132.42 114.779 134.148 115.189 135.8 115.672C135.902 115.702 136.027 115.745 136.159 115.791C136.788 116.013 137.649 116.315 138.48 115.98C138.729 115.88 139.066 115.743 145.018 110.312L107.414 98.5991ZM85.5922 120.464C84.6096 121.978 86.0997 123.924 86.7853 124.691L87.0903 125.036C87.5411 125.544 88.0999 126.176 88.7099 126.794C90.1649 128.249 91.3526 129.026 92.4431 129.237L85.5922 120.464ZM90.4564 115.516C89.6466 116.884 90.4564 118.944 91.2797 119.908C91.4281 120.083 91.9734 120.717 92.7697 121.527C96.0764 124.834 98.5355 125.79 100.085 124.367L90.4564 115.516Z" stroke="white" stroke-width="1.48937" stroke-linecap="round" stroke-linejoin="round"/>
<path d="M121.833 95.1167C121.301 95.4543 120.808 95.849 120.362 96.2936C119.223 97.2843 117.932 98.1427 116.877 99.217" stroke="white" stroke-width="1.48937" stroke-linecap="round" stroke-linejoin="round"/>
<path d="M124.197 98.0781C122.831 99.4683 121.104 100.675 119.562 101.857" stroke="white" stroke-width="1.48937" stroke-linecap="round" stroke-linejoin="round"/>
<path d="M126.33 101.004C125.205 102.119 124.171 103.317 122.921 104.305" stroke="white" stroke-width="1.48937" stroke-linecap="round" stroke-linejoin="round"/>
<path d="M133.931 163.491C134.136 164.249 133.613 165.016 132.924 165.302C132.782 165.354 132.63 165.373 132.479 165.359C132.329 165.345 132.183 165.298 132.053 165.221C131.898 165.147 131.766 165.033 131.671 164.89C131.576 164.748 131.522 164.582 131.513 164.411C131.511 164.182 131.56 163.955 131.656 163.747C131.781 163.485 131.966 163.255 132.195 163.076C132.424 162.897 132.691 162.773 132.976 162.713C133.072 162.697 133.171 162.697 133.267 162.713C133.559 162.802 133.804 163.029 133.931 163.491Z" fill="#101820"/>
<path d="M101.866 159.62C102.702 159.763 103.941 160.816 103.404 161.779C103.183 162.176 102.638 162.36 102.206 162.368C101.904 162.397 101.6 162.362 101.312 162.265C101.081 162.149 100.863 162.009 100.662 161.847C99.9519 161.353 99.8763 160.36 100.432 159.863C100.641 159.68 100.906 159.574 101.183 159.561C101.284 159.563 101.384 159.577 101.482 159.601H101.526C101.639 159.601 101.753 159.607 101.866 159.62Z" fill="#101820"/>
<path d="M129.545 130.284C128.524 133.121 128.669 136.248 129.949 138.978C130.434 140.22 130.999 141.428 131.642 142.595C131.825 142.925 131.936 143.281 132.136 143.602C133.066 144.999 133.6 146.623 133.68 148.299C133.704 148.697 133.635 149.094 133.478 149.46C133.321 149.826 133.08 150.151 132.776 150.407C131.053 151.989 128.457 152.194 127.463 154.588C126.799 156.208 127.266 157.658 128.041 159.177C129.083 161.199 131.232 162.128 133.27 162.749C133.173 162.732 133.075 162.732 132.978 162.749C132.693 162.808 132.426 162.932 132.197 163.111C131.968 163.29 131.784 163.52 131.658 163.782C131.562 163.991 131.513 164.217 131.515 164.446C131.524 164.617 131.579 164.783 131.674 164.925C131.769 165.068 131.9 165.182 132.055 165.256C129.056 164.482 123.749 163.248 122.289 160.165C121.818 159.128 121.628 157.987 121.735 156.853C121.935 154.478 123.512 152.747 125.323 151.365C126.845 150.202 128.764 149.206 128.813 147.022C128.835 146.061 128.427 145.16 128.141 144.263C127.372 141.872 126.06 139.839 125.172 137.515C124.908 136.748 124.738 135.951 124.667 135.142L124.626 134.816C124.501 134.085 124.45 133.343 124.475 132.602C124.578 131.451 124.842 130.32 125.258 129.242C126.624 129.536 128.068 129.903 129.545 130.284Z" fill="#1A78FF"/>
<path d="M101.483 159.598C101.385 159.574 101.284 159.56 101.183 159.558C100.906 159.571 100.642 159.678 100.433 159.86C102.097 158.294 103.656 156.619 105.1 154.847C105.75 154.038 106.29 153.152 106.42 152.108C106.93 147.956 105.661 144.911 110.666 143.41C112.32 142.914 114.118 142.895 115.835 142.887C116.869 142.887 117.576 142.538 118.34 141.834C119.171 141.065 119.727 140.239 119.795 139.086C119.919 136.967 120.122 134.851 120.27 132.737C120.397 131.191 120.675 129.662 121.099 128.17C122.34 128.467 123.752 128.815 125.261 129.193C124.845 130.271 124.581 131.402 124.478 132.554C124.453 133.295 124.504 134.036 124.629 134.767C124.62 136.355 124.481 137.939 124.214 139.504C123.918 140.855 123.518 142.181 123.018 143.47C122.173 145.81 118.766 147.003 116.486 146.633C116.046 146.546 115.597 146.51 115.149 146.528C114.658 146.552 114.156 146.428 113.667 146.512C111.184 146.946 110.59 148.782 110.347 151.014C110.031 153.935 109.672 155.711 107.416 157.827C106.317 158.856 104.158 160.451 103.405 161.777C103.944 160.816 102.703 159.763 101.866 159.617C101.753 159.604 101.639 159.598 101.526 159.598H101.483Z" fill="#FF4040"/>
<path d="M86.6119 114.323C84.9923 115.791 83.3376 117.249 81.7153 118.731C79.5558 120.72 79.5693 121.449 81.5614 123.76C83.181 125.622 86.5957 128.926 89.2815 131.455C92.9958 134.964 93.4034 134.964 97.1959 131.547C98.2757 130.567 102.325 127.193 105.221 124.783C108.593 121.975 108.085 122.121 112.439 122.68C114.015 122.885 115.746 123.133 117.028 123.398C122.265 124.478 137.543 128.543 144.154 130.327C147.441 131.212 147.15 131.28 149.779 129.115C150.764 128.305 151.884 127.379 152.845 126.591C153.96 125.671 156.738 123.595 158.927 121.975C162.012 119.694 161.926 119.897 161.416 116.093C161.24 114.779 161.062 113.453 160.976 112.762C160.825 111.567 160.565 109.793 160.358 108.419C160.018 106.157 160.185 106.487 158.554 104.883C156.819 103.174 153.99 100.359 152.476 98.6746C151.031 97.0712 148.057 93.913 145.957 91.6915C143.425 89.0137 143.911 89.2621 140.25 88.8167C137.689 88.509 134.312 88.1284 132.522 88.0339C130.732 87.9394 126.009 87.7073 122.702 87.5453C120.44 87.441 118.22 88.1851 116.477 89.6319L86.6119 114.323Z" stroke="#101820" stroke-width="1.48937" stroke-linecap="round" stroke-linejoin="round"/>
<path d="M80.9487 119.481C77.9497 122.45 80.3764 125.484 82.3686 127.795C83.9747 129.658 87.4055 132.962 90.0886 135.491C93.8029 139 94.2105 139 98.0031 135.583C99.0828 134.605 103.132 131.229 106.028 128.818C109.4 126.011 108.892 126.157 113.246 126.718C114.823 126.92 116.553 127.169 117.835 127.433C123.072 128.513 138.35 132.578 144.961 134.363C148.248 135.251 147.957 135.315 150.586 133.151C151.571 132.341 152.692 131.415 153.653 130.627C154.767 129.706 157.545 127.63 159.734 126.011C162.819 123.73 162.18 121.962 161.667 118.161" stroke="#101820" stroke-width="1.48937" stroke-linecap="round" stroke-linejoin="round"/>
<path d="M102.587 114.968C101.467 113.834 100.125 112.538 98.8889 111.88C96.527 110.643 95.674 112.438 97.0426 114.263C98.1871 115.788 99.8175 117.629 101.464 118.623C102.166 119.044 103.319 119.702 104.139 119.211C105.705 118.285 104.139 116.539 103.316 115.702L102.587 114.968Z" stroke="#101820" stroke-width="1.48937" stroke-linecap="round" stroke-linejoin="round"/>
<path d="M96.9832 119.054L96.9427 119.017C95.6335 117.886 94.7346 116.047 92.8937 115.683C90.4994 115.197 91.1958 118.031 92.1541 119.168C93.0178 120.191 97.5257 125.152 99.3154 123.508C101.043 121.932 98.0467 119.964 96.9832 119.054Z" stroke="#101820" stroke-width="1.48937" stroke-linecap="round" stroke-linejoin="round"/>
<path d="M90.9149 122.788L90.2104 122.189C89.4735 121.554 87.4436 119.702 86.5474 121.082C86.0075 121.892 87.1224 123.36 87.6271 123.93C88.7663 125.204 90.9095 127.779 92.6587 128.116C94.4079 128.454 94.4538 127.25 93.7789 125.984C93.1041 124.718 92.0136 123.724 90.9149 122.788Z" stroke="#101820" stroke-width="1.48937" stroke-linecap="round" stroke-linejoin="round"/>
<path d="M107.47 97.0713C109.035 98.5802 110.609 100.057 112.086 101.684C114.474 104.311 116.944 106.886 119.279 109.553C120.238 110.649 121.382 110.792 122.759 111.173C125.069 111.829 127.393 112.379 129.728 112.943C131.866 113.462 134.018 113.95 136.118 114.563C136.698 114.733 137.494 115.133 138.053 114.908C138.612 114.684 148.724 105.461 154.033 100.332" stroke="#101820" stroke-width="1.48937" stroke-linecap="round" stroke-linejoin="round"/>
<path d="M121.117 94.3906C120.587 94.729 120.095 95.1236 119.649 95.5675C118.51 96.5582 117.22 97.4166 116.164 98.4909" stroke="#101820" stroke-width="1.48937" stroke-linecap="round" stroke-linejoin="round"/>
<path d="M123.472 97.3491C122.106 98.742 120.378 99.9486 118.837 101.128" stroke="#101820" stroke-width="1.48937" stroke-linecap="round" stroke-linejoin="round"/>
<path d="M125.604 100.278C124.478 101.393 123.444 102.591 122.194 103.579" stroke="#101820" stroke-width="1.48937" stroke-linecap="round" stroke-linejoin="round"/>
<path d="M125.261 129.191C124.845 130.269 124.581 131.4 124.478 132.552C124.413 133.396 124.573 134.258 124.67 135.094C124.74 135.904 124.91 136.702 125.175 137.47C126.055 139.805 127.366 141.84 128.144 144.218C128.43 145.112 128.838 146.013 128.816 146.974C128.767 149.153 126.848 150.154 125.326 151.317C123.514 152.699 121.938 154.43 121.738 156.805C121.63 157.938 121.821 159.08 122.292 160.117C123.752 163.2 129.062 164.436 132.061 165.208" stroke="#101820" stroke-width="1.48937" stroke-linecap="round" stroke-linejoin="round"/>
<path d="M133.264 162.74C131.229 162.119 129.078 161.191 128.036 159.169C127.261 157.66 126.794 156.2 127.458 154.58C128.441 152.186 131.051 151.981 132.773 150.399C133.076 150.141 133.316 149.817 133.472 149.451C133.629 149.085 133.698 148.688 133.675 148.291C133.594 146.614 133.061 144.991 132.131 143.594C131.931 143.275 131.82 142.916 131.637 142.587C130.994 141.42 130.429 140.211 129.944 138.97C129.309 137.618 128.946 136.155 128.876 134.663C128.807 133.171 129.032 131.68 129.539 130.275" stroke="#101820" stroke-width="1.48937" stroke-linecap="round" stroke-linejoin="round"/>
<path d="M121.099 128.167C120.675 129.659 120.397 131.189 120.27 132.735C120.122 134.848 119.919 136.965 119.795 139.084C119.727 140.236 119.171 141.062 118.34 141.832C117.576 142.536 116.872 142.879 115.835 142.884C114.118 142.884 112.326 142.911 110.663 143.408C105.661 144.909 106.93 147.954 106.42 152.105C106.29 153.15 105.748 154.038 105.1 154.845C103.656 156.617 102.097 158.291 100.433 159.858" stroke="#101820" stroke-width="1.48937" stroke-linecap="round" stroke-linejoin="round"/>
<path d="M124.627 134.765C124.618 136.352 124.479 137.937 124.211 139.502C123.916 140.853 123.516 142.18 123.016 143.47C122.171 145.81 118.764 147.003 116.481 146.634C116.042 146.546 115.594 146.51 115.147 146.528C114.656 146.553 114.154 146.428 113.665 146.512C111.182 146.947 110.588 148.782 110.345 151.015C110.029 153.935 109.67 155.711 107.414 157.828C106.315 158.856 104.155 160.451 103.402 161.777" stroke="#101820" stroke-width="1.48937" stroke-linecap="round" stroke-linejoin="round"/>
<path d="M132.979 162.729C132.694 162.788 132.427 162.912 132.198 163.091C131.969 163.27 131.785 163.499 131.659 163.761C131.562 163.968 131.513 164.195 131.516 164.425C131.516 165.072 132.361 165.539 132.925 165.305C133.613 165.016 134.139 164.249 133.932 163.491C133.762 162.875 133.386 162.678 132.979 162.729Z" stroke="#101820" stroke-width="1.48937" stroke-linecap="round" stroke-linejoin="round"/>
<path d="M101.486 159.596C101.386 159.574 101.285 159.561 101.183 159.558C99.8958 159.655 99.7204 161.178 100.662 161.844C100.863 162.007 101.081 162.148 101.313 162.263C101.6 162.359 101.905 162.394 102.206 162.365C102.638 162.365 103.181 162.174 103.405 161.777C103.945 160.816 102.703 159.763 101.864 159.617C101.752 159.604 101.639 159.598 101.526 159.599L101.486 159.596Z" stroke="#101820" stroke-width="1.48937" stroke-linecap="round" stroke-linejoin="round"/>
</g>
<g clip-path="url(#clip1_1894_8555)">
<path d="M59.4013 55.9454C59.8575 57.0791 60.2651 58.6987 60.6835 62.8989C59.6982 58.9444 56.8585 57.619 53.1901 56.6904C52.3479 56.4826 51.1764 56.6904 50.3072 56.6904C48.7902 56.6904 47.2705 56.6229 45.8371 56.9792C45.5672 57.0467 45.2433 56.9117 44.9734 56.9792C43.6912 57.2978 42.3658 57.5191 41.0809 57.8457C39.5126 58.2371 37.92 58.8229 36.3247 59.1414C35.5932 59.2872 34.8968 59.1846 34.1652 59.4302C29.1499 61.1011 24.202 62.9987 19.1812 64.4726C18.1258 64.783 17.065 65.0746 16.0014 65.3391C13.7178 65.9114 11.5691 67.1773 9.2288 67.647C8.91838 67.7064 7.06933 68.222 7.06933 68.222C7.06933 68.222 6.3702 64.1379 6.20554 63.32C5.60899 60.3507 5.12581 57.3544 4.49956 54.3798C3.98309 51.9936 3.51611 49.5993 3.09861 47.1968C2.81518 45.5772 2.63702 43.9361 2.26991 42.3381C1.8947 40.678 1.59238 39.0746 1.37914 37.3848C1.14699 35.5573 0.879759 33.7353 0.569336 31.9213C0.569336 31.9213 3.02573 30.1398 3.80854 29.7214C4.72631 29.2301 5.5874 28.6416 6.50787 28.1747C7.42834 27.7077 8.28133 27.0949 9.2288 26.663C15.8881 23.6749 24.5745 19.2669 31.833 22.9083C33.9169 23.9556 35.4933 25.6265 36.9806 27.3838C40.0768 31.0387 43.1297 34.7529 46.0612 38.5428C47.5107 40.4161 49.322 42.0978 50.92 43.847C51.4113 44.3869 51.9835 44.8997 52.4181 45.4666C54.1052 47.7232 55.9839 49.9502 57.3336 52.4363C57.9383 53.6348 58.8857 54.6902 59.4013 55.9454Z" fill="#96A782"/>
<path d="M19.1807 64.4864C24.2041 63.0125 29.1466 61.1122 34.1647 59.4386C34.9016 59.1984 35.598 59.2982 36.3241 59.1525C36.7398 59.0661 37.1555 58.9662 37.5712 58.8555C36.5104 59.5493 36.1487 60.8396 36.2215 62.1946C36.3511 64.9236 38.9506 67.3449 41.6715 67.5555C43.0698 67.6689 44.9971 67.1722 46.3197 66.5972C50.5415 64.759 50.1987 57.6597 44.9701 56.9903C45.24 56.9228 45.5612 57.0578 45.8312 56.9903C47.2645 56.6313 48.7869 56.7015 50.304 56.7015C51.1732 56.7015 52.3447 56.4909 53.1842 56.7015C56.8552 57.6193 59.6922 58.9446 60.6802 62.91C60.8961 63.771 60.4643 64.7995 60.6802 65.6497C61.0203 66.9994 60.7261 68.503 60.3914 69.831C60.2969 70.217 60.027 70.5787 59.9595 70.9836C59.6727 72.5939 59.1382 74.1501 58.375 75.5968C57.9323 76.4795 57.3168 77.516 56.9308 78.4797C56.7851 78.8522 56.6015 79.4704 56.3559 79.7754C56.2479 79.913 55.4327 81.0171 55.2006 81.3599C54.6158 82.2899 53.9404 83.1597 53.1842 83.9566C52.8305 84.313 51.6536 86.1593 51.4539 86.5507C50.6252 88.2108 49.3268 90.265 47.9987 91.5984C47.7018 91.8873 46.4115 94.0467 46.4115 94.0467C46.4115 94.0467 43.5124 92.0249 42.951 91.8873C41.8524 91.6173 40.8212 90.9695 39.7793 90.4458C38.7673 89.9602 37.803 89.3809 36.8991 88.7156C36.2216 88.2108 35.2795 88.0704 34.5885 87.5656C33.9676 87.0933 30.7716 85.5735 29.978 85.255C29.5461 85.0822 27.365 84.2806 26.6632 84.1051C26.1611 83.9782 21.6614 81.314 19.7421 79.7862C18.4023 78.725 16.9547 77.8076 15.4232 77.0491C14.9859 76.8277 14.5675 76.8034 14.1248 76.4741C13.7469 76.1853 12.3945 75.1757 12.3945 75.1757C12.3945 75.1757 13.6335 73.4832 14.1248 72.8705C15.5258 71.0835 18.1954 66.4272 19.1807 64.4864Z" fill="#73845F"/>
<path d="M44.9654 56.9902C50.1832 57.6597 50.526 64.7589 46.315 66.5972C44.9924 67.1721 43.0758 67.6769 41.6668 67.5554C38.9458 67.3449 36.3464 64.9236 36.2168 62.1946C36.1493 60.8449 36.511 59.5492 37.5665 58.8555C38.7434 58.5397 39.9176 58.1455 41.0756 57.8567C42.3578 57.5328 43.6805 57.3088 44.9654 56.9902Z" fill="#96A782"/>
<path d="M25.5787 62.4131C24.4045 63.8545 23.4192 65.6118 22.5608 67.307C22.245 67.9332 21.5459 68.6729 21.3623 69.3234" stroke="#50613C" stroke-width="1.48937" stroke-linecap="round" stroke-linejoin="round"/>
<path d="M57.2872 66.3491C57.1407 66.9976 56.9319 67.6304 56.6637 68.2387C56.4123 68.7305 56.1311 69.2065 55.8215 69.6639C55.3194 70.5331 54.8227 71.3888 54.3153 72.258C53.8942 72.9787 53.3192 73.6076 52.9062 74.3364C52.6795 74.7413 52.5094 75.1705 52.2476 75.5538C51.3136 76.9332 50.6766 78.4934 49.7345 79.8728C49.4214 80.3371 49.1056 80.8014 48.7924 81.2683L48.4442 81.7812C48.4064 81.8379 48.2607 81.9647 48.3281 81.9512C48.3956 81.9377 48.4604 81.819 48.4928 81.7704" stroke="#50613C" stroke-width="1.48937" stroke-linecap="round" stroke-linejoin="round"/>
<path d="M19.6367 74.0044C20.1766 74.08 20.6139 74.7386 21.0809 74.9707C22.8813 75.8588 24.5387 76.9467 26.2852 77.9589C27.9426 78.9199 29.7484 79.673 31.3869 80.6583C33.4519 81.8838 35.5277 83.0876 37.5954 84.3104C38.2729 84.7126 38.9693 85.0339 39.6604 85.455C40.122 85.7249 40.5188 86.119 40.9857 86.4024C41.4527 86.6858 42.1114 86.918 42.5298 87.3337" stroke="#50613C" stroke-width="1.48937" stroke-linecap="round" stroke-linejoin="round"/>
<path d="M37.5612 58.8555C36.5031 59.5465 36.1414 60.8395 36.2115 62.1946C36.3411 64.9263 38.9433 67.3449 41.6615 67.5581C43.0597 67.6688 44.9898 67.1748 46.3097 66.5999C50.5342 64.7589 50.1887 57.6597 44.9601 56.9902" stroke="#50613C" stroke-width="1.48937" stroke-linecap="round" stroke-linejoin="round"/>
<path d="M50.0749 51.1302C50.0749 51.1302 48.1368 51.0843 47.1704 51.0195C46.4308 50.9709 45.7155 51.1788 44.992 51.2112C44.0473 51.2544 43.0188 51.2112 42.0525 51.3408C41.3911 51.4298 40.7028 51.6404 40.0253 51.6674C39.5153 51.6528 39.0058 51.7082 38.5109 51.832C38.0251 51.9751 37.1613 51.8914 36.6214 52.0102C34.7616 52.4043 32.8963 52.9847 31.0797 53.4894C29.0471 54.0536 27.0523 54.4234 25.071 55.1792C24.3926 55.4027 23.7034 55.5919 23.006 55.7461C22.3122 55.9404 21.6779 56.3237 20.9977 56.5559C19.6669 57.0013 18.3523 57.4898 17.0188 57.9055C16.0471 58.216 15.1293 58.7396 14.1684 59.0285C14.0415 59.0663 13.2344 59.3551 13.2344 59.3551" stroke="#50613C" stroke-width="1.48937" stroke-linecap="round" stroke-linejoin="round"/>
<path d="M27.5088 30.9443C27.5088 30.9443 28.5885 32.7124 28.7262 32.9122C28.9961 33.3144 29.231 33.7219 29.4928 34.143C29.8788 34.7477 30.2756 35.347 30.6724 35.9462C30.7966 36.1352 31.2123 36.6615 31.2123 36.6615" stroke="#50613C" stroke-width="1.48937" stroke-linecap="round" stroke-linejoin="round"/>
<path d="M31.7061 28.6177C31.7061 28.6177 32.918 30.3291 33.1097 30.6152C33.6496 31.425 34.1651 32.2726 34.7023 33.0986C35.1369 33.7626 35.6255 34.4186 36.1168 35.0421C36.3003 35.2769 36.743 35.8168 36.743 35.8168" stroke="#50613C" stroke-width="1.48937" stroke-linecap="round" stroke-linejoin="round"/>
<path d="M0.539062 31.9296C0.539062 31.9296 2.99546 30.148 3.77826 29.7296C4.69334 29.2383 5.55712 28.6499 6.47759 28.1829C7.39807 27.7159 8.25106 27.1032 9.19853 26.6713C15.8578 23.6804 24.5442 19.2751 31.8027 22.9165C33.8866 23.9638 35.463 25.6347 36.9504 27.392C40.0465 31.0469 43.0994 34.7639 46.0309 38.551C47.4805 40.4244 49.289 42.106 50.8897 43.8552C51.381 44.3951 51.9506 44.9079 52.3879 45.4748C54.0749 47.7314 55.9537 49.9584 57.3006 52.4445C57.9377 53.6214 58.8851 54.6768 59.3899 55.932C59.8461 57.0657 60.2564 58.6853 60.6748 62.8855" stroke="black" stroke-width="1.48937" stroke-linecap="round" stroke-linejoin="round"/>
<path d="M0.539062 31.9297C0.862982 33.7436 1.13022 35.5657 1.34886 37.3931C1.56211 39.0829 1.86173 40.6863 2.23964 42.3464C2.60405 43.9471 2.77951 45.5856 3.06834 47.2052C3.48943 49.6076 3.95642 52.0019 4.46929 54.3881C5.10903 57.3574 5.57602 60.3563 6.17527 63.3283C6.33993 64.1381 7.03906 68.233 7.03906 68.233C7.03906 68.233 8.8908 67.7147 9.19853 67.6554C11.5415 67.1857 13.6902 65.9197 15.9738 65.3501C22.0986 63.8169 28.0669 61.4604 34.1377 59.4386C34.8719 59.193 35.5683 59.2955 36.2971 59.1498C37.8897 58.8312 39.485 58.2455 41.0534 57.8541C42.3382 57.5302 43.6609 57.3142 44.9431 56.9876C45.213 56.9201 45.5397 57.0551 45.8096 56.9876C47.2402 56.6313 48.7627 56.6988 50.277 56.6988C51.1489 56.6988 52.3204 56.4909 53.1599 56.6988C56.831 57.6165 59.668 58.9419 60.6559 62.9072C60.8719 63.7683 60.4427 64.7968 60.6559 65.6471C60.996 66.9967 60.6991 68.5003 60.3698 69.8256C60.2726 70.2143 60.0027 70.576 59.9379 70.9809C59.6481 72.5908 59.1128 74.1467 58.3507 75.5941C57.908 76.4795 57.2952 77.5133 56.9092 78.477C56.7608 78.8495 56.5772 79.4676 56.3343 79.7727C56.2236 79.9076 55.4084 81.0144 55.179 81.3599C54.5932 82.2891 53.9169 83.158 53.1599 83.9539C52.5212 84.776 51.9438 85.6439 51.4323 86.5507C50.6036 88.2081 49.3052 90.2623 47.9717 91.593C47.6802 91.8873 46.3872 94.044 46.3872 94.044C46.3872 94.044 43.4881 92.0222 42.9267 91.8846C41.8308 91.6146 40.7996 90.9641 39.755 90.4431C38.7425 89.9569 37.7774 89.3777 36.8721 88.7128C36.1972 88.2081 35.2525 88.0677 34.5669 87.5602C33.9433 87.0932 30.7473 85.5708 29.9537 85.255C29.5245 85.0822 27.338 84.2779 26.6389 84.1024C26.1341 83.9755 21.637 81.3113 19.7178 79.7835C18.3773 78.7233 16.9298 77.806 15.3989 77.0463C14.9616 76.825 14.5432 76.8007 14.1032 76.4687L12.3729 75.1703C12.3729 75.1703 13.6119 73.4805 14.1032 72.8651C15.5123 71.1024 18.1873 66.438 19.1564 64.4971" stroke="black" stroke-width="1.48937" stroke-linecap="round" stroke-linejoin="round"/>
</g>
<g clip-path="url(#clip2_1894_8555)">
<path d="M221.414 44.539C221.652 44.3824 221.89 44.2312 222.13 44.0855L223.085 43.5456C226.46 41.6021 226.001 42.088 229.723 43.9316C232.66 45.3893 236.166 47.0655 237.721 47.9806C239.611 49.0873 243.595 51.3953 246.529 53.0931C250.152 55.1851 250.068 55.0421 249.933 59.0803L248.616 77.1658C248.556 78.9689 248.616 79.3739 248.033 80.0217C247.763 80.3105 247.398 80.6479 246.829 81.1824L233.235 93.9422C230.768 96.2582 230.757 96.4741 227.313 95.5374L223.72 94.5603C221.536 93.9604 219.419 93.1372 217.403 92.1039C215.184 90.9999 213.354 90.6679 211.054 89.4532C207.796 87.7283 207.502 86.5892 207.027 83.0072L206.638 80.0811L204.449 63.5342C204.359 62.8387 204.313 62.1381 204.312 61.4368C204.312 60.4542 204.425 59.3772 204.851 58.7914C205.181 58.3451 205.541 57.9229 205.931 57.5281C206.379 57.1373 206.806 56.7238 207.211 56.2892C209.286 54.3996 211.821 52.4858 212.388 52.0215C215.327 49.6002 218.216 46.6471 221.414 44.539ZM224.465 49.7541C222.465 47.6648 211.403 58.9831 211.152 60.7997C210.731 63.8419 213.168 62.53 214.723 61.3801C217.023 59.6876 226.465 51.8542 224.465 49.7541Z" fill="#B3B3B3"/>
<path d="M198.435 5.809C198.441 5.80204 198.447 5.79571 198.454 5.79011C199.936 4.44044 200.211 4.6132 203.108 5.4014L206.7 6.37586C208.476 6.85914 210.205 7.49681 211.87 8.28159C212.876 8.82145 213.87 9.33973 214.801 9.80131C215.19 9.99566 215.568 10.1792 215.946 10.3412C217.341 11.0835 218.764 11.8582 220.092 12.5627C223.35 14.2903 223.784 16.69 224.26 20.2666C224.26 20.4772 224.284 20.7174 224.297 20.9901L225.091 36.9539C225.091 37.0592 225.091 37.159 225.091 37.2616C225.296 42.1204 224.4 42.2851 221.401 44.5174C218.2 46.6256 215.314 49.5787 212.358 52C211.791 52.4643 209.257 54.37 207.181 56.2676C206.725 56.686 206.29 57.1044 205.901 57.5066C204.965 58.2786 204.185 58.4568 202.827 57.8171C202.002 57.23 201.141 56.6954 200.249 56.2163C197.887 54.6129 195.099 52.7531 193.687 51.9244C191.886 50.869 188.172 48.7203 185.287 47.0494C185.098 46.9441 184.919 46.8389 184.747 46.739C184.037 46.3206 183.486 45.9697 183.014 45.7078C181.302 44.5903 181.375 43.9938 181.483 40.8329L181.624 36.6165L182.066 23.4869C182.155 20.8794 182.015 21.1979 183.856 19.4703L197.45 6.70789C197.841 6.36237 198.16 6.06004 198.435 5.809ZM201.847 15.4483C202.943 14.1607 204.133 12.2442 201.771 12.1794C199.941 12.1281 183.54 26.216 187.705 27.1634C189.543 27.5791 192.761 23.3169 193.997 22.2155C196.524 19.9697 199.617 18.0667 201.847 15.4483Z" fill="#B3B3B3"/>
<path d="M261.265 11.1372C264.644 12.7433 264.463 12.5327 265.222 15.8313L269.33 33.7495C269.33 33.7495 270.1 36.9725 269.33 38.1143C268.604 39.0645 267.774 39.9317 266.858 40.7003C265.009 42.3361 262.871 43.9071 262.377 44.3066C259.421 46.6874 256.598 49.6296 253.294 51.5651L253.24 51.5975L252.387 52.0698C249.183 53.8433 249.353 53.8514 245.752 51.6811C243.141 50.1074 239.759 48.0964 238.14 47.2488C236.172 46.2231 232.02 44.0771 228.962 42.5007C225.302 40.6112 225.285 40.684 225.115 37.2802C225.115 37.1776 225.115 37.0778 225.115 36.9725L224.322 21.0086C224.322 20.7387 224.295 20.4958 224.284 20.2852C224.2 18.6656 224.284 18.725 225.785 17.3159L228.214 15.0404L238.291 5.63592C240.561 3.51425 240.304 3.56824 243.808 4.44552L247.46 5.36329C249.685 5.92906 251.854 6.69707 253.939 7.65772C256.22 8.68616 258.889 10.0115 261.265 11.1372ZM243.657 12.1845C241.589 8.10041 232.018 18.1716 230.865 19.7075C229.653 21.3271 230.509 24.0616 233.713 21.8319C236.277 19.9982 238.679 17.9463 240.89 15.699C241.724 14.8703 244.27 13.3965 243.657 12.1845Z" fill="#B3B3B3"/>
<path d="M214.907 31.4986C212.259 30.2785 209.403 29.1259 208.264 28.8182C206.123 28.2351 203.972 27.5603 201.869 26.8099L201.713 26.7559C200.957 26.4859 199.823 26.0729 198.776 25.8084C197.116 25.3846 196.8 25.614 196.768 25.6437C196.371 26.0432 196.768 28.1082 196.93 28.8829C196.986 29.1826 197.035 29.4228 197.054 29.5794C197.471 33.077 198.085 36.5485 198.892 39.9772C199.505 42.5605 201.127 49.4249 201.78 50.1618C201.795 50.1791 201.813 50.1929 201.833 50.2022C201.854 50.2116 201.876 50.2162 201.899 50.2158C202.479 50.2428 203.708 49.0901 204.172 48.6582C204.288 48.5476 204.382 48.4585 204.442 48.3883C205.449 47.511 206.518 46.6823 207.551 45.8806C208.52 45.1302 209.519 44.3555 210.453 43.5511C211.193 42.9141 211.949 42.2743 212.683 41.6616C214.086 40.4766 215.539 39.2511 216.913 37.9959C217.077 37.8474 217.269 37.6774 217.48 37.4938C218.376 36.7056 220.233 35.0644 220.122 34.3869C219.971 34.1466 218.716 33.2532 214.907 31.4986ZM204.353 31.8468L204.023 30.8319V30.813L203.708 29.6307C203.692 29.581 203.687 29.5287 203.692 29.4769C203.697 29.4251 203.713 29.3749 203.738 29.3292C203.763 29.2836 203.797 29.2436 203.838 29.2114C203.879 29.1793 203.926 29.1558 203.976 29.1423C204.026 29.1288 204.079 29.1256 204.13 29.133C204.182 29.1403 204.231 29.158 204.276 29.1849C204.32 29.2119 204.359 29.2476 204.389 29.2899C204.42 29.3321 204.441 29.3801 204.453 29.4309L204.768 30.6024L205.095 31.6066C205.117 31.6746 205.12 31.7474 205.103 31.8169C205.087 31.8864 205.051 31.95 205.001 32.0007C204.953 32.0466 204.896 32.0798 204.832 32.0972C204.769 32.1147 204.702 32.1158 204.638 32.1004C204.574 32.085 204.515 32.0537 204.467 32.0093C204.418 31.965 204.382 31.9091 204.361 31.8468H204.353ZM201.718 31.5904C201.708 31.5809 201.7 31.57 201.694 31.558L200.533 29.8601C200.502 29.8184 200.479 29.7707 200.467 29.72C200.454 29.6693 200.452 29.6166 200.461 29.5651C200.469 29.5136 200.488 29.4644 200.516 29.4203C200.544 29.3763 200.581 29.3384 200.624 29.309C200.667 29.2796 200.716 29.2592 200.767 29.2491C200.818 29.2391 200.871 29.2395 200.922 29.2504C200.973 29.2613 201.021 29.2824 201.064 29.3125C201.107 29.3426 201.143 29.381 201.17 29.4255L202.32 31.1045L203.257 32.2058C203.319 32.2801 203.351 32.375 203.348 32.4718C203.344 32.5687 203.303 32.6606 203.235 32.7295L203.211 32.7511C203.133 32.8162 203.033 32.8481 202.932 32.8401C202.831 32.832 202.737 32.7845 202.671 32.7079L201.718 31.5904ZM198.528 31.9386C198.456 31.8638 198.417 31.7636 198.419 31.6601C198.422 31.5565 198.465 31.4582 198.54 31.3866C198.614 31.315 198.715 31.276 198.818 31.2783C198.922 31.2806 199.02 31.3239 199.092 31.3987L201.832 34.314C201.901 34.3865 201.941 34.4832 201.941 34.5839C201.941 34.6846 201.901 34.7814 201.832 34.8539C201.757 34.9223 201.659 34.9589 201.558 34.9559C201.457 34.9529 201.362 34.9104 201.292 34.8377L198.528 31.9386ZM204.598 42.8979L204.739 43.5079L205.1 44.7118C205.12 44.779 205.121 44.8502 205.104 44.918C205.087 44.9858 205.052 45.0479 205.003 45.0978C204.957 45.1421 204.9 45.1745 204.839 45.1923C204.789 45.2066 204.738 45.211 204.687 45.2052C204.636 45.1993 204.586 45.1833 204.542 45.1582C204.497 45.1331 204.458 45.0993 204.426 45.0588C204.395 45.0183 204.371 44.9719 204.358 44.9224L203.996 43.705V43.6834L203.853 43.0598C203.842 43.0106 203.84 42.9595 203.848 42.9095C203.857 42.8596 203.875 42.8118 203.902 42.7688C203.928 42.7259 203.963 42.6887 204.005 42.6595C204.046 42.6302 204.093 42.6094 204.142 42.5982C204.242 42.5774 204.346 42.597 204.431 42.6526C204.517 42.7082 204.577 42.7955 204.598 42.8952V42.8979ZM207.708 41.2783L208.164 42.3175C208.195 42.389 208.204 42.468 208.189 42.5445C208.175 42.6209 208.138 42.6913 208.083 42.7467C208.048 42.7797 208.008 42.8071 207.964 42.8277C207.87 42.8678 207.764 42.8693 207.669 42.832C207.573 42.7946 207.496 42.7214 207.454 42.6279L207.001 41.586C206.965 41.4932 206.967 41.3901 207.005 41.2984C207.044 41.2067 207.116 41.1333 207.207 41.0936C207.298 41.054 207.401 41.051 207.495 41.0854C207.588 41.1198 207.664 41.1889 207.708 41.2783ZM210.226 38.9568L211.001 39.9502C211.058 40.025 211.086 40.1177 211.08 40.2113C211.074 40.3049 211.034 40.3933 210.969 40.4604L210.934 40.4928C210.853 40.5544 210.751 40.5818 210.65 40.5692C210.549 40.5566 210.457 40.5049 210.394 40.4253L209.619 39.4319C209.562 39.351 209.538 39.2511 209.552 39.1531C209.567 39.055 209.618 38.9663 209.697 38.9052C209.775 38.8441 209.873 38.8154 209.972 38.825C210.07 38.8347 210.162 38.8819 210.226 38.9568ZM214.737 37.2698C214.717 37.3103 214.69 37.3476 214.659 37.3804C214.602 37.4361 214.53 37.4733 214.452 37.4868C214.374 37.5003 214.293 37.4895 214.221 37.456L212.453 36.6462C212.407 36.6248 212.366 36.5945 212.332 36.557C212.297 36.5196 212.271 36.4757 212.253 36.428C212.236 36.3802 212.228 36.3295 212.23 36.2787C212.232 36.2279 212.244 36.1781 212.266 36.132C212.287 36.0859 212.318 36.0445 212.355 36.0101C212.392 35.9758 212.436 35.9491 212.484 35.9317C212.532 35.9143 212.583 35.9064 212.633 35.9086C212.684 35.9108 212.734 35.923 212.78 35.9444L214.548 36.7704C214.635 36.8131 214.702 36.8867 214.737 36.9766C214.772 37.0666 214.772 37.1663 214.737 37.2563V37.2698ZM211.814 31.9791C211.844 32.0275 211.864 32.0821 211.872 32.139C211.879 32.1958 211.874 32.2537 211.857 32.3084C211.827 32.4029 211.109 34.619 210.507 35.6448C209.941 36.6088 209.256 37.4984 208.469 38.2928C207.957 38.8065 207.397 39.271 206.798 39.6803C205.641 40.5011 204.31 41.0451 202.909 41.2702C202.227 41.26 201.547 41.2141 200.871 41.1325C200.77 41.1229 200.677 41.0738 200.612 40.9959C200.547 40.918 200.516 40.8177 200.525 40.7168C200.56 40.293 200.692 38.8867 200.846 38.525L200.938 38.3063C201.294 37.4668 201.734 36.4168 202.379 35.75C204.156 33.8956 206.196 32.1302 209.071 31.7604C209.893 31.6955 210.719 31.7109 211.538 31.8063C211.593 31.8121 211.645 31.8293 211.693 31.8567C211.74 31.8842 211.781 31.9212 211.814 31.9656V31.9791Z" fill="url(#paint0_linear_1894_8555)"/>
<path d="M209.162 32.5136C206.528 32.8537 204.611 34.5219 202.929 36.271C202.389 36.8406 201.974 37.8124 201.644 38.5952L201.553 38.8138C201.438 39.3321 201.361 39.8581 201.323 40.3875C201.995 40.4523 202.673 40.5036 202.8 40.4901C204.082 40.2807 205.299 39.7802 206.358 39.0271C207.785 38.0431 208.974 36.7517 209.837 35.248C210.287 34.3733 210.664 33.4632 210.965 32.5271C210.366 32.4685 209.762 32.464 209.162 32.5136ZM207.467 36.7974C207.404 37.0377 207.279 37.2567 207.103 37.4317C206.899 37.6284 206.651 37.7721 206.379 37.8502C205.656 38.0715 205.054 37.5505 204.803 36.9702L204.781 36.9135C204.681 36.6464 204.656 36.357 204.709 36.0767C204.762 35.7965 204.89 35.536 205.081 35.3236C205.21 35.1681 205.371 35.0414 205.552 34.9517C205.733 34.862 205.931 34.8112 206.133 34.8026C206.308 34.8013 206.48 34.8372 206.639 34.908C206.799 34.9787 206.941 35.0827 207.057 35.2129C207.248 35.424 207.386 35.6785 207.457 35.9546C207.529 36.2306 207.532 36.5198 207.467 36.7974Z" fill="url(#paint1_linear_1894_8555)"/>
<path d="M206.139 35.5635C206.045 35.5727 205.953 35.6015 205.87 35.648C205.787 35.6944 205.714 35.7575 205.656 35.8334C205.556 35.9394 205.487 36.0716 205.458 36.2149C205.43 36.3582 205.442 36.5067 205.494 36.6432L205.513 36.6918C205.538 36.7458 205.783 37.2479 206.156 37.1345C206.287 37.1076 206.41 37.0459 206.509 36.9557C206.609 36.8654 206.683 36.7501 206.723 36.6216C206.755 36.4679 206.751 36.3085 206.71 36.1568C206.668 36.0052 206.591 35.8656 206.485 35.7497C206.445 35.6949 206.393 35.6498 206.333 35.6175C206.274 35.5853 206.207 35.5668 206.139 35.5635Z" fill="url(#paint2_linear_1894_8555)"/>
<path d="M221.415 44.539C224.414 42.3067 225.31 42.1312 225.105 37.2832C225.275 40.6871 225.291 40.6142 228.952 42.5037C232.007 44.0801 236.159 46.2261 238.129 47.2518C239.749 48.0994 243.131 50.1104 245.741 51.6842C249.342 53.8436 249.172 53.8436 252.376 52.0729L253.229 51.6005C253.707 52.3428 253.65 53.3118 253.58 55.42L252.266 73.5055C252.177 76.1131 249.877 78.278 248.036 80.0055C248.608 79.3577 248.56 78.9528 248.619 77.1496L249.936 59.0641C250.071 55.0151 250.155 55.169 246.532 53.077C243.59 51.3737 239.609 49.0739 237.722 47.9672C236.167 47.0548 232.66 45.3785 229.724 43.9182C226.001 42.0745 226.46 41.5886 223.086 43.5322L222.13 44.072C221.89 44.2313 221.653 44.3824 221.415 44.539Z" fill="#909090"/>
<path d="M211.152 60.8215C211.403 59.0048 222.465 47.6865 224.465 49.7758C226.465 51.8651 217.023 59.7012 214.723 61.4018C213.168 62.5382 210.731 63.8501 211.152 60.8215Z" fill="#393939"/>
<path d="M201.772 12.1789C204.134 12.2436 202.944 14.1602 201.848 15.4477C199.618 18.0661 196.525 19.9691 193.998 22.215C192.762 23.3163 189.544 27.5785 187.706 27.1628C183.541 26.2154 199.942 12.1276 201.772 12.1789Z" fill="#393939"/>
<path d="M230.865 19.7078C232.017 18.1719 241.589 8.10068 243.657 12.1848C244.27 13.3968 241.724 14.8706 240.898 15.6939C238.684 17.9415 236.28 19.9934 233.713 21.8268C230.509 24.0618 229.653 21.322 230.865 19.7078Z" fill="#393939"/>
<path d="M228.203 15.0434L241.616 2.29991C243.889 0.180933 243.633 0.234913 247.134 1.1122L250.786 2.02727C253.01 2.59398 255.179 3.36196 257.264 4.32171C259.559 5.34745 262.228 6.67283 264.601 7.80115C267.983 9.40725 267.802 9.19401 268.558 12.4926L272.669 30.4108C272.669 30.4108 273.439 33.6365 272.669 34.7756C271.222 36.8919 267.64 40.069 266.86 40.7141C267.777 39.9456 268.606 39.0784 269.333 38.1281C270.11 36.9863 269.333 33.7633 269.333 33.7633L265.224 15.8452C264.466 12.5466 264.647 12.7571 261.267 11.151C258.892 10.0254 256.222 8.70002 253.928 7.67427C251.843 6.71362 249.674 5.94562 247.449 5.37984L243.797 4.46208C240.288 3.58479 240.558 3.5308 238.28 5.65248L228.203 15.0434Z" fill="#909090"/>
<path d="M238.126 47.2518C236.159 46.2261 232.007 44.0801 228.949 42.5037C225.288 40.6142 225.272 40.6871 225.102 37.2832C225.307 42.142 224.411 42.3067 221.412 44.539C221.65 44.3824 221.887 44.2313 222.127 44.0855L223.083 43.5457C226.457 41.6021 225.998 42.088 229.721 43.9317C232.658 45.3893 236.164 47.0656 237.719 47.9807C239.338 48.9308 242.518 50.7718 245.242 52.3482L245.622 51.6275C243.031 50.051 239.722 48.0859 238.126 47.2518Z" fill="#101820"/>
<path d="M261.265 11.1368C258.973 10.0571 256.406 8.77762 254.166 7.76807C252.389 11.3366 251.823 15.3721 252.006 19.5533C252.117 22.0664 252.546 25.4406 251.912 27.8835C251.41 29.8162 249.334 31.1956 247.838 32.2969C242.915 35.9167 237.737 40.0683 235.851 46.0635L238.126 47.2458C239.746 48.0934 243.128 50.1044 245.738 51.6781C249.339 53.8376 249.169 53.8376 252.373 52.0668L253.226 51.5944L253.28 51.562C256.584 49.6266 259.408 46.6843 262.363 44.3035C262.857 43.904 264.995 42.333 266.844 40.6972C267.761 39.9287 268.59 39.0615 269.317 38.1113C270.094 36.9694 269.317 33.7464 269.317 33.7464L265.209 15.8283C264.463 12.5324 264.644 12.7429 261.265 11.1368Z" fill="url(#paint3_linear_1894_8555)"/>
<path d="M220.105 12.5762C218.777 11.8716 217.355 11.0969 215.959 10.3546C215.581 10.1791 215.203 9.99559 214.815 9.81473L214.602 9.70947C213.795 11.2035 213.161 12.7848 212.712 14.4225C211.524 18.4445 211.651 22.974 211.829 27.1229C211.94 29.7763 213.319 34.5298 210.463 36.225C208.339 37.4856 204.638 36.3816 202.214 37.3048C199.574 38.3116 197.944 39.4102 197.086 42.1636C196.276 44.817 196.524 47.8672 194.734 50.2211C194.321 50.7621 193.87 51.2736 193.385 51.7516L193.717 51.9459C195.129 52.7746 197.917 54.6453 200.279 56.2379C201.171 56.7169 202.032 57.2515 202.857 57.8386C204.206 58.4783 204.995 58.3002 205.931 57.5282C206.32 57.126 206.755 56.7184 207.211 56.2892C209.287 54.3996 211.821 52.4858 212.388 52.0215C215.344 49.5921 218.229 46.6471 221.431 44.539C224.43 42.3066 225.326 42.1312 225.121 37.2832C225.121 37.1806 225.121 37.0807 225.121 36.9754L224.327 21.0116C224.327 20.7416 224.3 20.4987 224.289 20.2882C223.785 16.7034 223.345 14.3037 220.105 12.5762Z" fill="url(#paint4_linear_1894_8555)"/>
<path d="M246.829 81.158C247.398 80.6181 247.776 80.2861 248.033 79.9972C248.605 79.3494 248.556 78.9445 248.616 77.1414L249.933 59.0558C250.068 55.0068 250.152 55.1607 246.529 53.0687L241.382 50.0859C240.742 53.2334 241.06 56.316 240.631 59.5336C240.456 60.8833 240.091 62.3517 239.12 63.3127C237.446 64.9863 236.215 64.3492 234.261 63.8525C231.132 63.0427 228.884 64.3006 228.338 67.5506C227.839 70.5199 228.808 73.9507 226.676 76.4773C224.47 79.0849 221.099 78.8338 218.143 77.8702C215.506 77.0091 210.177 75.017 205.996 75.2113L206.636 80.0431L207.025 82.9692C207.5 86.5512 207.794 87.6903 211.052 89.4152C213.341 90.6299 215.182 90.9619 217.401 92.066C219.416 93.0993 221.533 93.9224 223.717 94.5224L227.31 95.4995C230.754 96.4362 230.765 96.2202 233.232 93.9042L246.829 81.158Z" fill="url(#paint5_linear_1894_8555)"/>
<path d="M240.62 29.3496C243.781 32.2892 247.287 35.7173 249.768 39.2265" stroke="#999999" stroke-width="1.48937" stroke-linecap="round" stroke-linejoin="round"/>
<path d="M245.679 30.0732C247.155 31.5552 249.998 34.6432 249.998 34.6432" stroke="#999999" stroke-width="1.48937" stroke-linecap="round" stroke-linejoin="round"/>
<path d="M191.314 34.8833C191.458 35.7552 191.466 36.6406 191.555 37.5287" stroke="#999999" stroke-width="1.48937" stroke-linecap="round" stroke-linejoin="round"/>
<path d="M194.082 36.2061L194.803 40.2955" stroke="#999999" stroke-width="1.48937" stroke-linecap="round" stroke-linejoin="round"/>
<path d="M221.866 71.4482C224.852 74.4337 227.726 77.7107 231.128 80.2292" stroke="#999999" stroke-width="1.48937" stroke-linecap="round" stroke-linejoin="round"/>
<path d="M225.472 70.2446C227.758 72.5229 230.371 74.515 232.568 76.8607" stroke="#999999" stroke-width="1.48937" stroke-linecap="round" stroke-linejoin="round"/>
<path d="M248.653 58.751V58.9966L247.339 77.0821C247.339 77.0821 247.325 77.46 247.322 77.622C247.285 78.8799 247.268 78.9393 247.096 79.139L247.074 79.1633C247.028 79.2146 246.972 79.274 246.899 79.3442C246.75 79.4926 246.561 79.6708 246.321 79.884L245.957 80.2269L232.36 92.9893L232.028 93.2997C231.153 94.1257 230.624 94.6251 230.23 94.7223C229.836 94.8195 229.04 94.6548 227.658 94.2796L224.065 93.3024C221.962 92.7234 219.924 91.9302 217.983 90.9351C216.978 90.4504 215.945 90.025 214.89 89.661C213.784 89.2904 212.707 88.8393 211.667 88.3114" stroke="#909090" stroke-width="1.48937" stroke-linecap="round" stroke-linejoin="round"/>
<path d="M222.978 20.4121L223.013 21.0734L223.806 37.04V37.3396C223.939 40.479 223.553 41.1187 222.948 41.7126C222.456 42.1628 221.933 42.5777 221.382 42.9542L220.662 43.4941C218.502 44.9248 216.494 46.7063 214.553 48.4312C213.519 49.349 212.542 50.2181 211.541 51.036C211.43 51.1278 211.214 51.306 210.941 51.5111C209.905 52.3209 207.972 53.8298 206.312 55.3496C205.942 55.6897 205.594 56.0217 205.281 56.3348C205.195 56.4185 205.111 56.5049 205.03 56.5886C204.541 56.9854 204.277 57.0852 203.502 56.7397C202.775 56.227 202.019 55.7565 201.237 55.3307L200.94 55.1525C197.731 52.9742 195.512 51.5246 194.346 50.8336C192.621 49.8213 189.128 47.7995 185.94 45.9559L185.4 45.6455" stroke="#909090" stroke-width="1.48937" stroke-linecap="round" stroke-linejoin="round"/>
<path d="M263.876 15.7212L263.968 16.1207L268.076 34.0362C268.397 35.3858 268.484 37.0054 268.257 37.3914C267.934 37.8376 267.572 38.2549 267.177 38.6385C266.907 38.9085 266.57 39.2297 266.208 39.5563H266.17L265.973 39.7534C264.588 40.9735 263.004 42.1828 262.164 42.8306C261.895 43.0438 261.689 43.195 261.563 43.2976C260.591 44.0804 259.624 44.9172 258.688 45.754C256.766 47.4438 254.776 49.1929 252.644 50.4427L252.603 50.467L251.524 51.0609C250.374 51.7006 249.68 52.0839 249.283 52.0623C248.832 52.0353 248.017 51.544 246.668 50.7288L246.398 50.5696C243.814 49.0121 240.384 46.9714 238.718 46.0995C236.491 44.9388 231.557 42.3906 229.54 41.3487L229.292 41.2218" stroke="#909090" stroke-width="1.48937" stroke-linecap="round" stroke-linejoin="round"/>
<path d="M208.304 82.8154L205.726 63.3667C205.644 62.7266 205.601 62.082 205.6 61.4366C205.6 59.9817 205.87 59.5795 205.888 59.5471C206.166 59.1668 206.469 58.8061 206.795 58.4674C207.025 58.273 207.271 58.0436 207.578 57.7359C207.74 57.5739 207.913 57.3984 208.094 57.196C209.673 55.7545 211.538 54.2969 212.542 53.5114C212.839 53.2793 213.052 53.1119 213.187 53.0012C214.227 52.1509 215.269 51.2251 216.275 50.3289C218.165 48.658 220.103 46.9277 222.122 45.5969C222.344 45.4539 222.565 45.3108 222.789 45.1759L223.731 44.636C224.757 44.0448 225.575 43.5886 225.974 43.5563C226.244 43.5374 226.698 43.7668 227.594 44.2446C228.009 44.4659 228.525 44.744 229.151 45.0544C229.832 45.3918 230.544 45.74 231.254 46.0882C233.546 47.2139 235.916 48.38 237.068 49.0575C238.958 50.1696 243.007 52.5099 245.884 54.1862L246.125 54.3266" stroke="white" stroke-width="1.48937" stroke-linecap="round" stroke-linejoin="round"/>
<path d="M210.891 63.6742C211.97 64.3194 213.479 63.9091 215.479 62.4244C217.733 60.7022 219.876 58.8396 221.896 56.8476C224.541 54.2023 227.332 50.9091 225.389 48.8711" stroke="white" stroke-width="1.48937" stroke-linecap="round" stroke-linejoin="round"/>
<path d="M182.769 41.1618L182.92 36.6728L183.362 23.5433C183.362 23.3633 183.368 23.196 183.379 23.0412C183.372 22.6057 183.403 22.1704 183.47 21.7401C183.487 21.6807 183.508 21.6052 183.8 21.3136C183.951 21.1625 184.143 20.9843 184.385 20.7576L184.747 20.4201L198.338 7.6604L198.651 7.36886C198.889 7.14212 199.097 6.94777 199.28 6.78041L199.321 6.74532C199.907 6.20545 200.114 6.10018 200.276 6.08398C200.614 6.05429 201.356 6.25404 202.355 6.52938L206.361 7.60911C208.055 8.07118 209.706 8.67899 211.295 9.42575C212.132 9.87114 213.214 10.4434 214.227 10.9482C214.618 11.1425 214.993 11.3234 215.371 11.488L217.242 12.4922C218.006 12.9025 218.761 13.302 219.49 13.6961" stroke="white" stroke-width="1.48937" stroke-linecap="round" stroke-linejoin="round"/>
<path d="M187.419 28.4289C189.087 28.8068 190.801 27.3681 192.259 25.9132C192.799 25.3733 193.303 24.8334 193.752 24.3368C194.097 23.9589 194.397 23.6349 194.637 23.3947C194.721 23.311 194.794 23.2408 194.853 23.1895C195.736 22.404 196.68 21.6698 197.685 20.8897C199.124 19.8174 200.495 18.6562 201.79 17.413C202.163 17.0405 202.511 16.6652 202.827 16.2927C204.255 14.6164 204.716 13.2857 204.249 12.2275" stroke="white" stroke-width="1.48937" stroke-linecap="round" stroke-linejoin="round"/>
<path d="M226.393 37.2182V36.9213L225.599 20.9466L225.58 20.6011C225.58 20.4688 225.567 20.3312 225.561 20.2259V20.0505C225.539 19.8134 225.539 19.5749 225.561 19.3378C225.625 19.2383 225.701 19.1476 225.788 19.0679C225.923 18.9329 226.101 18.771 226.328 18.5631L226.66 18.2554L239.174 6.57268L239.444 6.30275C240.14 5.64951 240.602 5.22301 240.853 5.16362C241.163 5.09884 241.919 5.2878 243.066 5.57663L247.142 6.59967C249.295 7.14724 251.393 7.89085 253.41 8.82122C254.949 9.50955 256.674 10.3409 258.345 11.148C259.155 11.5367 259.964 11.9228 260.723 12.2872L261.122 12.4761" stroke="white" stroke-width="1.48937" stroke-linecap="round" stroke-linejoin="round"/>
<path d="M229.797 23.2087C230.302 23.7485 231.77 24.7554 234.448 22.8901C237.075 21.0091 239.538 18.9078 241.809 16.6088C241.957 16.4603 242.235 16.239 242.53 16.0068C243.002 15.6464 243.452 15.2589 243.879 14.8461C244.657 14.0714 245.448 12.8756 244.802 11.6069" stroke="white" stroke-width="1.48937" stroke-linecap="round" stroke-linejoin="round"/>
<path d="M226.044 10.8135C227.124 11.8932 228.188 15.0433 228.188 15.0433L225.758 17.3216C224.255 18.7225 224.176 18.6523 224.263 20.2908C223.788 16.7115 223.356 14.3064 220.095 12.5789C217.809 11.3669 215.236 9.9416 213.02 8.83757C211.004 7.80499 208.887 6.98102 206.704 6.37848L203.1 5.40133C201.173 4.87766 200.401 4.62662 199.672 4.91545C204.757 0.529034 206.202 1.97317 210.35 3.59547C214.499 5.21777 224.965 9.73105 226.044 10.8135Z" fill="#909090"/>
<path d="M205.915 57.528C205.525 57.9227 205.164 58.3449 204.835 58.7912C203.952 60.0356 204.446 63.534 204.446 63.534L206.43 78.491C205.019 78.6961 203.442 78.2993 202.112 78.0753C198.287 77.4355 194.799 76.48 191.703 74.0263C190.998 73.4675 190.507 72.7306 189.9 72.0774C188.82 70.9059 188.091 69.4941 187.257 68.1417C185.281 64.9511 183.689 61.2152 180.314 59.2339C178.814 58.354 177.145 57.9814 175.539 57.3444C173.169 56.3942 170.645 55.8733 168.313 54.8232C166.267 53.9028 164.283 52.8473 162.307 51.7811C161.355 51.3047 160.437 50.7636 159.559 50.1615C158.644 49.4947 157.821 48.7146 156.911 48.0398C156.105 47.472 155.346 46.8401 154.641 46.1503C153.769 45.2649 151.672 43.8882 151.545 42.5278C152.163 42.3199 152.414 42.4846 152.965 42.7248C153.515 42.9651 154.142 42.9948 154.752 43.1108C155.124 43.1837 155.759 43.4833 155.899 42.9435C155.999 42.5575 155.656 41.915 155.518 41.5938C155.059 40.4898 154.517 39.3992 154.012 38.3168C153.931 38.1386 153.642 37.7041 153.858 37.4854C154.074 37.2668 154.49 37.4989 154.754 37.5502C155.424 37.6852 156.104 37.7661 156.765 37.9416C157.097 38.0334 158.269 38.3114 158.469 37.9038C158.639 37.5637 158.228 36.9105 158.099 36.6162C157.829 36.0224 157.61 35.415 157.362 34.8158C157.114 34.2165 156.436 33.2448 156.423 32.5348C156.409 31.8249 157.141 32.2649 157.502 32.4647C158.152 32.8748 158.84 33.221 159.557 33.4985C160.137 33.6875 161.041 34.0384 160.785 33.0423C160.453 31.7412 159.783 30.5076 159.416 29.2039C159.313 28.8032 159.241 28.3954 159.2 27.9838C159.165 27.6814 159.03 27.3197 159.103 27.0255C159.791 26.7259 160.777 27.8191 161.241 28.1835C162.963 29.5332 164.718 30.9962 166.653 32.0301C168.04 32.7989 169.476 33.4743 170.953 34.0519C173.922 35.1586 181.575 38.665 181.575 38.665L181.505 40.8461C181.367 44.8951 181.283 44.7412 184.906 46.8359C187.84 48.5338 191.827 50.8417 193.714 51.9484C195.269 52.8581 198.497 55.0257 200.983 56.7209C203.618 58.524 204.619 58.5969 205.915 57.528Z" fill="#444444"/>
<path d="M207.195 56.2888C205.065 58.4888 204.404 59.0583 200.97 56.718C198.484 55.0228 195.258 52.8552 193.701 51.9429C191.811 50.8388 187.827 48.5282 184.893 46.833C181.27 44.7384 181.354 44.8814 181.489 40.8432L182.077 23.5C182.164 20.8924 182.021 21.211 183.864 19.4834L197.458 6.72096C199.925 4.40493 199.664 4.46431 203.108 5.40098L206.701 6.37544C208.884 6.97797 211.001 7.80194 213.017 8.83452C215.236 9.93855 217.806 11.3638 220.092 12.5758C223.353 14.3034 223.785 16.7085 224.26 20.2878" stroke="#101820" stroke-width="1.48937" stroke-linecap="round" stroke-linejoin="round"/>
<path d="M252.374 52.0728C249.17 53.8463 249.34 53.8543 245.739 51.6841C243.129 50.1104 239.747 48.0994 238.127 47.2518C236.159 46.226 232.008 44.0801 228.949 42.5037C225.17 40.5601 225.276 40.6924 225.089 36.9754L224.296 21.0116C224.177 18.6092 224.061 18.9034 225.756 17.3189L238.273 5.63886C240.543 3.51719 240.287 3.57116 243.79 4.44845L247.442 5.36623C249.668 5.93036 251.836 6.69842 253.921 7.66066C256.215 8.68641 258.885 10.0118 261.258 11.1374C264.64 12.7435 264.459 12.533 265.218 15.8315L269.326 33.7497C269.326 33.7497 270.095 36.9727 269.326 38.1145C267.876 40.2335 263.139 43.6887 262.367 44.323C259.411 46.7038 256.588 49.6461 253.284 51.5842L252.374 52.0728Z" stroke="#101820" stroke-width="1.48937" stroke-linecap="round" stroke-linejoin="round"/>
<path d="M223.088 43.5456C226.46 41.6021 226.001 42.088 229.723 43.9316C232.66 45.3893 236.166 47.0655 237.721 47.9806C239.611 49.0873 243.595 51.3953 246.529 53.0931C250.152 55.1851 250.068 55.0421 249.933 59.0803L248.616 77.1658C248.529 79.776 248.67 79.4548 246.829 81.1851L233.235 93.9449C230.768 96.2609 230.757 96.4768 227.313 95.5402L223.72 94.563C221.535 93.9636 219.419 93.1405 217.403 92.1066C215.185 91.0026 213.354 90.6706 211.055 89.4586C207.796 87.731 207.502 86.5919 207.027 83.0099L204.449 63.5342C204.449 63.5342 203.955 60.025 204.838 58.7914C206.479 56.4808 211.54 52.7018 212.372 52.0215C215.546 49.4194 218.64 46.2072 222.13 44.0855L223.088 43.5456Z" stroke="#101820" stroke-width="1.48937" stroke-linecap="round" stroke-linejoin="round"/>
<path d="M253.226 51.6001C253.704 52.3424 253.648 53.3115 253.577 55.4196L252.263 73.5052C252.174 76.1127 249.874 78.2776 248.03 80.0079" stroke="#101820" stroke-width="1.48937" stroke-linecap="round" stroke-linejoin="round"/>
<path d="M221.396 44.5526C224.47 42.2609 225.347 42.1232 225.091 36.9756" stroke="#101820" stroke-width="1.48937" stroke-linecap="round" stroke-linejoin="round"/>
<path d="M187.713 27.1628C189.552 27.5785 192.769 23.3163 194.005 22.215C196.529 19.9691 199.625 18.0661 201.855 15.4477C202.951 14.1602 204.144 12.2436 201.78 12.1789C199.944 12.1276 183.54 26.2154 187.713 27.1628Z" stroke="#101820" stroke-width="1.48937" stroke-linecap="round" stroke-linejoin="round"/>
<path d="M230.865 19.7076C229.653 21.3272 230.509 24.0616 233.713 21.832C236.276 19.9968 238.677 17.9449 240.89 15.6991C241.716 14.8704 244.262 13.3966 243.649 12.19C241.589 8.10049 232.017 18.1717 230.865 19.7076Z" stroke="#101820" stroke-width="1.48937" stroke-linecap="round" stroke-linejoin="round"/>
<path d="M211.152 60.8213C210.731 63.8635 213.168 62.5516 214.723 61.4017C217.023 59.7011 226.465 51.8676 224.465 49.7757C222.465 47.6837 211.403 58.9912 211.152 60.8213Z" stroke="#101820" stroke-width="1.48937" stroke-linecap="round" stroke-linejoin="round"/>
<path d="M199.68 4.91526C204.765 0.528848 206.209 1.97029 210.358 3.59529C214.507 5.22028 224.964 9.73087 226.044 10.8133C227.124 11.8957 228.204 15.0431 228.204 15.0431L241.617 2.29961C243.889 0.180633 243.633 0.231914 247.134 1.1119L250.786 2.02697C253.011 2.59368 255.179 3.36166 257.265 4.32141C259.559 5.34715 262.229 6.67253 264.601 7.80085C267.984 9.40695 267.803 9.19641 268.559 12.4923L272.67 30.4105C272.67 30.4105 273.439 33.6362 272.67 34.7753C271.223 36.8943 267.627 40.0795 266.855 40.7138" stroke="#101820" stroke-width="1.48937" stroke-linecap="round" stroke-linejoin="round"/>
<path d="M206.433 78.4907C205.019 78.6959 203.443 78.2991 202.114 78.075C198.287 77.4353 194.802 76.4797 191.706 74.026C191.001 73.4672 190.507 72.7303 189.903 72.0771C188.823 70.9056 188.094 69.4938 187.257 68.1415C185.284 64.9509 183.694 61.215 180.32 59.2337C178.817 58.3537 177.148 57.9812 175.542 57.3441C173.172 56.394 170.648 55.873 168.316 54.823C166.27 53.9025 164.286 52.8444 162.31 51.7808C161.358 51.3039 160.439 50.7628 159.559 50.1612C158.647 49.4945 157.824 48.7144 156.914 48.0422C156.108 47.4742 155.349 46.8423 154.644 46.1527C153.772 45.2673 151.675 43.8907 151.548 42.5302C152.169 42.3223 152.417 42.487 152.968 42.7272C153.518 42.9675 154.145 42.9972 154.755 43.1159C155.127 43.1861 155.762 43.4858 155.902 42.9459C156.004 42.5599 155.659 41.9175 155.521 41.5962C155.06 40.4922 154.52 39.4044 154.018 38.3192C153.934 38.1411 153.645 37.7065 153.861 37.4878C154.077 37.2692 154.493 37.5013 154.757 37.5553C155.427 37.6876 156.107 37.7686 156.768 37.9467C157.1 38.0358 158.272 38.3138 158.472 37.9062C158.642 37.5661 158.231 36.9129 158.102 36.6187C157.832 36.0248 157.613 35.4175 157.365 34.8182C157.117 34.2189 156.442 33.2472 156.426 32.5373C156.409 31.8273 157.144 32.2673 157.505 32.4671C158.156 32.8767 158.845 33.2229 159.562 33.5009C160.143 33.6926 161.047 34.0408 160.79 33.0447C160.458 31.7437 159.789 30.5101 159.422 29.2063C159.319 28.8048 159.246 28.396 159.206 27.9835C159.171 27.6839 159.036 27.3222 159.109 27.0279C159.797 26.7283 160.782 27.8215 161.247 28.1886C162.969 29.5383 164.723 30.9986 166.661 32.0325C168.047 32.8018 169.483 33.4773 170.959 34.0543C173.928 35.161 181.581 38.6675 181.581 38.6675" stroke="#101820" stroke-width="1.48937" stroke-linecap="round" stroke-linejoin="round"/>
<path d="M200.088 74.8414C197.869 74.2151 195.793 73.1636 193.976 71.7453C193.272 71.1865 192.778 70.4496 192.173 69.7963C191.093 68.6248 190.365 67.2131 189.528 65.8607C187.555 62.6701 185.965 58.9342 182.59 56.9529C181.087 56.0729 179.419 55.7004 177.813 55.0634C175.443 54.1132 172.919 53.5923 170.587 52.5422C168.549 51.6136 166.556 50.5636 164.581 49.4839C163.628 49.0113 162.709 48.4747 161.83 47.8778C160.918 47.211 160.094 46.4309 159.185 45.7588" stroke="#666666" stroke-width="1.48937" stroke-linecap="round" stroke-linejoin="round"/>
<path d="M164.821 33.8442C166.207 34.6136 167.643 35.2891 169.119 35.866C172.088 36.9728 179.743 40.4792 179.743 40.4792" stroke="#666666" stroke-width="1.48937" stroke-linecap="round" stroke-linejoin="round"/>
<path d="M163.36 44.4606C164.083 42.4274 164.926 40.439 165.884 38.5059" stroke="#101820" stroke-width="1.48937" stroke-linecap="round" stroke-linejoin="round"/>
<path d="M168.681 46.1745C168.975 45.7899 169.218 45.3689 169.404 44.922C170.003 43.6371 170.559 42.336 171.118 41.0322" stroke="#101820" stroke-width="1.48937" stroke-linecap="round" stroke-linejoin="round"/>
<path d="M174.816 48.8819C175.607 47.0085 176.579 45.2216 177.432 43.3779" stroke="#101820" stroke-width="1.48937" stroke-linecap="round" stroke-linejoin="round"/>
<path d="M181.775 53.6624C182.107 52.3316 182.817 51.1061 183.395 49.8833" stroke="#101820" stroke-width="1.48937" stroke-linecap="round" stroke-linejoin="round"/>
<path d="M187.266 58.6241C187.683 57.8699 188.059 57.0941 188.394 56.2999C188.586 55.779 188.777 55.2607 188.98 54.7451" stroke="#101820" stroke-width="1.48937" stroke-linecap="round" stroke-linejoin="round"/>
<path d="M194.03 58.7129C193.801 59.2528 193.588 59.7737 193.331 60.3028C192.999 60.9857 192.837 61.7281 192.497 62.4137" stroke="#101820" stroke-width="1.48937" stroke-linecap="round" stroke-linejoin="round"/>
<path d="M197.008 62.7729C196.908 64.3332 196.495 65.8448 196.198 67.3618" stroke="#101820" stroke-width="1.48937" stroke-linecap="round" stroke-linejoin="round"/>
<path d="M199.985 65.2104C199.715 66.6249 199.907 68.0151 199.893 69.4484" stroke="#101820" stroke-width="1.48937" stroke-linecap="round" stroke-linejoin="round"/>
</g>
<defs>
<linearGradient id="paint0_linear_1894_8555" x1="211.804" y1="43.5183" x2="198.458" y2="24.4578" gradientUnits="userSpaceOnUse">
<stop stop-color="#009245" stop-opacity="0.5"/>
<stop offset="1" stop-color="#009245" stop-opacity="0.1"/>
</linearGradient>
<linearGradient id="paint1_linear_1894_8555" x1="8905.57" y1="6354.24" x2="8925.53" y2="6217.95" gradientUnits="userSpaceOnUse">
<stop stop-color="#009245" stop-opacity="0.5"/>
<stop offset="1" stop-color="#009245" stop-opacity="0.1"/>
</linearGradient>
<linearGradient id="paint2_linear_1894_8555" x1="1381.28" y1="1278.73" x2="1383.01" y2="1270.59" gradientUnits="userSpaceOnUse">
<stop stop-color="#009245" stop-opacity="0.5"/>
<stop offset="1" stop-color="#009245" stop-opacity="0.1"/>
</linearGradient>
<linearGradient id="paint3_linear_1894_8555" x1="261.537" y1="45.8729" x2="241.209" y2="16.8414" gradientUnits="userSpaceOnUse">
<stop stop-color="#9F662D" stop-opacity="0.25"/>
<stop offset="1" stop-color="#101820" stop-opacity="0.1"/>
</linearGradient>
<linearGradient id="paint4_linear_1894_8555" x1="28953.7" y1="41035" x2="30522.6" y2="35211.1" gradientUnits="userSpaceOnUse">
<stop stop-color="#9F662D" stop-opacity="0.25"/>
<stop offset="1" stop-color="#101820" stop-opacity="0.1"/>
</linearGradient>
<linearGradient id="paint5_linear_1894_8555" x1="37984" y1="46416.2" x2="38953.7" y2="41150.6" gradientUnits="userSpaceOnUse">
<stop stop-color="#9F662D" stop-opacity="0.25"/>
<stop offset="1" stop-color="#101820" stop-opacity="0.1"/>
</linearGradient>
<clipPath id="clip0_1894_8555">
<rect width="83.6388" height="78.9069" fill="white" transform="translate(79 87)"/>
</clipPath>
<clipPath id="clip1_1894_8555">
<rect width="61.3666" height="73.5757" fill="white" transform="translate(0 21)"/>
</clipPath>
<clipPath id="clip2_1894_8555">
<rect width="122.55" height="96.5713" fill="white" transform="translate(151)"/>
</clipPath>
</defs>
</svg>
