<svg width="162" height="177" viewBox="0 0 162 177" fill="none" xmlns="http://www.w3.org/2000/svg">
<g clip-path="url(#clip0_1894_8554)">
<path d="M40.0736 122.685C38.4519 123.931 36.7374 125.052 34.9449 126.037C34.1929 126.455 33.4777 126.935 32.8071 127.473C32.4615 127.743 29.2169 130.491 29.2169 130.491C32.1187 134.378 35.0124 138.454 38.4163 141.874C39.2774 142.738 39.909 143.858 40.7566 144.738C41.5997 145.679 42.3357 146.71 42.9511 147.813C43.7879 149.238 44.9919 150.545 45.9798 151.862C47.5211 153.927 49.2541 155.957 50.5687 158.157C50.9034 158.716 51.1355 159.331 51.4648 159.892C52.172 161.102 52.9225 162.387 53.2545 163.769C53.4516 164.578 53.7944 165.388 53.8781 166.214C53.9267 166.681 53.7943 167.183 53.8429 167.645C54.0427 169.615 53.986 172.258 52.4366 173.805C51.4135 174.825 50.0072 175.257 48.6737 175.616C45.0485 176.582 41.2641 175.557 37.8764 174.161C36.8885 173.756 35.8303 173.435 34.9071 172.868C32.7612 171.559 30.5882 170.261 28.4071 169C25.2543 167.173 22.4119 164.857 19.197 163.134C17.5774 162.265 16.0091 161.245 14.4678 160.238C13.1019 159.361 11.79 158.397 10.462 157.468C9.09071 156.508 7.70056 155.579 6.34819 154.58C4.91755 153.538 3.43021 152.405 2.09674 151.244C1.61356 150.823 0.552734 150.029 0.552734 150.029C1.18438 148.604 1.78362 147.122 2.63931 145.813C6.12415 140.487 9.42002 134.991 13.2882 129.927C14.5183 128.338 15.6591 126.682 16.7055 124.966C17.7393 123.246 19.0324 121.727 20.1931 120.107C20.7653 119.297 21.3106 118.487 21.8127 117.64C22.5064 116.49 23.4323 115.502 24.1692 114.382C24.4256 114.001 25.033 112.687 25.4001 112.492C25.5124 112.515 25.6213 112.552 25.724 112.603C26.963 113.345 28.1237 114.252 29.306 115.094C30.078 115.634 30.9256 116.093 31.7354 116.579C32.6829 117.149 33.5656 117.845 34.4833 118.469C35.4011 119.092 36.2028 119.918 37.161 120.493C37.4472 120.69 40.0736 122.685 40.0736 122.685Z" fill="#96A782"/>
<path d="M73.2712 145.564C72.1915 147.289 71.0308 148.971 69.8944 150.634C69.3869 151.373 69.0846 152.221 68.5987 152.977C67.8213 154.17 66.9413 155.32 66.145 156.486C65.6052 157.296 65.1462 158.143 64.6334 158.969C63.9774 160.033 63.1568 160.991 62.536 162.084C62.1314 162.859 61.6751 163.606 61.1701 164.319C60.8084 164.784 60.4278 165.229 60.0364 165.669C60.0364 165.669 59.6018 162.592 59.6423 161.831C59.6963 160.948 59.7179 159.728 60.0796 158.902C60.4413 158.076 60.9785 157.282 61.3483 156.429C61.8515 155.373 62.4933 154.389 63.2568 153.503C63.8128 152.828 64.242 152.056 64.8089 151.39C66.1873 149.745 67.7977 148.309 69.5894 147.127C70.5827 146.488 73.2712 145.564 73.2712 145.564Z" fill="#96A782"/>
<path d="M67.2832 104.534C67.2832 104.534 68.5681 106.823 69.1269 107.444C70.1191 108.524 71.0414 109.667 71.8883 110.864C72.3688 111.585 72.9221 112.295 73.408 113.024C73.6078 113.315 73.6536 113.736 73.8588 114.039C74.2259 114.578 74.7982 115.029 75.2382 115.518C75.8644 116.214 76.3179 117.075 76.9225 117.796C78.4531 119.607 79.0361 122.15 79.8162 124.304C80.0807 124.916 80.2964 125.548 80.4614 126.194C80.7097 127.505 80.3129 128.664 80.2778 129.973C80.1914 132.877 78.7527 135.371 77.7648 138.014C77.2843 139.293 76.2018 140.357 75.5783 141.572C74.8711 142.946 74.0936 144.271 73.2703 145.586C73.2703 145.586 70.571 146.498 69.5858 147.143C67.7941 148.325 66.1837 149.76 64.8053 151.405C64.2384 152.072 63.8092 152.844 63.2532 153.519C62.4897 154.405 61.8479 155.389 61.3447 156.445C60.9749 157.287 60.4485 158.065 60.076 158.918C59.7035 159.771 59.6927 160.964 59.6387 161.846C59.5982 162.608 60.0328 165.685 60.0328 165.685C59.3121 166.495 58.5698 167.288 57.9085 168.144C56.907 169.442 54.6882 171.58 52.4396 173.813C53.989 172.266 54.0457 169.623 53.8487 167.647C53.8001 167.188 53.9296 166.686 53.8837 166.217C53.7973 165.385 53.4546 164.581 53.2602 163.787C52.9282 162.402 52.1805 161.118 51.4678 159.911C51.1412 159.35 50.9091 158.731 50.5743 158.175C49.2463 155.973 47.516 153.943 45.9855 151.88C44.9975 150.558 43.7936 149.249 42.9568 147.831C42.3415 146.729 41.6054 145.699 40.7623 144.76C39.9147 143.877 39.2831 142.762 38.422 141.896C37.5609 141.029 36.7241 140.119 35.9197 139.177C33.547 136.419 31.3875 133.412 29.2227 130.513C29.2227 130.513 32.4619 127.757 32.8155 127.492C33.4867 126.956 34.2008 126.475 34.9506 126.056C36.7449 125.073 38.4597 123.951 40.0794 122.701C41.2455 121.848 42.4116 120.976 43.6236 120.161C44.5062 119.569 45.5131 118.965 46.385 118.387C47.1273 117.888 47.8264 117.189 48.5769 116.684C49.3867 116.144 50.3099 115.677 51.1089 115.143C51.7027 114.743 52.2642 114.209 52.8499 113.817C53.5733 113.331 54.4884 112.967 55.1686 112.416C55.7698 111.895 56.4198 111.433 57.1095 111.037C59.5389 109.774 61.8387 108.019 64.0251 106.553C64.8592 105.97 67.2832 104.534 67.2832 104.534ZM66.63 131.819C67.3831 129.641 66.2062 127.632 64.395 126.455C64.125 126.28 63.7336 125.916 63.4232 125.818C62.25 125.533 61.0572 125.336 59.8547 125.227C58.8181 125.125 58.0029 125.594 57.1716 126.083C56.9205 126.229 56.5318 126.318 56.3078 126.474C54.6126 127.662 52.7986 129.678 52.5449 131.838C52.256 134.378 54.7367 136.675 56.8638 137.609C57.239 137.768 57.7681 137.774 58.1784 137.855C61.6632 138.554 65.2587 135.679 66.5166 132.529C66.6003 132.321 66.5517 132.051 66.63 131.824V131.819Z" fill="#73845F"/>
<path d="M64.395 126.461C66.2062 127.638 67.3832 129.646 66.63 131.825C66.5518 132.051 66.6003 132.321 66.5139 132.535C65.256 135.685 61.6552 138.56 58.1757 137.86C57.7654 137.779 57.2363 137.774 56.8611 137.615C54.7367 136.681 52.256 134.376 52.5422 131.844C52.7932 129.684 54.6099 127.668 56.3051 126.48C56.5291 126.323 56.9178 126.234 57.1689 126.089C58.0003 125.6 58.8154 125.13 59.852 125.233C61.0545 125.341 62.2473 125.539 63.4205 125.824C63.7336 125.908 64.1278 126.286 64.395 126.461Z" fill="#96A782"/>
<path d="M38.3896 134.986C38.9834 135.898 39.6621 136.752 40.4169 137.537C41.2051 138.346 41.6748 139.451 42.463 140.252C42.9111 140.711 43.1 141.421 43.5427 141.893C43.8916 142.261 44.2094 142.656 44.4929 143.076C44.6899 143.375 44.8897 143.84 45.1542 144.085C46.2339 145.092 47.0113 146.652 47.8373 147.916C48.6633 149.179 49.6486 150.275 50.4611 151.517" stroke="#50613C" stroke-width="1.48937" stroke-linecap="round" stroke-linejoin="round"/>
<path d="M68.9062 114.957C69.9428 116.544 71.0225 118.058 72.0618 119.651C72.5098 120.334 73.0605 121.022 73.3601 121.775C73.5977 122.366 74.0592 122.836 74.2671 123.435C74.537 124.245 75.1012 125.009 75.3927 125.865C75.5034 126.183 76.3402 127.754 76.3402 127.754" stroke="#50613C" stroke-width="1.48937" stroke-linecap="round" stroke-linejoin="round"/>
<path d="M36.2656 129.908C36.2656 129.908 40.0095 127.643 40.4576 127.344C41.4861 126.661 42.555 126.086 43.5646 125.379C44.8845 124.45 46.3989 123.799 47.7189 122.876C50.1024 121.2 52.6532 119.804 55.0961 118.223C57.539 116.641 62.9836 112.479 62.9836 112.479" stroke="#50613C" stroke-width="1.48937" stroke-linecap="round" stroke-linejoin="round"/>
<path d="M59.8522 125.235C58.813 125.127 57.9978 125.6 57.1664 126.088C56.9154 126.234 56.5267 126.323 56.3026 126.48C54.6075 127.667 52.7935 129.684 52.5424 131.843C52.2482 134.383 54.7316 136.68 56.8613 137.612C57.2366 137.776 57.7684 137.779 58.176 137.86C61.6635 138.559 65.2563 135.684 66.5169 132.534C66.6005 132.321 66.552 132.048 66.6303 131.827C67.3834 129.646 66.2065 127.64 64.3979 126.461C64.128 126.285 63.7339 125.921 63.4234 125.824C62.2495 125.538 61.0557 125.341 59.8522 125.235V125.235Z" stroke="#50613C" stroke-width="1.48937" stroke-linecap="round" stroke-linejoin="round"/>
<path d="M73.4871 139.688C72.9356 139.815 72.3942 139.982 71.8675 140.19C70.6522 140.773 69.4967 141.473 68.4177 142.282C68.0452 142.551 67.5728 142.705 67.1922 142.956C66.1746 143.637 65.0112 144.409 64.169 145.326C63.6885 145.85 63.2863 146.509 62.8544 147.076C62.2822 147.829 61.6181 148.549 61 149.254C60.6025 149.776 60.2418 150.326 59.9202 150.898C58.6951 152.795 57.7121 154.838 56.9941 156.979" stroke="#50613C" stroke-width="1.48937" stroke-linecap="round" stroke-linejoin="round"/>
<path d="M73.271 145.564C73.271 145.564 70.5717 146.474 69.5864 147.119C67.7959 148.303 66.1858 149.74 64.8059 151.384C64.239 152.051 63.8099 152.823 63.2538 153.498C62.4909 154.384 61.8491 155.368 61.3453 156.424C60.9755 157.266 60.4492 158.043 60.0767 158.896C59.7042 159.749 59.696 160.94 59.642 161.825C59.5962 162.586 60.0334 165.666 60.0334 165.666" stroke="#50613C" stroke-width="1.48937" stroke-linecap="round" stroke-linejoin="round"/>
<path d="M30.9424 153.268C30.9424 153.268 31.3743 152.458 31.5551 152.159C32.0653 151.282 32.5755 150.418 33.1127 149.557" stroke="#50613C" stroke-width="1.48937" stroke-linecap="round" stroke-linejoin="round"/>
<path d="M35.043 155.441C35.043 155.441 35.4533 154.747 35.5828 154.507C35.9445 153.8 36.3521 153.044 36.7678 152.377" stroke="#50613C" stroke-width="1.48937" stroke-linecap="round" stroke-linejoin="round"/>
<path d="M26.5352 119.95C26.5352 119.95 28.3761 121.195 29.2885 121.84C29.6043 122.056 29.9255 122.253 30.2494 122.455C30.3493 122.517 30.6462 122.66 30.6462 122.66" stroke="#50613C" stroke-width="1.48937" stroke-linecap="round" stroke-linejoin="round"/>
<path d="M29.2148 130.497C29.2148 130.497 32.4541 127.741 32.805 127.476C33.4756 126.938 34.1908 126.457 34.9428 126.04C38.0093 124.442 40.6762 122.118 43.6185 120.142C44.5012 119.551 45.508 118.946 46.3826 118.369C47.1222 117.872 47.8213 117.17 48.5718 116.665C49.3816 116.126 50.3048 115.659 51.1038 115.124C51.6976 114.725 52.2618 114.19 52.8475 113.799C53.5682 113.316 54.4833 112.951 55.1635 112.398C55.7647 111.876 56.4157 111.414 57.1071 111.018C59.5365 109.755 61.8336 108.003 64.02 106.538C64.8622 105.973 67.2835 104.54 67.2835 104.54" stroke="black" stroke-width="1.48937" stroke-linecap="round" stroke-linejoin="round"/>
<path d="M52.4395 173.821C54.688 171.578 56.9096 169.432 57.911 168.152C58.9125 166.873 60.1407 165.669 61.1664 164.341C61.6732 163.628 62.1304 162.881 62.5349 162.106C63.1531 161.026 63.9764 160.054 64.6323 158.993C65.1452 158.165 65.5906 157.314 66.1413 156.507C66.9376 155.344 67.8229 154.194 68.5949 152.998C69.0862 152.242 69.3885 151.395 69.8933 150.658C71.8962 147.726 73.9423 144.754 75.5781 141.572C76.2017 140.355 77.2841 139.294 77.7646 138.014C78.7553 135.38 80.194 132.886 80.2749 129.973C80.3127 128.675 80.7096 127.522 80.4612 126.194C80.2966 125.548 80.0799 124.916 79.8134 124.304C79.0387 122.145 78.4637 119.608 76.9224 117.796C76.3123 117.076 75.8643 116.214 75.238 115.515C74.798 115.027 74.2257 114.587 73.8586 114.039C73.6562 113.736 73.6076 113.318 73.4079 113.021C72.922 112.298 72.3686 111.588 71.8855 110.862C71.0403 109.664 70.1189 108.521 69.1267 107.442C68.568 106.821 67.2831 104.532 67.2831 104.532" stroke="black" stroke-width="1.48937" stroke-linecap="round" stroke-linejoin="round"/>
<path d="M0.540039 150.043C1.17168 148.617 1.77093 147.135 2.62662 145.826C6.11146 140.5 9.40733 135.002 13.2755 129.941C14.5056 128.351 15.6465 126.695 16.6929 124.979C17.7294 123.262 19.0197 121.74 20.1804 120.12C20.7526 119.311 21.2979 118.501 21.8 117.653C22.4964 116.503 23.4196 115.515 24.1565 114.398C24.4129 114.015 25.0203 112.7 25.3874 112.508C25.4996 112.53 25.6085 112.566 25.7113 112.616C26.9503 113.361 28.111 114.268 29.2906 115.113C30.0653 115.653 30.9102 116.109 31.72 116.595C32.6675 117.162 33.5502 117.861 34.4679 118.485C35.3857 119.108 36.1874 119.934 37.1457 120.509C37.448 120.69 40.069 122.685 40.069 122.685" stroke="black" stroke-width="1.48937" stroke-linecap="round" stroke-linejoin="round"/>
<path d="M0.540039 150.042C0.540039 150.042 1.60087 150.836 2.08405 151.257C3.41752 152.418 4.90485 153.552 6.3355 154.593C7.68517 155.581 9.07532 156.521 10.4493 157.482C11.7774 158.41 13.0892 159.371 14.4524 160.251C15.9964 161.247 17.5621 162.279 19.1844 163.148C22.3993 164.87 25.2416 167.197 28.3944 169.013C30.5755 170.274 32.7485 171.57 34.8945 172.881C35.8203 173.448 36.8758 173.77 37.8637 174.174C41.2676 175.57 45.0521 176.604 48.6773 175.627C50.0269 175.27 51.4144 174.839 52.4401 173.821C53.9949 172.274 54.0597 169.626 53.8519 167.653C53.8033 167.191 53.9355 166.689 53.8869 166.222C53.8005 165.388 53.4605 164.584 53.2634 163.777C52.9314 162.395 52.1837 161.107 51.4737 159.9C51.1444 159.339 50.915 158.724 50.5775 158.165C49.2522 155.962 47.5192 153.935 45.9887 151.87C45.0007 150.547 43.7968 149.241 42.96 147.821C42.3447 146.718 41.6087 145.687 40.7655 144.746C39.9179 143.864 39.2863 142.746 38.4252 141.882C35.0213 138.462 32.1276 134.386 29.2259 130.502" stroke="black" stroke-width="1.48937" stroke-linecap="round" stroke-linejoin="round"/>
<path d="M21.957 125.859C21.957 125.859 19.9676 129.274 18.8312 130.68C17.6381 132.156 16.5637 133.752 15.4786 135.309C12.4743 139.628 9.7209 144.144 6.8623 148.563" stroke="#50613C" stroke-width="1.48937" stroke-linecap="round" stroke-linejoin="round"/>
<path d="M12.4473 153.428C14.5662 154.688 16.6097 156.068 18.699 157.371C19.4582 157.801 20.1805 158.293 20.8584 158.843C21.4766 159.434 22.1459 159.97 22.8586 160.443C26.3677 162.616 29.6394 165.1 33.1485 167.251C34.8698 168.286 36.6459 169.226 38.4689 170.069" stroke="#50613C" stroke-width="1.48937" stroke-linecap="round" stroke-linejoin="round"/>
<path d="M20.4738 142.082C19.3941 143.729 18.7138 145.634 18.7462 147.006C18.7624 147.791 19.5857 148.674 20.2983 148.947C21.4618 149.387 22.7547 148.793 23.5375 147.964C24.2684 147.236 24.9291 146.441 25.5108 145.589C25.9184 144.957 26.2342 144.258 26.6094 143.607C27.3328 142.347 28.1777 140.743 27.1493 139.399C26.7363 138.859 26.1613 138.708 25.5081 138.651C23.6428 138.487 21.7722 140.095 20.4738 142.082Z" fill="#73845F"/>
<path d="M20.4738 142.082C19.3941 143.729 18.7138 145.634 18.7462 147.006C18.7624 147.791 19.5857 148.674 20.2983 148.947C21.4618 149.387 22.7547 148.793 23.5375 147.964C24.2684 147.236 24.9291 146.441 25.5108 145.589C25.9184 144.957 26.2342 144.258 26.6094 143.607C27.3328 142.347 28.1777 140.743 27.1493 139.399C26.7363 138.859 26.1613 138.708 25.5081 138.651C23.6428 138.487 21.7722 140.095 20.4738 142.082Z" stroke="#50613C" stroke-width="1.48937" stroke-linecap="round" stroke-linejoin="round"/>
</g>
<g clip-path="url(#clip1_1894_8554)">
<path d="M119.106 30.54C120.296 32.1974 121.352 33.8089 122.21 35.2369C119.322 35.3475 116.442 35.3853 113.572 35.3799C110.97 35.3799 105.334 35.0344 105.334 35.0344C105.334 35.0344 114.139 32.1866 119.106 30.54Z" fill="#FA9B28"/>
<path d="M159.685 33.7469C159.278 35.056 158.428 37.9281 154.67 40.2819C157.583 38.0982 157.329 33.9817 156.479 30.6831C155.145 25.5004 152.627 20.1935 150.022 15.5372C148.936 13.6098 147.671 11.7895 146.243 10.1007C144.814 8.41864 143.297 6.81301 141.7 5.29049C139.454 3.11213 136.684 0.523471 133.229 1.44394C133.116 1.47364 133.008 1.50603 132.905 1.54382C137.454 -0.434793 140.239 1.00396 142.053 1.6329C144.27 2.38332 146.629 3.38207 148.343 4.99357C150.402 6.95431 152.215 9.15884 153.741 11.5584C154.063 12.0523 154.37 12.5544 154.667 13.0592C155.404 14.3144 156.16 15.6208 156.875 16.9624C158.139 19.3243 159.28 21.7915 159.99 24.2506C160.496 26.0363 160.631 27.9066 160.387 29.7465C160.204 31.0286 160.066 32.5241 159.685 33.7469Z" fill="#B3B3B3"/>
<path d="M122.21 35.2368C121.352 33.8089 120.296 32.1974 119.106 30.54C114.037 23.4975 106.57 15.7153 102.014 18.4821L105.202 16.5035C107.68 14.9568 110.147 13.5018 112.617 12.1063C117.025 9.74165 125.482 19.4323 130.095 26.0915C130.975 27.3602 131.714 28.5209 132.254 29.4657C133.114 30.9801 133.892 32.5389 134.586 34.1355C137.402 40.5437 139.737 49.0251 136.16 51.09C134.541 52.0159 133.078 52.8419 131.933 53.4735C129.417 54.861 127.131 56.1486 124.863 57.4632C131.561 53.5248 126.888 43.3375 122.647 35.9927C122.515 35.747 122.367 35.496 122.21 35.2368Z" fill="#101820"/>
<path d="M84.4737 30.8045C85.5044 29.6303 86.6644 28.5763 87.9316 27.6625C89.8346 26.2939 92.6176 24.3072 93.6488 23.6621C96.4291 21.9237 99.2202 20.2069 102.017 18.482C106.573 15.7152 114.04 23.4974 119.109 30.54C114.142 32.1758 105.342 35.0343 105.342 35.0343C105.342 35.0343 110.978 35.3745 113.581 35.3799C116.447 35.3799 119.327 35.3475 122.218 35.2368C122.375 35.5067 122.524 35.747 122.664 35.9926C126.905 43.3375 131.572 53.5248 124.88 57.4631L124.823 57.5009C120.612 59.9303 116.455 62.4758 111.038 65.885C108.775 67.3105 106.255 68.2798 103.62 68.7382L100.192 69.3348C100.319 69.2904 100.443 69.2363 100.562 69.1728C106.23 66.2251 102.114 57.3767 100.386 53.4546C98.5561 49.2976 96.7071 45.3944 93.9295 41.9069C93.3374 41.1654 92.7013 40.4456 92.0211 39.7474C89.624 37.2829 86.2472 33.269 82.3412 34.3055C81.7038 34.4551 81.1149 34.7645 80.6299 35.2044L84.4737 30.8045Z" fill="#449F35"/>
<path d="M132.913 1.54388C133.016 1.50608 133.124 1.47369 133.237 1.444C136.692 0.523529 139.462 3.11219 141.708 5.29055C143.305 6.81307 144.822 8.4187 146.251 10.1008C147.679 11.7896 148.944 13.6099 150.03 15.5372C152.635 20.1936 155.158 25.5005 156.487 30.6832C157.337 33.9818 157.59 38.0982 154.678 40.282C154.407 40.4855 154.12 40.666 153.82 40.8219C153.82 40.8219 143.406 46.9628 136.177 51.0793C139.753 49.0143 137.418 40.533 134.603 34.1248C138.792 33.4608 144.299 32.4647 144.299 32.4647L141.556 27.2172L147.525 26.286L141.162 14.6572C141.162 14.6572 136.25 15.7532 134.698 16.1338C133.572 16.4037 129.029 17.4834 129.029 17.4834L133.159 24.6691C133.159 24.6691 131.904 25.2602 130.092 26.0727C125.479 19.4135 117.022 9.72285 112.614 12.0875C113.426 11.625 114.236 11.1697 115.044 10.7216C120.639 7.64167 126.281 4.79927 132.16 1.83271L132.263 1.77872L132.303 1.75983C132.501 1.6739 132.705 1.60174 132.913 1.54388Z" fill="#449F35"/>
<path d="M141.549 27.2282L144.291 32.4757C144.291 32.4757 138.785 33.4717 134.595 34.1357C133.901 32.5391 133.122 30.9803 132.263 29.4659C131.723 28.5211 130.976 27.3604 130.104 26.0917C131.915 25.2819 133.17 24.6881 133.17 24.6881L129.04 17.5025C129.04 17.5025 133.572 16.4227 134.709 16.1528C136.261 15.7722 141.174 14.6763 141.174 14.6763L147.536 26.305L141.549 27.2282Z" fill="#FA9B28"/>
<path d="M100.379 53.4545C102.106 57.3766 106.231 66.225 100.554 69.1727C100.435 69.2362 100.312 69.2903 100.184 69.3347C98.1707 70.0662 95.9897 68.4061 94.092 66.2034C92.1161 63.9144 90.4425 61.0369 89.576 59.6468C86.0669 54.0267 81.9423 48.1584 80.1284 41.68C79.5156 39.4854 78.9974 36.7213 80.6143 35.2016C81.0993 34.7617 81.6882 34.4524 82.3257 34.3027C86.2316 33.2581 89.6138 37.272 92.0054 39.7446C92.6893 40.4464 93.3254 41.1662 93.9139 41.904C96.6996 45.3943 98.5621 49.2975 100.379 53.4545ZM95.0233 60.8291C95.5955 61.6389 97.1234 63.5959 98.0789 62.5702C98.6593 61.9493 98.3489 60.2217 98.1141 59.4389C97.1728 56.2968 95.942 53.2487 94.4375 50.3341C93.8653 49.23 93.2498 48.1422 92.5912 47.0949C91.6599 45.5886 87.0225 37.8766 84.9494 40.7838C84.2827 41.7151 85.2193 43.4832 85.6917 44.5035C88.3348 50.1996 91.4565 55.661 95.0233 60.8291Z" fill="#B3B3B3"/>
<path d="M98.0784 62.5703C97.1229 63.596 95.595 61.6444 95.0228 60.8292C91.4555 55.6577 88.3338 50.1926 85.6912 44.4929C85.2161 43.4806 84.2822 41.7044 84.9489 40.7732C87.022 37.866 91.6594 45.578 92.5907 47.0842C93.2493 48.1424 93.8648 49.2302 94.437 50.3234C95.9415 53.2381 97.1723 56.2861 98.1136 59.4283C98.3484 60.2219 98.6588 61.9495 98.0784 62.5703Z" fill="#808080"/>
<path d="M137.728 43.9367C136.255 44.7897 134.808 45.6238 133.48 46.3823C131.86 47.3055 130.427 48.1153 129.323 48.7253L128.111 49.3947C128.247 50.3307 128.269 51.2796 128.178 52.2209C128.931 51.7998 129.711 51.368 130.529 50.9172C131.647 50.3017 133.096 49.4838 134.721 48.5553C135.752 47.9641 136.854 47.3325 137.985 46.6792C137.973 45.7596 137.887 44.8425 137.728 43.9367ZM116.466 13.2912C115.68 13.7231 114.868 14.1765 114.055 14.6408C111.607 16.0256 109.348 17.3618 107.161 18.7168C107.997 19.136 108.794 19.6293 109.542 20.1907C111.372 19.0731 113.264 17.9637 115.289 16.8192C116.099 16.3603 116.908 15.9149 117.67 15.4884C118.353 15.1132 119.033 14.7407 119.716 14.3736C118.987 13.7844 118.214 13.2528 117.402 12.7837L116.466 13.2912Z" fill="#4D4D4D"/>
<path d="M106.747 18.982L103.551 20.966L101.459 22.2562C99.5098 23.4574 97.3017 24.8206 95.1936 26.1379C94.9124 26.3142 94.7127 26.5948 94.6383 26.9182C94.5639 27.2416 94.6209 27.5813 94.7968 27.8627C94.847 27.9442 94.9068 28.0195 94.9749 28.0868C95.1751 28.2862 95.4369 28.4121 95.7177 28.444C95.9985 28.4758 96.2818 28.4118 96.5216 28.2623C98.6244 26.9477 100.827 25.5872 102.773 24.386L104.865 23.093C105.934 22.4344 107.002 21.7722 108.069 21.1063C108.559 20.8022 109.05 20.499 109.543 20.1967C108.795 19.6352 107.998 19.142 107.162 18.7228L106.747 18.982ZM128.112 49.3953C125.952 50.5965 124.028 51.6871 122.141 52.783L122.079 52.8208C119.752 54.1704 117.468 55.5201 114.893 57.1046C114.61 57.2778 114.408 57.5561 114.33 57.8784C114.252 58.2008 114.305 58.5409 114.478 58.8241C114.53 58.909 114.591 58.9878 114.661 59.059C114.86 59.2573 115.12 59.383 115.399 59.4158C115.678 59.4486 115.96 59.3866 116.2 59.2398C118.756 57.6769 121.023 56.3245 123.345 54.9776L123.407 54.9398C124.932 54.0544 126.487 53.169 128.179 52.2215C128.271 51.2802 128.248 50.3313 128.112 49.3953ZM134.636 5.28284C134.484 4.98823 134.221 4.76595 133.906 4.66475C133.59 4.56354 133.247 4.59168 132.952 4.74297C127.572 7.4585 122.473 10.0337 117.404 12.8005C118.215 13.2696 118.988 13.8012 119.717 14.3904C124.39 11.8665 129.116 9.483 134.088 6.96992C134.236 6.89641 134.368 6.79412 134.476 6.66905C134.584 6.54397 134.666 6.39862 134.717 6.24151C134.768 6.0844 134.787 5.91866 134.773 5.75405C134.759 5.58944 134.713 5.42924 134.636 5.28284ZM152.77 36.5951C152.687 36.4533 152.577 36.3293 152.445 36.2303C152.314 36.1312 152.164 36.0591 152.005 36.0179C151.846 35.9768 151.68 35.9675 151.517 35.9906C151.354 36.0137 151.198 36.0687 151.056 36.1524C150.973 36.201 144.097 40.2527 137.73 43.94C137.893 44.8454 137.983 45.7626 138 46.6825C144.637 42.8494 152.255 38.3605 152.341 38.3146C152.483 38.2304 152.607 38.1189 152.706 37.9865C152.804 37.8541 152.876 37.7034 152.916 37.5432C152.956 37.383 152.963 37.2164 152.938 37.0532C152.913 36.89 152.856 36.7334 152.77 36.5924V36.5951Z" fill="#67C258"/>
<path d="M107.402 50.2964C109.168 54.3022 113.144 62.8564 109.149 66.9162" stroke="#101820" stroke-width="1.48937" stroke-linecap="round" stroke-linejoin="round"/>
<path d="M87.0293 28.6776C91.44 27.5007 95.2515 32.041 97.9562 34.8213C98.7166 35.6007 99.4373 36.4178 100.116 37.2696" stroke="#101820" stroke-width="1.48937" stroke-linecap="round" stroke-linejoin="round"/>
<path d="M100.182 69.3349L103.61 68.7384C106.245 68.2793 108.764 67.31 111.028 65.8852C119.396 60.6215 124.735 57.4444 131.939 53.4682C138.202 50.0158 153.804 40.8138 153.804 40.8138C157.615 38.8352 157.397 34.2733 156.471 30.6778C155.138 25.4951 152.619 20.1882 150.014 15.5318C148.927 13.6057 147.662 11.7856 146.235 10.0954C144.807 8.4127 143.291 6.80705 141.692 5.28518C139.444 3.10682 136.677 0.518158 133.222 1.43863C132.906 1.52384 132.599 1.63675 132.304 1.77605V1.77605L132.263 1.79493L132.161 1.84892C122.826 6.56195 114.075 10.9511 105.186 16.5009C101.332 18.9006 97.4716 21.2598 93.6305 23.6595C92.6021 24.3047 89.8191 26.2887 87.916 27.6599C86.6491 28.5731 85.49 29.6272 84.4609 30.802L80.6035 35.1965" stroke="#101820" stroke-width="1.48937" stroke-linecap="round" stroke-linejoin="round"/>
<path d="M132.892 1.54934C137.453 -0.440072 140.245 1.00947 142.069 1.63302C144.288 2.38343 146.645 3.38219 148.359 4.99369C150.839 7.36819 152.969 10.084 154.683 13.0593C156.721 16.5198 158.892 20.388 160.006 24.2642C160.514 26.0497 160.649 27.9203 160.403 29.7601C160.212 31.0287 160.074 32.5242 159.693 33.747C159.286 35.0589 158.435 37.9282 154.678 40.2821" stroke="#101820" stroke-width="1.48937" stroke-linecap="round" stroke-linejoin="round"/>
<path d="M92.013 39.7451C92.6968 40.447 93.333 41.1668 93.9214 41.9046C96.699 45.3921 98.548 49.2954 100.378 53.4524C102.106 57.3745 106.23 66.2229 100.556 69.1706C96.3697 71.33 91.3273 62.4519 89.5728 59.6446C86.0636 54.0246 81.9417 48.1562 80.1251 41.6778C79.3531 38.9164 78.7323 35.2534 82.3251 34.2952C86.2391 33.2667 89.616 37.2752 92.013 39.7451Z" stroke="#101820" stroke-width="1.48937" stroke-linecap="round" stroke-linejoin="round"/>
<path d="M102.014 18.4795C107.836 14.9487 118.404 28.6289 122.655 35.9927C126.907 43.3565 131.596 53.5843 124.815 57.4983" stroke="#101820" stroke-width="1.48937" stroke-linecap="round" stroke-linejoin="round"/>
<path d="M112.617 12.104C117.87 9.29128 128.862 23.5735 132.263 29.4661C135.664 35.3587 140.733 48.4559 136.169 51.0905" stroke="#101820" stroke-width="1.48937" stroke-linecap="round" stroke-linejoin="round"/>
<path d="M94.4376 50.3343C93.8654 49.2276 93.2508 48.1478 92.594 47.0951C91.66 45.5889 87.0226 37.8769 84.9495 40.7814C84.2828 41.7153 85.2195 43.4807 85.6918 44.501C88.3338 50.202 91.4555 55.668 95.0234 60.8401C95.5956 61.6499 97.1235 63.6069 98.079 62.5812C98.6594 61.9603 98.349 60.2328 98.1142 59.45C97.1736 56.3041 95.9428 53.2525 94.4376 50.3343V50.3343Z" stroke="#101820" stroke-width="1.48937" stroke-linecap="round" stroke-linejoin="round"/>
<path d="M134.595 34.1356C138.784 33.4688 144.291 32.4755 144.291 32.4755L141.548 27.228L147.516 26.294L141.154 14.668C141.154 14.668 136.241 15.7639 134.689 16.1445C133.563 16.4144 129.021 17.4942 129.021 17.4942L133.15 24.6798C133.15 24.6798 131.895 25.271 130.084 26.0835" stroke="#101820" stroke-width="1.48937" stroke-linecap="round" stroke-linejoin="round"/>
<path d="M119.106 30.54C114.142 32.1758 105.34 35.0344 105.34 35.0344C105.34 35.0344 110.976 35.3745 113.578 35.3799C116.445 35.3799 119.328 35.3475 122.216 35.2369" stroke="#101820" stroke-width="1.48937" stroke-linecap="round" stroke-linejoin="round"/>
</g>
<defs>
<clipPath id="clip0_1894_8554">
<rect width="81.0826" height="72.5473" fill="white" transform="translate(0 104)"/>
</clipPath>
<clipPath id="clip1_1894_8554">
<rect width="82.0597" height="70.0504" fill="white" transform="translate(79)"/>
</clipPath>
</defs>
</svg>
