<svg width="95" height="50" viewBox="0 0 95 50" fill="none" xmlns="http://www.w3.org/2000/svg">
<g clip-path="url(#clip0_1846_8880)">
<path d="M23.6419 34.925C23.2409 34.8688 23.0215 34.203 23.3847 33.896C23.59 33.7465 23.8395 33.671 24.0929 33.6817C24.6105 33.6969 24.4939 34.3474 24.2987 34.6286C24.2216 34.728 24.1214 34.807 24.0069 34.8586C23.8925 34.9103 23.7672 34.9331 23.6419 34.925Z" fill="#101820"/>
<path d="M21.8108 37.4935C21.7276 37.2443 22.3087 36.7229 22.5418 36.7336C22.6659 36.7336 22.737 36.8278 22.8369 36.878C23.3242 37.1212 22.9746 37.7413 22.5811 37.8994C22.4955 37.923 22.405 37.923 22.3193 37.8994C22.0424 37.8447 21.8986 37.7565 21.8108 37.4935Z" fill="#101820"/>
<path d="M0.948347 40.6083C0.801333 40.1504 0.78455 39.6603 0.899909 39.1932C1.19502 37.7614 3.69811 36.9026 4.86492 36.7172C5.45087 36.6818 6.03862 36.6894 6.62347 36.74C7.07748 36.8023 7.5224 36.9269 7.97489 37.006C11.2498 37.5729 14.3401 39.0063 17.674 39.4683C17.927 39.5314 18.1765 39.6075 18.4217 39.6963C18.7334 39.7769 19.0527 39.7359 19.369 39.745C19.8124 39.7571 21.1215 39.9304 21.3167 39.9319C21.7374 39.9319 22.1763 39.9836 22.597 39.8711C23.7366 39.5671 24.9987 39.4395 26.0097 37.9256C25.7978 38.2584 25.5905 38.5928 25.3907 38.9333C24.1271 40.3408 22.6939 40.8561 22.1037 41.1206C20.2876 41.9322 18.2794 41.8076 16.3892 41.3547C16.1228 41.2908 15.8731 41.1616 15.6098 41.0871C15.1346 40.9534 13.8967 40.6114 13.762 40.5795C13.2702 40.467 12.7874 40.3135 12.3046 40.1767C12.123 40.1265 11.0107 39.7799 10.6399 39.6857C10.2691 39.5915 9.94226 39.4471 9.55787 39.4015C9.30513 39.3711 9.05543 39.2495 8.80118 39.1932C8.68919 39.1689 8.03542 39.0093 7.81901 38.9531C7.35753 38.8455 6.88934 38.7693 6.41763 38.7251C6.16187 38.6947 5.16305 38.6476 5.0556 38.6567C4.71207 38.6856 4.18239 38.906 3.99625 39.216C3.90242 39.368 3.73747 39.672 3.7753 39.8681C3.86913 40.356 4.38066 40.7451 4.80894 40.9215C5.0398 41.0102 5.2758 41.0849 5.51567 41.1449C5.95152 41.2103 7.15315 41.4884 7.306 41.5051C7.86316 41.5837 8.41356 41.7047 8.95252 41.8669C9.7425 42.0888 10.5279 42.3046 11.3209 42.4946C11.4844 42.5342 11.6372 42.6102 11.7961 42.6573C12.0988 42.7454 12.9826 42.9871 13.1097 43.0312C13.4229 43.1209 13.7413 43.1909 14.0632 43.241C14.2372 43.2774 14.4142 43.3732 14.5837 43.393C14.7532 43.4127 15.6885 43.5906 15.9851 43.5921C16.2485 43.5921 16.5012 43.6012 16.766 43.627C17.079 43.6488 17.3932 43.6463 17.7058 43.6194C17.8859 43.6073 18.8969 43.4583 19.2116 43.3975C20.725 43.1057 23.0934 42.1283 24.9624 39.6416C24.6002 40.2831 24.2567 40.9351 23.9318 41.5978C23.8168 41.8319 23.6942 42.0706 23.5747 42.3122C23.5713 42.3216 23.5672 42.3308 23.5626 42.3396C23.5368 42.3913 23.5126 42.4414 23.4884 42.4916C23.4868 42.4971 23.4842 42.5022 23.4808 42.5068C22.5002 44.4433 20.4253 45.0786 19.7776 45.3644C19.5673 45.4571 19.3342 45.5164 19.1238 45.603C18.6214 45.8143 18.0055 45.8751 17.4728 45.907C16.6856 45.9917 15.8907 45.9713 15.1089 45.8462C13.4669 45.5316 11.9202 44.7822 10.3554 44.235C9.42772 43.9067 8.4758 43.6818 7.54357 43.3671C7.24089 43.2638 6.90645 43.2303 6.60529 43.1285C6.15039 43.0013 5.68646 42.9093 5.21755 42.8534C4.89368 42.7971 4.52138 42.7834 4.21265 42.6558C3.96651 42.5547 3.71367 42.4709 3.45597 42.405C3.03844 42.2748 2.62911 42.1194 2.23016 41.9398C1.71411 41.6602 1.18141 41.2741 0.948347 40.6083Z" fill="#4D4D4D"/>
<path d="M3.78777 39.8679C3.74993 39.6733 3.91488 39.3708 4.00871 39.2158C4.19637 38.9118 4.72605 38.6853 5.06807 38.6564C5.17249 38.6473 6.17131 38.6944 6.4301 38.7248C6.9018 38.769 7.37 38.8452 7.83148 38.9528C8.04789 39.0091 8.70166 39.1687 8.81365 39.193C9.06184 39.2447 9.31154 39.3708 9.57033 39.4012C9.95472 39.4468 10.2816 39.5897 10.6524 39.6855C11.0231 39.7812 12.1309 40.1263 12.3171 40.1764C12.7998 40.3132 13.2826 40.4667 13.7745 40.5792C13.9092 40.6111 15.1471 40.9531 15.6223 41.0869C15.8856 41.1614 16.1353 41.2906 16.4016 41.3544C18.2918 41.8104 20.3031 41.932 22.1161 41.1203C22.7063 40.8558 24.1395 40.3406 25.4031 38.9331C25.2639 39.1651 25.1277 39.4002 24.9945 39.6383C23.1195 42.125 20.7571 43.1024 19.2438 43.3942C18.929 43.455 17.918 43.604 17.738 43.6161C17.4254 43.643 17.1112 43.6455 16.7982 43.6237C16.5333 43.5979 16.2806 43.5903 16.0172 43.5888C15.7146 43.5888 14.7869 43.4064 14.6159 43.3897C14.4449 43.3729 14.2693 43.2772 14.0953 43.2377C13.7735 43.1876 13.455 43.1176 13.1419 43.0279C13.0147 42.9838 12.1279 42.7421 11.8283 42.654C11.6769 42.6069 11.5165 42.5309 11.3531 42.4914C10.5601 42.3014 9.77462 42.0855 8.98464 41.8636C8.44568 41.7014 7.89528 41.5805 7.33812 41.5018C7.18678 41.4851 5.98364 41.207 5.54779 41.1416C5.30792 41.0816 5.07192 41.0069 4.84106 40.9182C4.39008 40.7449 3.8816 40.3618 3.78777 39.8679Z" fill="#101820"/>
<path d="M23.0096 44.6741C22.9188 43.9141 23.1776 43.1937 23.4999 42.5051C23.5034 42.5005 23.5059 42.4954 23.5075 42.4899C23.5332 42.4398 23.5574 42.3881 23.5816 42.3379C23.5863 42.3291 23.5904 42.32 23.5938 42.3106C23.7133 42.0689 23.8359 41.8302 23.9509 41.5962C24.2758 40.9334 24.6193 40.2814 24.9815 39.6399C25.1147 39.4028 25.2509 39.1677 25.3901 38.9347C25.5899 38.5942 25.7972 38.2598 26.0091 37.9269C26.0454 37.8737 26.0817 37.8175 26.1165 37.7582L26.1286 37.7384L26.1438 37.7172L26.2527 37.55L26.2618 37.5348C26.7229 36.8254 27.2077 36.1349 27.7162 35.463C28.1369 34.9037 28.6136 34.3701 29.0177 33.8001C29.3987 33.3387 29.8086 32.902 30.245 32.493C30.6307 32.1808 31.043 31.9031 31.4769 31.663C31.9763 31.3849 33.1219 30.4881 34.1222 30.7951L34.1434 30.8027L36.3151 31.511C37.4062 31.8667 38.5307 32.233 39.6188 32.5902C40.1242 32.7544 40.7478 32.8775 41.229 33.1146C41.8722 33.4323 43.6156 34.0509 43.8017 34.1421C44.1922 34.3337 44.5963 34.4857 44.9897 34.6711C45.3181 34.8231 46.4879 35.3718 46.7422 35.4782C46.9541 35.5664 47.2234 35.7032 47.508 35.8567C48.304 36.3127 47.4762 37.5287 47.2295 37.8327C46.9828 38.1367 46.833 38.5288 46.6045 38.848C46.1868 39.4393 45.7237 40.0063 45.2727 40.5839C44.6674 41.3439 44.1195 42.154 43.5626 42.9718C43.0284 43.753 42.4215 44.4446 41.845 45.1833C41.0807 46.1607 40.4209 47.2156 39.4871 48.0576C39.248 48.272 39.0513 48.6048 38.7789 48.7766C37.9783 49.2843 37.0718 49.7266 36.0911 49.6886C35.7219 49.6734 35.3345 49.4484 35.0318 49.2569C34.4829 48.9067 33.9951 48.4681 33.588 47.9588C33.3622 47.6448 33.1656 47.3105 33.0008 46.9602C32.8363 46.7441 32.6507 46.5451 32.4469 46.3659C32.1465 46.1476 31.8052 45.9925 31.4436 45.9099C30.1709 45.6181 28.8709 46.3963 27.6602 46.6699C27.5315 46.7003 27.5255 46.752 27.3847 46.8067C26.9867 46.9587 25.947 47.1669 25.549 47.062C25.3674 47.0149 25.1631 47.0316 24.9815 46.98C24.3867 46.8082 23.7542 46.4875 23.5287 45.8947C23.4848 45.7777 23.3319 45.688 23.2865 45.5694C23.1585 45.2833 23.0655 44.9827 23.0096 44.6741ZM33.1355 35.77C33.1204 36.0026 33.2657 37.2019 33.2626 37.5697C33.2626 38.3996 33.3731 39.2311 33.3671 40.061C33.3671 40.558 33.3338 41.549 33.5926 41.9594C33.8514 42.3698 34.3296 42.1327 34.6519 41.9944C35.1574 41.7831 37.3442 40.9532 37.7982 40.6994C38.3875 40.4151 38.9941 40.1684 39.6143 39.9607C40.3603 39.7661 41.1927 39.5047 41.4 38.6687C41.4088 38.4246 41.3568 38.1822 41.2487 37.9634C41.0322 37.6746 40.3558 37.4177 40.0455 37.1882C39.5764 36.8546 39.0826 36.5573 38.5685 36.299C37.9632 35.9859 37.4093 35.6044 36.8312 35.2654C36.4528 35.042 36.0109 34.8839 35.6205 34.6893C35.1211 34.4385 34.3583 34.1406 33.8301 34.475C33.6195 34.6192 33.4465 34.8121 33.3256 35.0375C33.2047 35.2628 33.1395 35.5141 33.1355 35.77Z" fill="url(#paint0_linear_1846_8880)"/>
<path d="M0.948664 40.608C-0.125826 38.3159 0.343284 35.1999 0.875988 33.0476C0.994031 32.5627 1.11512 32.0779 1.23316 31.593C1.26645 31.4577 1.28613 31.3163 1.30731 31.178C1.5555 30.2432 2.80252 29.658 3.2414 29.506C3.73475 29.3312 4.30077 29.354 4.80926 29.3419C5.09831 29.3419 6.00633 29.3054 6.17129 29.3206C6.51936 29.3525 6.85682 29.3404 7.20338 29.3936L8.79241 29.6322C9.59904 29.7553 10.4405 29.8313 11.2577 29.9088C11.7783 29.956 12.2913 30.1414 12.821 30.19C13.1403 30.2204 14.2073 30.342 14.4146 30.3724C15.312 30.5108 16.1958 30.643 17.1008 30.7266C17.4035 30.7539 18.3463 30.9591 18.5279 30.985C18.9168 31.0397 19.3012 31.137 19.6856 31.1963C19.9959 31.2388 20.9917 31.3999 21.1824 31.4379C21.6939 31.5413 22.2265 31.6416 22.7441 31.7207C23.0468 31.7678 23.3692 31.7723 23.6718 31.8195C23.8807 31.8514 24.6646 31.9715 24.8432 32.0079C25.2087 32.0725 25.5667 32.1743 25.9116 32.3119C26.1131 32.4054 26.2982 32.5312 26.4594 32.6843C26.6362 32.8317 26.8054 32.9879 26.9664 33.1525C27.045 33.2378 27.1076 33.3366 27.1511 33.4443C27.4212 34.1951 27.4023 35.0202 27.0981 35.7578C26.8943 36.381 26.6121 36.9756 26.2582 37.527L26.2491 37.5422C26.2113 37.5969 26.1749 37.6532 26.1401 37.7094L26.125 37.7307L26.1129 37.7505C26.0766 37.8067 26.0402 37.8629 26.0054 37.9192C24.9945 39.4392 23.7354 39.5623 22.5928 39.8648C22.1721 39.9772 21.7332 39.9271 21.3125 39.9256C21.1173 39.9256 19.8082 39.7508 19.3648 39.7386C19.0485 39.7295 18.7292 39.7705 18.4174 39.69C18.1723 39.6011 17.9228 39.525 17.6698 39.462C14.3404 39.006 11.2456 37.5665 7.97066 36.9996C7.51666 36.9205 7.07325 36.7959 6.61924 36.7336C6.0344 36.683 5.44664 36.6754 4.86069 36.7108C3.69389 36.8962 1.19079 37.755 0.895681 39.1868C0.780635 39.6562 0.799001 40.1486 0.948664 40.608ZM22.5414 36.7275C22.3083 36.7275 21.7271 37.2443 21.8104 37.4875C21.8936 37.7307 22.0419 37.8386 22.3189 37.8888C22.4046 37.9124 22.495 37.9124 22.5807 37.8888C22.9742 37.7368 23.3238 37.1105 22.8365 36.8673C22.7366 36.8217 22.6654 36.7305 22.5414 36.7275ZM23.3843 33.8958C23.0211 34.1998 23.233 34.8686 23.6416 34.9248C23.7675 34.932 23.8932 34.908 24.0077 34.855C24.1222 34.802 24.222 34.7216 24.2983 34.6208C24.4936 34.3396 24.6101 33.689 24.0926 33.6738C23.8383 33.6653 23.5886 33.7436 23.3843 33.8958Z" fill="#FF4040"/>
<path d="M1.30856 31.178C1.55675 30.2432 2.80377 29.658 3.24264 29.506C3.736 29.3312 4.30198 29.354 4.81047 29.3418C5.09952 29.3418 6.00754 29.3053 6.1725 29.3205C6.52057 29.3525 6.85806 29.3403 7.20462 29.3935L8.79366 29.6321C9.60028 29.7553 10.4417 29.8313 11.2589 29.9073C11.7795 29.9559 12.2926 30.1413 12.8223 30.19C13.1416 30.2204 14.2085 30.342 14.4158 30.3724C15.3133 30.5107 16.1971 30.6429 17.1021 30.7265C17.4047 30.7539 18.3475 30.9591 18.5291 30.9849C18.9181 31.0397 19.3025 31.1369 19.6869 31.1962C19.9971 31.2388 20.9929 31.3999 21.1836 31.4379C21.6951 31.5412 22.2278 31.6416 22.7454 31.7206C23.048 31.7677 23.3704 31.7723 23.6731 31.8194C23.8819 31.8513 24.6658 31.9714 24.8444 32.0079C25.2099 32.0724 25.568 32.1743 25.9129 32.3119C26.1144 32.4053 26.2994 32.5311 26.4607 32.6843C26.6375 32.8316 26.8067 32.9879 26.9677 33.1524C26.9177 33.0795 26.1111 31.8924 25.9855 31.4607C25.7751 30.7402 26.1263 29.851 26.5999 29.3114C26.9934 28.8554 27.408 28.4131 27.9317 28.1213C28.9396 27.5604 30.0776 27.1378 30.7329 26.1453C30.8585 25.9538 30.8252 25.6619 30.8328 25.4446C30.8494 25.0131 30.7983 24.5818 30.6815 24.1663C30.5211 23.5583 30.8782 22.812 31.3216 22.4168C31.5056 22.2267 31.7084 22.0561 31.927 21.9076C32.7291 21.4759 33.7521 21.2798 34.477 21.9957C34.9204 22.4304 35.1429 23.1616 35.1429 23.1616C35.6921 23.0632 36.2521 23.0397 36.8076 23.0916C36.0916 23.0068 35.4237 22.6861 34.9083 22.1796C34.6843 21.9532 34.1773 20.7676 34.0775 20.4681C33.9065 19.9483 33.855 19.3418 33.7869 18.7961C33.7112 18.1882 33.6885 17.568 33.6204 16.9585C33.5599 16.4113 33.6356 14.3654 33.5796 13.9185C33.4464 12.8545 33.2693 9.30687 33.2693 9.30687C32.8683 9.22327 32.5565 9.15487 32.4067 9.12295C32.0299 9.03479 29.6751 8.58639 28.8881 8.4344C28.6309 8.38424 27.8696 8.25047 26.9314 8.08936C27.0827 8.13344 27.2719 8.15472 27.3732 8.28999C27.4958 8.45263 27.4111 8.65328 27.3611 8.82503C27.2612 9.17007 25.8781 10.2918 25.5769 10.5198C23.8834 11.7981 21.9448 12.8302 20.0697 13.8638C19.4311 14.2164 18.7486 14.566 18.1236 14.9111C17.892 15.0387 16.6859 15.8307 16.3075 15.9963C14.5172 16.7822 12.63 17.3643 10.923 18.3022C10.7066 18.4207 10.4508 18.4785 10.2283 18.6062C9.65476 18.9223 9.03581 19.1807 8.46981 19.4923C8.3296 19.5426 8.18659 19.5848 8.04152 19.6185C7.65107 19.7811 6.41013 20.2265 6.20885 20.269C5.83656 20.3374 5.36134 20.5365 4.96786 20.4803C4.89438 20.4712 4.82255 20.4518 4.75449 20.4225C4.75449 20.4225 4.41702 21.5929 4.27325 21.9152C4.06441 22.3864 3.96147 22.9123 3.79046 23.3987C3.6028 23.9337 3.31829 24.449 3.15182 24.9916C3.02773 25.3975 2.85976 25.8033 2.74928 26.2076C2.68797 26.4794 2.61271 26.7477 2.52379 27.0117C2.47688 27.1333 2.42694 27.2564 2.37246 27.3826C2.26907 27.6297 2.18261 27.8836 2.11368 28.1426C1.89727 29.0333 1.64149 29.9301 1.37362 30.8041C1.33902 30.9247 1.31272 31.0476 1.29492 31.1719L1.30856 31.178Z" fill="url(#paint1_linear_1846_8880)"/>
<path d="M25.9862 31.4623C25.7758 30.7418 26.1269 29.8526 26.6006 29.313C26.9941 28.857 27.4087 28.4147 27.9324 28.1229C28.9403 27.562 30.0783 27.1395 30.7336 26.1469C30.8592 25.9554 30.8259 25.6636 30.8335 25.4462C30.8501 25.0148 30.799 24.5834 30.6822 24.1679C30.5218 23.5599 30.8789 22.8136 31.3223 22.4184C31.5063 22.2283 31.7091 22.0577 31.9277 21.9092C32.7297 21.4775 33.7528 21.2814 34.4777 21.9973C34.9211 22.4321 35.1436 23.1632 35.1436 23.1632C34.8862 23.2107 34.6331 23.2793 34.3869 23.3684C34.2162 23.4144 34.0512 23.4796 33.895 23.5629C33.8133 23.6146 33.7679 23.7149 33.7044 23.7666C33.0536 24.3579 32.8463 25.352 33.3169 26.115C33.8542 26.9859 35.5733 28.0059 36.5661 28.2947C36.1639 28.1818 35.7543 28.0974 35.3403 28.0423C34.3112 27.9223 31.7173 27.6699 31.8278 29.3419C31.8701 29.9758 32.6359 30.3117 33.1474 30.4789L34.1311 30.7996C33.1308 30.4956 31.9851 31.3893 31.4857 31.6675C31.0518 31.9076 30.6396 32.1853 30.2539 32.4974C29.8175 32.9065 29.4076 33.3431 29.0265 33.8046C28.6225 34.3746 28.1458 34.9081 27.725 35.4675C27.2206 36.1424 26.7358 36.8329 26.2707 37.5392C26.6246 36.9878 26.9068 36.3932 27.1106 35.77C27.4149 35.0324 27.4338 34.2073 27.1636 33.4565C27.1201 33.3488 27.0576 33.25 26.979 33.1647C26.9184 33.0811 26.1118 31.894 25.9862 31.4623Z" fill="#FF4040"/>
<path d="M36.6127 28.3023C37.1576 28.4543 37.7009 28.6063 38.2532 28.7066C38.5862 28.7659 38.8964 28.9528 39.2263 29.0258C41.3157 29.506 43.3458 30.2166 45.2798 31.1446C45.6306 31.2896 45.9893 31.4145 46.3543 31.5186C46.7704 31.6554 48.8438 32.5521 49.095 32.6707C49.7533 32.9747 50.3057 33.2498 50.8641 33.7195C51.0518 33.8715 51.2984 34.0478 51.5164 34.2332C51.6547 34.3436 51.7778 34.4719 51.8826 34.6148C52.208 35.0708 52.9798 35.7411 52.659 36.5543C52.4516 37.0832 51.7373 37.6456 51.1592 37.5772C50.6795 37.521 49.8168 37.1744 49.3931 36.954C49.322 36.9176 48.3443 36.3096 47.5059 35.8566C47.2214 35.7046 46.952 35.5663 46.7402 35.4781C46.4859 35.3717 45.3161 34.8245 44.9877 34.671C44.5942 34.4856 44.1902 34.3336 43.7997 34.1421C43.6151 34.0509 41.8717 33.4322 41.227 33.1145C40.7457 32.8774 40.1223 32.7543 39.6168 32.5901C38.5287 32.2329 37.4042 31.8666 36.3131 31.511L34.1414 30.8026L34.1202 30.795L33.1365 30.4743C32.625 30.3071 31.8593 29.9712 31.8169 29.3374C31.7064 27.6654 34.3003 27.9177 35.3294 28.0378C35.7434 28.0929 36.153 28.1772 36.5552 28.2901L36.6127 28.3023Z" fill="#4D4D4D"/>
<path d="M33.262 37.5694C33.262 37.2016 33.1198 36.0023 33.1349 35.7697C33.1404 35.5126 33.2077 35.2605 33.331 35.0351C33.4543 34.8096 33.63 34.6174 33.8432 34.4747C34.3713 34.1403 35.1341 34.4382 35.6335 34.689C36.0179 34.8836 36.4598 35.0417 36.8442 35.2651C37.4223 35.6041 37.9777 35.9856 38.5815 36.2987C39.0956 36.557 39.5894 36.8543 40.0586 37.1879C40.3688 37.4174 41.0453 37.6743 41.2617 37.9631C41.3698 38.1819 41.4218 38.4243 41.413 38.6684C41.2057 39.4998 40.3733 39.7658 39.6272 39.9604C39.0071 40.1681 38.4005 40.4148 37.8112 40.6991C37.3572 40.9529 35.1704 41.7828 34.6649 41.9941C34.338 42.1324 33.8447 42.3483 33.6056 41.9591C33.3664 41.57 33.3755 40.5577 33.3801 40.0607C33.3725 39.2308 33.256 38.3993 33.262 37.5694ZM35.128 38.8751C35.1083 39.4603 35.8847 39.7172 36.3281 39.5044C36.8154 39.2703 36.9334 39.2368 37.0924 38.7444C37.1311 38.665 37.1567 38.5797 37.168 38.4921C37.168 37.8841 36.4779 37.3353 35.8786 37.6454C35.6588 37.7683 35.4743 37.946 35.3428 38.1614C35.2113 38.3768 35.1373 38.6226 35.128 38.8751Z" fill="#FF4040"/>
<path d="M33.3086 26.1087C32.8379 25.3487 33.0453 24.3516 33.696 23.7603C33.7596 23.7025 33.805 23.6083 33.8867 23.5566C34.0428 23.4733 34.2078 23.408 34.3786 23.362C34.6248 23.273 34.8778 23.2043 35.1352 23.1568C35.6845 23.0585 36.2444 23.0349 36.7999 23.0869C37.1429 23.1336 37.4896 23.1469 37.8351 23.1264C37.8351 23.1264 39.4498 23.3605 39.5558 23.3742C39.8582 23.4161 40.1574 23.478 40.4517 23.5596C41.0358 23.7116 41.6064 23.9168 42.1875 24.0749C42.9836 24.2892 43.7735 24.6966 44.5393 24.9975C47.4147 26.1284 50.2628 27.6317 52.5904 29.6882C52.8159 29.8889 52.9899 30.1442 53.2169 30.3509C53.8222 30.8701 54.3512 31.473 54.7878 32.1415C55.0861 32.5999 55.2917 33.1128 55.3932 33.6508C55.4372 33.8672 55.4535 34.0884 55.4416 34.309C55.3674 34.8911 54.927 35.069 54.4579 35.1997C53.7178 35.4079 52.0819 34.7118 51.5083 34.2345C51.2904 34.0491 51.0437 33.8773 50.8561 33.7208C50.2961 33.2511 49.7453 32.982 49.0869 32.672C48.8357 32.5534 46.7624 31.6566 46.3463 31.5198C45.9813 31.4157 45.6226 31.2909 45.2718 31.1459C43.3378 30.2178 41.3077 29.5072 39.2183 29.027C38.8884 28.9541 38.5781 28.7671 38.2452 28.7078C37.6928 28.6121 37.1495 28.4494 36.6047 28.3035L36.5502 28.2898C35.565 27.9995 33.8458 26.9857 33.3086 26.1087Z" fill="#4D4D4D"/>
<path d="M36.3284 39.5044C35.8835 39.7172 35.1086 39.4603 35.1283 38.8751C35.1375 38.6212 35.212 38.3741 35.3446 38.1578C35.4772 37.9415 35.6634 37.7634 35.885 37.6409C36.4903 37.3369 37.1759 37.8734 37.1744 38.4875C37.1631 38.5752 37.1375 38.6604 37.0987 38.7398C36.9262 39.2369 36.8157 39.2703 36.3284 39.5044Z" fill="#4D4D4D"/>
<path d="M36.8185 23.0875C36.1025 23.0026 35.4346 22.6819 34.9193 22.1755C34.6953 21.949 34.1883 20.7634 34.0884 20.464C33.9174 19.9442 33.8659 19.3377 33.7978 18.792C33.7222 18.184 33.6995 17.5639 33.6314 16.9544C33.5708 16.4072 33.6465 14.3613 33.5905 13.9144C33.4573 12.8504 33.2803 9.30273 33.2803 9.30273C34.721 9.60673 37.3088 10.125 37.5888 10.2147C38.0232 10.3454 39.5668 10.6707 39.8786 10.7148L44.1795 11.3623C44.1795 11.411 44.3551 13.4158 44.4398 14.0025C44.5836 15.0133 44.3369 16.0819 44.4807 17.0912C44.5475 17.572 44.5612 18.0588 44.5216 18.5427C44.4656 18.8939 44.4398 19.1371 44.4398 19.1371C44.402 19.3255 44.1568 20.1767 44.066 20.391C44.0312 20.4686 43.9979 20.543 43.9601 20.6236C43.5984 21.3836 43.0823 22.0904 42.2772 22.4354C41.6431 22.7105 41.0257 22.7212 40.3659 22.8534C40.1343 22.9005 38.9024 23.0054 38.5377 23.0632C38.3122 23.0951 38.0837 23.1179 37.8582 23.1301C37.5111 23.1498 37.1629 23.1355 36.8185 23.0875ZM36.7822 19.5186C36.5885 19.8119 36.8911 20.1813 37.1212 20.2786C37.6009 20.4701 37.9127 19.7451 37.5752 19.4076C37.4178 19.2343 36.8972 19.3483 36.7822 19.5186ZM41.3677 18.9288C40.8077 19.0687 40.9818 20.0703 41.4418 20.0354C42.3499 19.967 42.2424 18.7084 41.3677 18.9303V18.9288Z" fill="#FF4040"/>
<path d="M58.6411 29.7628C58.8969 30.231 59.1602 30.8602 59.0573 31.3405C58.9427 31.7837 58.6618 32.165 58.2733 32.4045C58.0842 32.5216 57.7891 32.5353 57.5651 32.5717C56.8916 32.6827 55.9806 32.4593 54.8062 32.1431C54.3696 31.4746 53.8407 30.8718 53.2354 30.3526C53.0084 30.1519 52.8343 29.8965 52.6088 29.6898C50.2813 27.6333 47.4377 26.13 44.5577 24.9991C43.792 24.6951 43.002 24.2908 42.206 24.0765C41.6248 23.9245 41.0543 23.7178 40.4701 23.5612C40.1759 23.4796 39.8766 23.4177 39.5742 23.3758C39.4683 23.3621 37.8535 23.128 37.8535 23.128C38.0805 23.1159 38.3075 23.0931 38.533 23.0612C38.8977 23.008 40.1296 22.8985 40.3612 22.8514C41.021 22.7192 41.6384 22.7085 42.2725 22.4334C43.0776 22.0884 43.5937 21.3877 43.9554 20.6216C43.9554 20.6216 44.983 20.7082 45.157 20.7477C45.6737 20.862 46.1807 21.0165 46.6734 21.2098C48.217 21.8254 49.7698 22.4136 51.2135 23.242C51.7417 23.546 52.2274 23.9306 52.7465 24.2452C54.258 25.1525 55.6458 26.253 56.875 27.5193C57.4789 28.112 58.0168 28.769 58.4792 29.4786C58.5291 29.5698 58.5851 29.6594 58.6411 29.7628Z" fill="#4D4D4D"/>
<path d="M37.1215 20.2706C36.8915 20.1809 36.5888 19.8146 36.7826 19.5106C36.8976 19.3404 37.4182 19.2325 37.5771 19.3921C37.913 19.7371 37.6013 20.4621 37.1215 20.2706Z" fill="#101820"/>
<path d="M41.4417 20.0353C40.9877 20.0702 40.8076 19.0685 41.3676 18.9287C42.2423 18.7083 42.3498 19.9669 41.4417 20.0353Z" fill="#101820"/>
<path d="M43.9492 20.6201C43.9871 20.5426 44.0203 20.4681 44.0551 20.3875C44.1459 20.1732 44.3911 19.3236 44.4289 19.1336C44.4676 18.9372 44.4949 18.7388 44.5107 18.5392C44.6257 17.8142 44.8694 16.6301 45.2795 16.1878C46.3721 15.0083 48.0398 15.0691 49.3565 15.7774C49.9785 16.1118 51.4146 17.2624 51.5932 17.4053C51.9459 17.7071 52.2748 18.0359 52.5769 18.3888C52.931 18.7779 54.2507 19.8221 54.4686 20.0425C54.7471 20.3252 55.7277 21.0077 55.8655 21.0974C56.3512 21.4135 56.9505 21.7996 57.5044 21.9805C57.7254 22.0519 59.1616 22.479 59.664 22.5657C61.6838 22.9159 63.7214 23.1534 65.7674 23.277C66.0171 23.2922 66.2623 23.385 66.512 23.4062C67.5365 23.4868 70.026 23.7437 70.2485 23.7498C71.2461 23.7807 72.2403 23.8823 73.2237 24.0538C73.5597 24.1115 73.9396 24.0537 74.2831 24.1085L76.5183 24.4945C77.0435 24.5842 78.8232 25.0159 79.2243 25.1314C79.6253 25.2469 80.9434 25.9127 81.1462 26.1057C81.7516 26.6788 82.3705 27.1849 82.7459 27.9662C82.8488 28.179 83.0909 28.3325 83.1091 28.5864C83.1772 29.4983 83.1499 29.8723 82.3675 30.4271C82.2165 30.5561 82.0544 30.6716 81.8832 30.7721C81.4368 30.9712 80.9752 31.2965 80.4879 31.4546C80.388 31.4758 80.2896 31.5002 80.1852 31.5245C79.9859 31.5805 79.7839 31.6262 79.5799 31.6613C79.2363 31.7114 78.8943 31.6613 78.5523 31.6613C77.9848 31.6613 77.4143 31.7418 76.8437 31.7282C76.0462 31.7099 75.2562 31.6674 74.4587 31.6111C74.1076 31.5868 71.0808 31.4439 69.9322 31.3071C69.2436 31.225 67.2293 31.1004 66.9176 31.0928C66.4677 31.0729 66.0205 31.0128 65.5812 30.9135C65.2286 30.8405 63.7168 30.6991 63.3279 30.6186C62.9964 30.5487 61.415 30.3419 60.9761 30.2887C60.6734 30.2538 58.697 29.7841 58.6349 29.7704C58.5789 29.6671 58.5229 29.5728 58.473 29.4892C58.0106 28.7796 57.4727 28.1227 56.8688 27.53C55.6419 26.262 54.2561 25.1594 52.7464 24.2498C52.2273 23.9352 51.7415 23.5491 51.2134 23.2466C49.7742 22.4182 48.2214 21.83 46.6733 21.2144C46.1815 21.0217 45.6755 20.8678 45.1599 20.7539C44.9828 20.7067 43.9492 20.6201 43.9492 20.6201Z" fill="url(#paint2_linear_1846_8880)"/>
<path d="M93.984 22.7634C94.6878 19.6596 91.0769 19.0076 90.3081 18.7522C89.3698 18.4391 88.3407 18.3448 87.3494 18.1898L83.9534 17.6578C83.4283 17.5757 81.4988 17.3705 81.1083 17.3082C79.2605 17.0179 77.4278 16.7793 75.5815 16.4905C75.0155 16.4008 73.3856 16.1865 73.1767 16.112C72.7227 15.9463 70.3679 15.656 69.696 15.4705C69.2329 15.3368 67.0809 15.0145 66.5028 14.8717C65.566 14.6376 64.5899 14.5236 63.6274 14.3746C62.7497 14.2363 61.8659 14.0569 60.979 14.0068C60.2602 13.9673 59.5201 13.7788 58.8089 13.6663C57.0776 13.3942 50.5383 12.3166 47.7764 11.9016L44.1655 11.359L39.8646 10.7115C39.5528 10.6643 38.0092 10.3421 37.5748 10.2114C37.2948 10.1263 34.6994 9.60339 33.2663 9.29939C32.8652 9.21579 32.5535 9.14739 32.4037 9.11547C32.0268 9.02731 29.672 8.57892 28.8851 8.42692C28.6278 8.37676 27.8666 8.243 26.9283 8.08188C25.2848 7.80068 23.0965 7.43437 22.1173 7.28541C21.1382 7.13645 20.097 7.04373 19.1481 6.75645C18.8621 6.67133 16.7555 6.47678 16.0608 6.2503C15.6568 6.11806 15.2012 6.1515 14.7987 6.02078C13.9103 5.72894 12.6164 5.61038 11.6933 5.62558C10.8382 5.63774 9.07512 5.56175 7.99609 7.27629C7.99609 7.27629 9.10843 4.86863 9.37176 4.28799C9.60007 3.78028 9.89088 3.30334 10.2374 2.86833C10.363 2.71633 10.4599 2.52937 10.5794 2.37129C11.1767 1.55106 11.9784 0.903132 12.904 0.492586C13.1573 0.412961 13.4197 0.365975 13.6848 0.35275C14.1256 0.299188 14.5702 0.284433 15.0136 0.308664C15.4903 0.322344 17.0899 0.586828 17.7785 0.703867L74.8203 10.3907C76.2988 10.6431 80.4197 11.4167 80.7224 11.5064C81.131 11.6295 82.3523 11.78 82.5263 11.8317C83.0318 11.9837 84.3575 12.1281 84.4801 12.1722C85.491 12.5294 88.1924 13.031 88.4678 13.1146C89.845 13.5295 91.1207 13.8381 92.3526 14.6102C92.6901 14.8215 94.5152 16.0223 94.6817 18.9422C94.7649 20.3801 94.3064 21.8925 93.9795 22.7589L93.984 22.7634Z" fill="url(#paint3_linear_1846_8880)"/>
<path d="M44.4351 13.9991C44.3504 13.4124 44.1778 11.4151 44.1748 11.3589L47.7857 11.9015C50.5476 12.3165 57.0868 13.3941 58.8181 13.6662C59.5294 13.7787 60.2695 13.9702 60.9883 14.0067C61.8751 14.0569 62.7589 14.2362 63.6367 14.3745C64.5947 14.5265 65.5708 14.6375 66.5121 14.8716C67.0902 15.0236 69.2361 15.3367 69.7053 15.4705C70.3727 15.6635 72.732 15.9462 73.186 16.1119C73.3949 16.1894 75.0248 16.4007 75.5908 16.4904C77.4371 16.7792 79.2698 17.0178 81.1176 17.3081C81.508 17.3704 83.4375 17.5756 83.9627 17.6577L87.3587 18.1897C88.3454 18.3417 89.379 18.439 90.3173 18.7521C91.0861 19.0075 94.697 19.6641 93.9933 22.7633C93.8737 23.0795 93.7723 23.3106 93.7209 23.4185C93.514 23.9061 93.2422 24.3632 92.9127 24.7773C92.4663 25.288 92.0168 25.8003 91.5507 26.2821C91.3812 26.4539 91.1497 26.5861 90.9908 26.7624C90.5849 27.2204 90.1106 27.6121 89.5849 27.9237C89.2822 28.1031 89.0446 28.3873 88.751 28.5727C88.3817 28.8053 87.9686 28.9284 87.6069 29.1564C86.3487 29.9208 84.9777 30.4795 83.545 30.8117C83.2423 30.8877 82.9396 31.0138 82.637 31.105C82.0528 31.2844 81.4263 31.327 80.8209 31.3954C80.7139 31.4067 80.6078 31.425 80.5031 31.4501C80.9889 31.2981 81.452 30.9667 81.8985 30.7676C82.0697 30.6671 82.2317 30.5516 82.3827 30.4226C83.1651 29.8678 83.1924 29.4954 83.1243 28.5819C83.1061 28.328 82.864 28.1745 82.7611 27.9617C82.3858 27.1804 81.7638 26.6743 81.1614 26.1012C80.9586 25.9082 79.6481 25.244 79.2395 25.1269C78.8309 25.0099 77.0587 24.5797 76.5336 24.4901L74.2862 24.0979C73.9457 24.0386 73.5659 24.0979 73.2269 24.0432C72.2435 23.8718 71.2493 23.7702 70.2516 23.7392C70.0291 23.7392 67.5397 23.4762 66.5151 23.3957C66.2654 23.3744 66.0202 23.2817 65.7705 23.2665C63.7245 23.1429 61.687 22.9054 59.6671 22.5551C59.1647 22.4685 57.7285 22.0414 57.5076 21.9699C56.9537 21.789 56.3544 21.403 55.8686 21.0868C55.7309 20.9971 54.7502 20.3147 54.4717 20.0319C54.2538 19.8115 52.9342 18.7673 52.58 18.3782C52.2779 18.0254 51.949 17.6966 51.5964 17.3948C51.4178 17.2519 49.9816 16.1012 49.3596 15.7668C48.043 15.0585 46.3752 14.9977 45.2826 16.1772C44.8725 16.6196 44.6288 17.8036 44.5138 18.5287C44.5534 18.0448 44.5397 17.558 44.4729 17.0771C44.3322 16.0784 44.5789 15.0099 44.4351 13.9991Z" fill="#FF4040"/>
<path d="M4.76222 20.4182C4.00553 20.0868 4.48073 18.6641 4.5337 18.05C4.55337 17.8266 4.68504 17.6107 4.7259 17.3888C4.83637 16.6927 5.09061 16.0041 5.28583 15.3262C5.65661 14.0464 7.19419 8.73705 8.00989 7.2809C9.08892 5.56635 10.852 5.64235 11.707 5.63019C12.6302 5.61499 13.9241 5.73355 14.8125 6.02539C15.215 6.15611 15.6706 6.12267 16.0746 6.25491C16.7693 6.48139 18.8758 6.67595 19.1619 6.76107C20.1108 7.04834 21.1429 7.13954 22.1311 7.29002C23.1193 7.4405 25.2986 7.80529 26.9421 8.08649C27.0934 8.13057 27.2826 8.15185 27.384 8.28713C27.5066 8.44977 27.4218 8.65041 27.3719 8.82217C27.272 9.16721 25.8888 10.289 25.5876 10.517C23.8942 11.7953 21.9556 12.8273 20.0805 13.8609C19.4419 14.2136 18.7593 14.5632 18.1343 14.9082C17.9027 15.0359 16.6966 15.8278 16.3183 15.9935C14.5279 16.7793 12.6408 17.3615 10.9337 18.2993C10.7173 18.4178 10.4615 18.4756 10.2391 18.6033C9.66551 18.9194 9.04653 19.1778 8.48053 19.491C8.34007 19.5401 8.19713 19.5817 8.05227 19.6156C7.66182 19.7782 6.42085 20.2236 6.21957 20.2662C5.84728 20.3346 5.37209 20.5337 4.97862 20.4774C4.90403 20.4682 4.83116 20.4482 4.76222 20.4182Z" fill="#FF4040"/>
<path d="M41.3332 43.627C39.8985 45.3962 39.4521 46.2413 38.5728 47.0332C38.3156 47.2643 38.1294 47.5242 38.0235 47.6291C37.4847 47.968 36.8128 48.3252 36.1817 48.3116C35.5895 48.0265 35.0715 47.6071 34.6683 47.0864C34.5001 46.8326 34.3485 46.5681 34.2143 46.2945C33.9888 45.8826 33.3699 45.3309 33.3063 45.2822C32.8432 44.9393 32.3146 44.6961 31.7536 44.5678C30.0268 44.1741 28.4787 45.077 27.3648 45.3278C27.1784 45.3702 27.0001 45.4426 26.8367 45.5421C26.5135 45.6377 26.1803 45.6953 25.8439 45.7139C25.6968 45.6822 25.5476 45.6614 25.3975 45.6516" stroke="white" stroke-width="1.48937" stroke-linecap="round" stroke-linejoin="round"/>
<path d="M20.7847 38.4877C18.4556 38.2323 19.0564 38.4664 18.5903 38.2962C17.3539 37.8402 18.0152 38.4208 12.9016 36.8598C9.17415 35.7228 8.96679 35.8155 7.69254 35.5359C7.41408 35.4751 7.12505 35.4112 6.8133 35.3687C6.44706 35.317 5.1274 35.2729 4.64918 35.3489C3.62398 35.5282 2.63418 35.8721 1.71777 36.3673" stroke="#FF8B8B" stroke-width="1.48937" stroke-linecap="round" stroke-linejoin="round"/>
<path d="M50.0574 35.7381C48.2883 34.6923 48.1521 34.6315 48.1597 34.6361C47.403 34.2303 47.6345 34.3853 45.5733 33.4201C43.9086 32.6403 42.5269 32.2147 41.8368 31.8743C41.2133 31.5703 40.5202 31.4304 40.0465 31.2769L36.7413 30.1977L34.1035 29.3374" stroke="#808080" stroke-width="1.48937" stroke-linecap="round" stroke-linejoin="round"/>
<path d="M52.4048 33.1693L52.0219 32.8501H52.0023C51.2365 32.2618 51.0942 32.0794 49.6868 31.4182C49.4235 31.2936 47.2957 30.3695 46.7902 30.2023C46.4527 30.0898 46.0986 29.9971 45.8701 29.8891C43.8402 28.9146 41.7082 28.1708 39.514 27.6715C39.4302 27.6461 39.3479 27.6161 39.2673 27.5818C39.015 27.4746 38.7522 27.3941 38.4833 27.3416C38.1111 27.2778 37.7267 27.1714 37.3135 27.0589L36.9594 26.9632L36.9307 26.9556" stroke="#808080" stroke-width="1.48937" stroke-linecap="round" stroke-linejoin="round"/>
<path d="M55.6544 30.938C54.9219 29.9394 54.2833 29.4849 53.9609 29.1141C53.8247 28.9521 53.6776 28.7997 53.5206 28.6581C50.4651 25.957 47.2492 24.6058 43.7412 23.1572" stroke="#808080" stroke-width="1.48937" stroke-linecap="round" stroke-linejoin="round"/>
<path d="M80.6896 29.8286C79.933 30.2466 80.0449 30.1083 79.9662 30.1326L79.7982 30.1888C79.2428 30.3408 79.4063 30.2861 78.5512 30.2648C77.4056 30.2648 77.6311 30.4336 74.5605 30.2177L73.9552 30.1828C70.0628 29.973 68.4132 29.7268 66.9498 29.6979C66.3732 29.6842 66.2749 29.5733 64.6631 29.3939C62.9803 29.1978 63.5568 29.2024 61.146 28.9121C61.0144 28.8908 60.4605 28.7707 59.5146 28.5503" stroke="white" stroke-width="1.48937" stroke-linecap="round" stroke-linejoin="round"/>
<path d="M93.2418 18.401C92.1915 17.793 91.0535 17.5406 90.7417 17.4373C89.6672 17.0801 88.5685 16.9813 87.5637 16.8293L84.1662 16.2958C83.0887 16.1271 82.3789 16.1605 75.7957 15.1284C75.3417 15.0585 73.9086 14.8655 73.5847 14.7955C72.8901 14.566 70.6624 14.3137 70.0813 14.1465C69.4759 13.9702 67.4057 13.6784 66.8442 13.5385C65.7152 13.2558 64.7815 13.1737 63.2318 12.9138C60.6591 12.4806 61.5792 12.7846 59.7919 12.4441C56.0463 11.7313 41.3379 9.54399 40.0803 9.35247C39.6717 9.29015 29.4444 6.89464 21.5991 5.82609C20.9089 5.75144 20.2254 5.6239 19.5546 5.44458C19.0748 5.29258 17.059 5.13146 16.4976 4.94754C15.9618 4.77275 15.4216 4.77882 15.2369 4.71803C14.0035 4.31371 12.2662 4.19819 10.9541 4.27267" stroke="white" stroke-width="1.48937" stroke-linecap="round" stroke-linejoin="round"/>
<path d="M84.5075 29.0836C84.5075 28.1184 84.3561 27.7871 83.9505 27.29C83.4526 26.2929 82.7005 25.6743 82.0921 25.0967C81.6381 24.662 80.0582 23.9293 79.6057 23.7971C79.1532 23.6649 77.3432 23.2271 76.7484 23.1253C73.9351 22.6373 74.4178 22.6981 73.646 22.6921C73.2193 22.6921 72.3491 22.4261 70.3 22.3668C70.2062 22.3668 66.6225 22.0293 66.453 21.9914C65.3089 21.7345 61.4877 21.8135 57.9282 20.6629C57.3017 20.4592 55.7732 19.3861 55.4463 19.0669" stroke="#FF8B8B" stroke-width="1.48937" stroke-linecap="round" stroke-linejoin="round"/>
<path d="M25.058 9.17188C22.8031 11.0126 18.3448 13.139 16.9101 14.0358C15.766 14.7533 15.9522 14.6818 13.8516 15.4996C10.5071 16.8007 10.6735 16.9345 10.1045 17.1503C9.92193 17.215 9.74438 17.2933 9.57332 17.3844C9.08299 17.6549 8.49427 17.9073 7.92676 18.2112" stroke="#FF8B8B" stroke-width="1.48937" stroke-linecap="round" stroke-linejoin="round"/>
<path d="M17.7881 0.708496L74.8299 10.3954" stroke="#101820" stroke-width="1.48937" stroke-linecap="round" stroke-linejoin="round"/>
<path d="M47.7862 11.9017C47.7862 11.9017 40.5992 10.8225 39.8743 10.7115C39.5626 10.6644 38.0189 10.3422 37.5846 10.2114C37.2259 10.102 33.0975 9.27817 32.4134 9.12009C32.0366 9.03193 29.6818 8.58353 28.8949 8.43153C28.1866 8.29473 23.6647 7.51954 22.1271 7.29002C21.1389 7.13802 20.1067 7.04834 19.1578 6.76107C18.8718 6.67595 16.7652 6.48291 16.0706 6.25491C15.6665 6.12267 15.211 6.15611 14.8084 6.02539C13.9201 5.73355 12.6262 5.61499 11.703 5.63019C10.8479 5.64235 9.08489 5.56483 8.00586 7.28242" stroke="#101820" stroke-width="1.48937" stroke-linecap="round" stroke-linejoin="round"/>
<path d="M8.00573 7.28223C7.19456 8.73685 5.65698 14.0462 5.28167 15.326C5.08644 16.0039 4.82767 16.694 4.72173 17.3871C4.68541 17.6105 4.5492 17.8264 4.52953 18.0498C4.47353 18.7141 3.91206 20.3298 4.97142 20.4818C5.3649 20.538 5.84008 20.3389 6.21237 20.2705C6.41365 20.2325 7.65463 19.7826 8.04507 19.62C8.19014 19.5863 8.33316 19.5441 8.47337 19.4938C9.03937 19.1898 9.65832 18.9238 10.2319 18.6077C10.4543 18.4845 10.7101 18.4268 10.9265 18.3037C12.6336 17.3613 14.5208 16.7837 16.3111 15.9978C16.6879 15.8322 17.8941 15.0402 18.1271 14.9126C18.7522 14.5675 19.4347 14.2179 20.0733 13.8653C21.9468 12.8302 23.887 11.7981 25.5805 10.5213C25.8831 10.2948 27.2648 9.17309 27.3647 8.82805C27.4146 8.65629 27.4994 8.45566 27.3768 8.29302C27.2754 8.15774 27.0832 8.14102 26.9349 8.09238" stroke="#101820" stroke-width="1.48937" stroke-linecap="round" stroke-linejoin="round"/>
<path d="M17.7882 0.708743C17.0997 0.591703 15.5001 0.327229 15.0234 0.313549C14.58 0.289317 14.1354 0.304063 13.6946 0.357626C13.4295 0.37085 13.167 0.417837 12.9137 0.497462C11.9882 0.908008 11.1865 1.55594 10.5892 2.37617C10.4696 2.52817 10.3728 2.71816 10.2472 2.8732C9.90065 3.30821 9.60984 3.78516 9.38152 4.29288C9.1182 4.87351 8.00586 7.28269 8.00586 7.28269" stroke="#101820" stroke-width="1.48937" stroke-linecap="round" stroke-linejoin="round"/>
<path d="M58.6416 29.7617C58.6416 29.7617 60.6725 30.2451 60.9828 30.2816C61.4216 30.3348 63.0031 30.5415 63.3345 30.6099C63.7235 30.692 65.2353 30.8333 65.5879 30.9063C66.0273 31.0049 66.4745 31.0649 66.9242 31.0856C67.236 31.0856 69.2503 31.2179 69.9389 31.2999C71.0875 31.4367 74.1142 31.5781 74.4653 31.6039C75.2629 31.6602 76.0528 31.7027 76.8504 31.721C77.4209 31.7347 77.9915 31.6587 78.559 31.6556C78.901 31.6556 79.243 31.7103 79.5866 31.6556C79.9967 31.5948 80.3917 31.4398 80.8094 31.3942C81.4147 31.3258 82.0443 31.2832 82.6254 31.1039C82.9281 31.0127 83.2217 30.8865 83.5334 30.8105C84.9656 30.478 86.336 29.9193 87.5938 29.1552C87.9555 28.9273 88.3686 28.8041 88.7379 28.5716C89.0315 28.3861 89.2721 28.1019 89.5718 27.9225C90.0971 27.6105 90.5714 27.2188 90.9777 26.7613C91.1366 26.5789 91.3681 26.4573 91.5376 26.2809C92.0113 25.7991 92.4608 25.2869 92.8996 24.7746C93.2293 24.3613 93.5013 23.9046 93.7078 23.4173C93.8985 23.0115 94.7959 20.9108 94.6824 18.9455C94.5159 16.0256 92.6908 14.8248 92.3533 14.6135C91.1215 13.8414 89.8457 13.5328 88.4685 13.1179C88.1931 13.0343 85.4917 12.5327 84.4808 12.1755C84.3582 12.1314 83.0325 11.9885 82.527 11.835C82.353 11.7833 81.1317 11.6328 80.7231 11.5097C80.4204 11.42 76.3026 10.6448 74.821 10.394" stroke="#101820" stroke-width="1.48937" stroke-linecap="round" stroke-linejoin="round"/>
<path d="M47.7861 11.9014C50.548 12.3163 57.0873 13.3955 58.8185 13.6661C59.5298 13.7785 60.2699 13.9701 60.9887 14.0065C61.8756 14.0567 62.7594 14.2361 63.6371 14.3744C64.5951 14.5264 65.5712 14.6358 66.5125 14.8729C67.0906 15.0249 69.2365 15.3365 69.7057 15.4703C70.3731 15.6633 72.7324 15.946 73.1864 16.1132C73.3953 16.1892 75.0252 16.4005 75.5912 16.4902C77.4375 16.779 79.2702 17.0192 81.118 17.308C81.5084 17.3703 83.438 17.5755 83.9631 17.6576L87.3591 18.1896C88.3458 18.3416 89.3794 18.4388 90.3162 18.7504C91.0865 19.0073 94.6974 19.6624 93.9937 22.7632" stroke="#101820" stroke-width="1.48937" stroke-linecap="round" stroke-linejoin="round"/>
<path d="M44.1746 11.359C44.1746 11.359 44.3502 13.4049 44.4349 13.9992C44.5787 15.01 44.332 16.0786 44.4758 17.0894C44.5728 17.769 44.559 18.46 44.4349 19.1353C44.3971 19.3222 44.1519 20.1734 44.0611 20.3877C43.6964 21.242 43.1531 22.0521 42.2723 22.4336C41.6382 22.7072 41.0208 22.7179 40.361 22.8501C40.1294 22.8972 38.8975 23.0021 38.5328 23.0599C37.2389 23.2453 35.8693 23.1404 34.9144 22.1828C34.6904 21.9564 34.1834 20.7708 34.0835 20.4713C33.9125 19.9515 33.8611 19.345 33.7929 18.7993C33.7173 18.1913 33.6946 17.5712 33.6265 16.9617C33.566 16.4145 33.6416 14.3686 33.5856 13.9217C33.4525 12.8577 33.2754 9.31006 33.2754 9.31006" stroke="#101820" stroke-width="1.48937" stroke-linecap="round" stroke-linejoin="round"/>
<path d="M41.4417 20.0353C42.3498 19.9669 42.2423 18.7083 41.3676 18.9287C40.8076 19.0685 40.9817 20.0702 41.4417 20.0353Z" stroke="#101820" stroke-width="1.48937" stroke-linecap="round" stroke-linejoin="round"/>
<path d="M37.1213 20.2707C37.601 20.4622 37.9128 19.7372 37.5753 19.3997C37.424 19.2401 36.8958 19.3465 36.7808 19.5183C36.5886 19.8116 36.8912 20.181 37.1213 20.2707Z" stroke="#101820" stroke-width="1.48937" stroke-linecap="round" stroke-linejoin="round"/>
<path d="M46.361 31.5183C45.9961 31.4142 45.6374 31.2894 45.2866 31.1444C43.3526 30.2163 41.3225 29.5057 39.2331 29.0255C38.9032 28.9526 38.5929 28.7656 38.26 28.7079C37.2793 28.5361 36.3244 28.153 35.3392 28.036C34.3101 27.9144 31.7162 27.6636 31.8267 29.3356C31.869 29.9694 32.6348 30.3054 33.1464 30.4726L36.3244 31.5092L39.6281 32.5869C40.1335 32.7525 40.7571 32.8757 41.2383 33.1128C41.8815 33.4305 43.6249 34.0491 43.811 34.1403C44.2015 34.3318 44.6055 34.4838 44.999 34.6692C45.3274 34.8212 46.4972 35.3684 46.7515 35.4764C47.5884 35.829 49.3136 36.9051 49.4105 36.9553C49.8342 37.1757 50.6968 37.5223 51.1766 37.5785C51.7547 37.6469 52.469 37.0845 52.6763 36.5555C52.9971 35.7424 52.2223 35.0781 51.9 34.616C51.6639 34.2786 51.1917 33.9792 50.88 33.7192C50.32 33.2496 49.7692 32.9805 49.1108 32.6705C48.8505 32.5534 46.7772 31.6551 46.361 31.5183Z" stroke="#101820" stroke-width="1.48937" stroke-linecap="round" stroke-linejoin="round"/>
<path d="M51.5164 34.2335C52.0869 34.7108 53.7274 35.4069 54.4674 35.2002C54.9366 35.071 55.3755 34.8962 55.4511 34.3095C55.4631 34.0889 55.4468 33.8678 55.4027 33.6514C55.1863 32.3594 54.192 31.1996 53.2295 30.3515C53.0025 30.1508 52.8285 29.8955 52.603 29.6887C50.2754 27.6322 47.4318 26.1289 44.5519 24.9981C43.7861 24.6941 42.9961 24.2882 42.2001 24.0754C41.619 23.9234 41.0484 23.7167 40.4643 23.5602C40.17 23.4786 39.8708 23.4166 39.5684 23.3747C39.4624 23.361 37.8477 23.127 37.8477 23.127" stroke="#101820" stroke-width="1.48937" stroke-linecap="round" stroke-linejoin="round"/>
<path d="M36.8272 23.0887C36.001 22.9983 35.1651 23.0912 34.3786 23.3608C34.208 23.408 34.0431 23.4737 33.8867 23.5569C33.805 23.6085 33.7596 23.7089 33.696 23.7605C33.0453 24.3518 32.8379 25.3459 33.3086 26.1089C33.864 27.0088 35.677 28.0651 36.6501 28.3129" stroke="#101820" stroke-width="1.48937" stroke-linecap="round" stroke-linejoin="round"/>
<path d="M54.8068 32.1418C55.9811 32.4579 56.8922 32.6814 57.5656 32.5704C57.7896 32.5339 58.0847 32.5203 58.2739 32.4032C58.6623 32.1637 58.9433 31.7823 59.0578 31.3392C59.1834 30.7525 58.7642 29.9469 58.4797 29.4788C58.0169 28.77 57.479 28.1136 56.8755 27.521C55.6466 26.2553 54.2587 25.1558 52.7471 24.25C52.228 23.9354 51.7422 23.5493 51.214 23.2468C49.7748 22.4184 48.2221 21.8287 46.674 21.2146C46.1819 21.0226 45.676 20.8686 45.1606 20.754C44.9866 20.7145 43.959 20.6294 43.959 20.6294" stroke="#101820" stroke-width="1.48937" stroke-linecap="round" stroke-linejoin="round"/>
<path d="M80.1919 31.5216C80.7897 31.4304 81.3496 31.0063 81.8869 30.7616C82.0581 30.6611 82.2201 30.5456 82.3712 30.4166C83.1536 29.8618 83.1808 29.4894 83.1127 28.5743C83.0946 28.3205 82.8524 28.1685 82.7495 27.9557C82.3742 27.1744 81.7522 26.6683 81.1499 26.0952C80.9471 25.9022 79.6365 25.238 79.2279 25.1209C78.8193 25.0039 77.0472 24.5737 76.522 24.484L74.2868 24.098C73.9463 24.0387 73.5664 24.098 73.2274 24.0433C72.244 23.8718 71.2498 23.7702 70.2522 23.7393C70.0297 23.7393 67.5402 23.4763 66.5157 23.3957C66.266 23.3745 66.0208 23.2817 65.7711 23.2665C63.7252 23.1427 61.6876 22.9057 59.6677 22.5567C59.1653 22.4685 57.7291 22.0414 57.5081 21.97C56.9542 21.7891 56.3549 21.403 55.8691 21.0869C55.7314 20.9972 54.7508 20.3147 54.4723 20.032C54.2544 19.8116 52.9347 18.7674 52.5806 18.3783C52.2785 18.0254 51.9496 17.6966 51.5969 17.3948C51.4183 17.2519 49.9821 16.1013 49.3601 15.7684C48.0435 15.0586 46.3758 14.9978 45.2831 16.1773C44.6778 16.8339 44.4326 19.1246 44.4326 19.1246" stroke="#101820" stroke-width="1.48937" stroke-linecap="round" stroke-linejoin="round"/>
<path d="M63.7578 27.9785C63.9262 27.9785 64.0795 28.0258 64.251 28.0258" stroke="#101820" stroke-width="1.48937" stroke-linecap="round" stroke-linejoin="round"/>
<path d="M68.2529 28.1914C68.435 28.1914 68.6186 28.2143 68.7931 28.2143" stroke="#101820" stroke-width="1.48937" stroke-linecap="round" stroke-linejoin="round"/>
<path d="M71.5771 28.5195C71.8223 28.5195 72.0629 28.5438 72.3036 28.5438" stroke="#101820" stroke-width="1.48937" stroke-linecap="round" stroke-linejoin="round"/>
<path d="M76.7275 28.1201H77.0566" stroke="#101820" stroke-width="1.48937" stroke-linecap="round" stroke-linejoin="round"/>
<path d="M73.4492 26.3564C73.6022 26.4047 73.7599 26.4364 73.9196 26.4509" stroke="#101820" stroke-width="1.48937" stroke-linecap="round" stroke-linejoin="round"/>
<path d="M69.0488 25.8628C69.2708 25.9295 69.4982 25.9768 69.7283 26.0041" stroke="#101820" stroke-width="1.48937" stroke-linecap="round" stroke-linejoin="round"/>
<path d="M63.4541 25.6514C63.624 25.6514 63.797 25.6864 63.97 25.6986" stroke="#101820" stroke-width="1.48937" stroke-linecap="round" stroke-linejoin="round"/>
<path d="M34.1449 30.8011C33.14 30.4728 31.9808 31.3802 31.4784 31.6614C31.0444 31.9015 30.6322 32.1791 30.2465 32.4913C29.8101 32.9004 29.4002 33.337 29.0191 33.7985C28.6151 34.3685 28.1383 34.902 27.7176 35.4614C26.2706 37.3807 25.0093 39.4344 23.9509 41.5945C23.4832 42.5491 22.8779 43.5705 23.0095 44.6725C23.0665 44.9871 23.1621 45.2935 23.2941 45.5845C23.3395 45.703 23.4923 45.7927 23.5362 45.9098C23.7617 46.5026 24.3943 46.8218 24.989 46.995C25.1706 47.0467 25.3749 47.03 25.5565 47.0771C25.9546 47.182 26.9943 46.9738 27.3923 46.8218C27.533 46.767 27.5436 46.7154 27.6677 46.6865C28.8784 46.4098 30.1799 45.6316 31.4511 45.9265C31.8125 46.0098 32.1536 46.1648 32.4545 46.3825C32.6583 46.5617 32.8438 46.7607 33.0083 46.9768C33.1731 47.3271 33.3697 47.6614 33.5956 47.9754C34.0026 48.4847 34.4904 48.9233 35.0393 49.2735C35.342 49.465 35.7264 49.69 36.0987 49.7052C37.0793 49.7447 37.9858 49.3024 38.7864 48.7932C39.0588 48.6214 39.2555 48.2901 39.4947 48.0742C40.4284 47.2322 41.0882 46.1773 41.8524 45.1999C42.429 44.4612 43.0359 43.7696 43.5701 42.9884C44.1271 42.1706 44.6794 41.368 45.2802 40.6004C45.7343 40.0244 46.1883 39.4559 46.612 38.8646C46.8405 38.5454 46.9979 38.1548 47.237 37.8493C47.4761 37.5437 48.3145 36.3202 47.5094 35.8733" stroke="#101820" stroke-width="1.48937" stroke-linecap="round" stroke-linejoin="round"/>
<path d="M23.5934 42.309C22.6581 44.399 20.4652 45.0678 19.7963 45.3627C19.586 45.4554 19.3529 45.5146 19.1426 45.6013C18.6402 45.811 18.0242 45.8734 17.4915 45.9053C16.7043 45.99 15.9095 45.9695 15.1276 45.8445C13.4856 45.5298 11.9389 44.7805 10.3741 44.2333C9.44643 43.905 8.49455 43.68 7.56232 43.3654C7.25964 43.262 6.9252 43.2286 6.62404 43.1267C6.16914 42.9995 5.70517 42.9076 5.23626 42.8516C4.9124 42.7954 4.54012 42.7817 4.2314 42.654C3.98526 42.5529 3.73242 42.4691 3.47471 42.4032C3.05719 42.273 2.64782 42.1177 2.24887 41.9381C1.41501 41.4821 0.576623 40.7753 0.905023 39.1854C1.20013 37.7536 3.70323 36.8948 4.87003 36.7094C5.45598 36.6739 6.0437 36.6816 6.62854 36.7322C7.08255 36.7945 7.52751 36.9191 7.98001 36.9982C11.2549 37.5651 14.3452 38.9985 17.6791 39.4605C17.9321 39.5236 18.1816 39.5997 18.4268 39.6885C18.7385 39.7691 19.0578 39.7281 19.3741 39.7372C19.8176 39.7493 21.1266 39.9226 21.3218 39.9241C21.7425 39.9241 22.1814 39.9758 22.6021 39.8633C23.7871 39.5472 25.1052 39.4225 26.1343 37.7353" stroke="#101820" stroke-width="1.48937" stroke-linecap="round" stroke-linejoin="round"/>
<path d="M25.3915 38.9331C24.1278 40.3406 22.6946 40.8558 22.1044 41.1203C20.2884 41.932 18.2801 41.8074 16.3899 41.3544C16.1236 41.2906 15.8739 41.1614 15.6106 41.0869C15.1354 40.9531 13.8974 40.6111 13.7627 40.5792C13.2709 40.4652 12.7881 40.3132 12.3054 40.1764C12.1238 40.1263 11.0114 39.7797 10.6407 39.6854C10.2699 39.5912 9.94301 39.4468 9.55861 39.4012C9.30588 39.3708 9.05617 39.2492 8.80193 39.193C8.68994 39.1687 8.03617 39.0091 7.81976 38.9528C7.35828 38.8452 6.89008 38.769 6.41838 38.7248C6.16262 38.6944 5.1638 38.6473 5.05635 38.6564C4.71282 38.6853 4.18314 38.9057 3.99699 39.2158C3.90317 39.3678 3.73821 39.6718 3.77605 39.8678C3.86988 40.3558 4.38141 40.7434 4.80969 40.9212C5.04055 41.01 5.27655 41.0846 5.51642 41.1446C5.95227 41.21 7.15389 41.4882 7.30674 41.5064C7.864 41.5838 8.41446 41.7042 8.95327 41.8666C9.74324 42.0886 10.5287 42.3044 11.3217 42.4944C11.4851 42.5324 11.638 42.6099 11.7969 42.657C12.0996 42.7452 12.9834 42.9869 13.1105 43.0294C13.4234 43.1203 13.7419 43.1909 14.0639 43.2407C14.2379 43.2772 14.415 43.3729 14.5845 43.3927C14.754 43.4125 15.6893 43.5903 15.9859 43.5918C16.2492 43.5918 16.5019 43.6009 16.7668 43.6268C17.0797 43.6493 17.394 43.6468 17.7066 43.6192C17.8867 43.6055 18.8976 43.4581 19.2124 43.3973C20.7257 43.1054 23.0942 42.1281 24.9707 39.6414" stroke="#101820" stroke-width="1.48937" stroke-linecap="round" stroke-linejoin="round"/>
<path d="M34.6561 41.9956C35.1616 41.7828 37.3484 40.9529 37.8024 40.6991C38.3917 40.4148 38.9983 40.1681 39.6184 39.9604C40.3645 39.7658 41.1969 39.5044 41.4042 38.6668C41.4128 38.4233 41.3608 38.1814 41.2529 37.9631C41.0365 37.6743 40.36 37.4174 40.0498 37.1879C39.5806 36.8543 39.0868 36.557 38.5727 36.2987C37.9674 35.9856 37.4135 35.6041 36.8354 35.2651C36.457 35.0417 36.0151 34.8836 35.6247 34.689C35.1253 34.4382 34.3625 34.1403 33.8344 34.4747C33.6213 34.6175 33.4457 34.8097 33.3224 35.0351C33.1991 35.2606 33.1317 35.5126 33.1261 35.7697C33.111 36.0023 33.2563 37.2016 33.2532 37.5679C33.2532 38.3993 33.3637 39.2308 33.3577 40.0607C33.3577 40.5577 33.3244 41.5487 33.5831 41.9591C33.8359 42.3467 34.3292 42.1324 34.6561 41.9956Z" stroke="#101820" stroke-width="1.48937" stroke-linecap="round" stroke-linejoin="round"/>
<path d="M4.76226 20.418C4.76226 20.418 4.42475 21.5868 4.28098 21.9106C4.07214 22.3818 3.96924 22.9077 3.79823 23.3941C3.61057 23.9291 3.32606 24.4429 3.15959 24.9871C3.0355 25.3929 2.86753 25.7987 2.75705 26.203C2.69574 26.4748 2.62048 26.7432 2.53156 27.0071C2.37241 27.3765 2.23691 27.7558 2.12595 28.1425C1.90954 29.0333 1.6538 29.9301 1.38593 30.804C1.30875 31.0579 1.29513 31.33 1.2346 31.5868C1.11656 32.0717 0.99547 32.5566 0.877427 33.0415C0.35229 35.1938 -0.124386 38.3097 0.950103 40.6019" stroke="#101820" stroke-width="1.48937" stroke-linecap="round" stroke-linejoin="round"/>
<path d="M26.1293 37.7368C26.8239 36.7002 26.9268 36.1925 27.1024 35.7608C27.4066 35.0233 27.4255 34.1982 27.1554 33.4474C27.0328 33.1312 26.6923 32.9017 26.4607 32.6874C26.2994 32.5342 26.1144 32.4085 25.9129 32.315C25.568 32.1774 25.21 32.0755 24.8445 32.011C24.6659 31.9791 23.882 31.859 23.6731 31.8225C23.3704 31.7754 23.0511 31.7709 22.7454 31.7237C22.2278 31.6447 21.6951 31.5444 21.1836 31.441C20.9929 31.403 19.9971 31.2419 19.6869 31.1993C19.3025 31.1446 18.9181 31.0473 18.5292 30.9881C18.3476 30.9622 17.4002 30.757 17.1021 30.7297C16.1941 30.6445 15.3133 30.5138 14.4159 30.3755C14.2085 30.3451 13.1416 30.2235 12.8223 30.1931C12.2926 30.1445 11.7796 29.959 11.259 29.9104C10.4418 29.8344 9.59426 29.7584 8.79369 29.6353L7.20466 29.3966C6.8581 29.3434 6.52061 29.3556 6.17253 29.3237C6.00758 29.3085 5.09956 29.3374 4.8105 29.3465C4.29596 29.3632 3.73604 29.3343 3.24268 29.5106C2.8038 29.6626 1.55679 30.2463 1.30859 31.1826" stroke="#101820" stroke-width="1.48937" stroke-linecap="round" stroke-linejoin="round"/>
<path d="M22.3193 37.8948C22.405 37.9184 22.4955 37.9184 22.5811 37.8948C22.9746 37.7428 23.3242 37.1166 22.8369 36.8734C22.737 36.8232 22.6659 36.732 22.5418 36.729C22.3087 36.729 21.7276 37.2443 21.8108 37.489C21.8941 37.7337 22.0424 37.8447 22.3193 37.8948Z" stroke="#101820" stroke-width="1.48937" stroke-linecap="round" stroke-linejoin="round"/>
<path d="M23.6419 34.9248C23.7678 34.932 23.8935 34.908 24.008 34.855C24.1226 34.802 24.2224 34.7216 24.2987 34.6208C24.4939 34.3411 24.6105 33.6906 24.0929 33.6739C23.8395 33.6631 23.59 33.7387 23.3847 33.8882C23.0215 34.2028 23.2409 34.8686 23.6419 34.9248Z" stroke="#101820" stroke-width="1.48937" stroke-linecap="round" stroke-linejoin="round"/>
<path d="M35.1436 23.1569C35.1436 23.1569 34.9211 22.4258 34.4777 21.991C33.7528 21.2751 32.7298 21.4697 31.9277 21.9029C31.7091 22.0514 31.5063 22.222 31.3223 22.4121C30.8789 22.8073 30.5218 23.5597 30.6822 24.1616C30.799 24.5771 30.8501 25.0085 30.8335 25.4399C30.8335 25.6573 30.8592 25.9491 30.7336 26.1406C30.0783 27.1392 28.9403 27.5618 27.9324 28.1166C27.4087 28.4084 26.9941 28.8584 26.6006 29.3068C26.1269 29.8463 25.7758 30.7355 25.9862 31.456C26.1148 31.9014 26.9714 33.1523 26.9714 33.1523" stroke="#101820" stroke-width="1.48937" stroke-linecap="round" stroke-linejoin="round"/>
<path d="M36.3284 39.5045C36.8157 39.2704 36.9337 39.237 37.0927 38.7445C37.1314 38.6651 37.157 38.5799 37.1683 38.4922C37.1683 37.8842 36.4782 37.3355 35.8789 37.6455C35.6576 37.7683 35.4716 37.9464 35.339 38.1627C35.2064 38.379 35.1317 38.626 35.1222 38.8798C35.1086 39.4589 35.8835 39.7173 36.3284 39.5045Z" stroke="#101820" stroke-width="1.48937" stroke-linecap="round" stroke-linejoin="round"/>
<path d="M20.1033 21.1342L19.2392 21.7027C18.9789 21.8744 18.7261 22.0538 18.4658 22.2256C18.2963 22.3365 18.1465 22.4718 17.9831 22.5904C17.8923 22.6572 17.7984 22.7211 17.7061 22.7849C17.6138 22.8488 17.5049 22.9521 17.4035 23.0403C17.2279 23.1923 17.0402 23.3306 16.8556 23.4719C16.3804 23.8337 15.9551 24.2623 15.483 24.6287C15.2225 24.8366 14.9985 25.0868 14.8201 25.3689C14.634 25.6486 14.4463 25.9313 14.2844 26.2246C14.1925 26.3625 14.1292 26.5176 14.0983 26.6806C14.0211 27.4665 14.9518 27.9559 15.6192 27.9331C15.831 27.9057 16.0397 27.8584 16.2427 27.7918C16.5438 27.7375 16.8411 27.6634 17.1326 27.5698L17.4897 27.4452C17.685 27.3708 17.8764 27.2866 18.0633 27.1929C18.3902 27.0409 18.714 26.8418 19.0273 26.6624C19.2815 26.5155 19.5338 26.3635 19.784 26.2064C20.014 26.0666 20.238 25.9252 20.4756 25.7869C20.7132 25.6486 20.9144 25.5437 21.1293 25.4115C21.261 25.3309 21.3972 25.2595 21.5228 25.1652C21.7877 24.9813 22.7335 24.3794 22.7335 24.3794L23.357 25.109C23.6597 25.4449 23.9109 25.8082 24.1878 26.1639C24.2594 26.2535 24.3384 26.3369 24.4239 26.4131C24.5072 26.4891 24.8129 26.9162 24.9037 27.0211C24.9945 27.126 25.4666 27.6869 25.6255 27.8526C25.8238 28.0608 26.022 28.2705 26.2309 28.4681C26.4095 28.6384 26.6017 28.7934 26.7772 28.9682C26.9549 29.148 27.153 29.3061 27.3674 29.4394C27.8366 29.7237 28.6932 30.0854 29.1986 29.6765C29.8933 29.1157 29.359 27.6018 29.0019 26.9922C28.8853 26.7931 28.7355 26.6138 28.622 26.4131C28.3769 25.983 28.168 25.5589 27.885 25.1455C27.7898 24.9876 27.6857 24.8354 27.5733 24.6895C27.5158 24.6211 27.4431 24.5603 27.3795 24.4964C27.1798 24.2973 27.0451 24.0404 26.865 23.8276C26.7909 23.7395 26.7046 23.6604 26.632 23.5692C26.4246 23.3048 25.6785 22.3076 25.6785 22.3076C25.6785 22.3076 27.319 21.23 27.8517 20.7876C28.0177 20.6415 28.1915 20.5045 28.3723 20.3773C28.7416 20.128 29.0306 19.7799 29.3726 19.4957C29.7285 19.2043 30.0648 18.8895 30.379 18.5533C30.7529 18.152 31.1463 17.5866 31.2523 17.0333C31.3022 16.7718 31.3748 16.4542 31.2523 16.2049C31.2023 16.1076 31.1509 16.0118 31.1009 15.9161C31.0806 15.864 31.0508 15.816 31.0131 15.7747C30.9297 15.7133 30.8416 15.6584 30.7498 15.6106C30.3957 15.3886 29.8978 15.3978 29.5043 15.4981C29.2819 15.5558 29.0594 15.6121 28.8354 15.6623C27.9274 15.8674 27.0859 16.553 26.2627 16.9618C26.1532 17.0129 26.0484 17.0734 25.9494 17.1427C25.7465 17.304 25.5274 17.4435 25.2956 17.5592C25.1855 17.611 25.0801 17.6726 24.9809 17.7431C24.8583 17.8267 24.427 18.0973 24.3407 18.1565C24.2 18.2538 24.0971 18.4408 23.9488 18.5213L23.0952 19.0883C23.0952 19.0883 22.1872 18.0805 21.9617 17.7203C21.8191 17.497 21.6603 17.2847 21.4865 17.085C21.2897 16.8789 21.0826 16.6831 20.866 16.4982C20.5543 16.211 20.3061 15.8599 19.9974 15.5695C19.6406 15.2345 19.2602 14.9256 18.8593 14.6454C18.7663 14.5681 18.6647 14.5018 18.5566 14.4478C18.4232 14.3783 18.2827 14.3238 18.1374 14.2851C17.9884 14.249 17.8365 14.2266 17.6834 14.2183C16.8586 14.2183 16.1701 14.9494 16.3789 15.7808C16.4513 16.1326 16.5525 16.4778 16.6816 16.8129C16.8117 17.1169 17.0493 17.3358 17.2324 17.5942C17.5351 18.0213 17.7803 18.4636 18.1283 18.8603C18.5233 19.3163 18.938 19.7328 19.2952 20.2161C19.4208 20.4153 20.1033 21.1342 20.1033 21.1342Z" fill="#4D4D4D" stroke="#101820" stroke-width="1.48937" stroke-linecap="round" stroke-linejoin="round"/>
</g>
<defs>
<linearGradient id="paint0_linear_1846_8880" x1="35.4222" y1="30.7298" x2="35.4222" y2="49.6947" gradientUnits="userSpaceOnUse">
<stop stop-color="#FBFCD0"/>
<stop offset="1" stop-color="#DFE4EC"/>
</linearGradient>
<linearGradient id="paint1_linear_1846_8880" x1="51154.4" y1="-12118.4" x2="51154.4" y2="-16251.8" gradientUnits="userSpaceOnUse">
<stop stop-color="#FBFCD0"/>
<stop offset="1" stop-color="#DFE4EC"/>
</linearGradient>
<linearGradient id="paint2_linear_1846_8880" x1="44967.3" y1="-8727.1" x2="44967.3" y2="-10508.9" gradientUnits="userSpaceOnUse">
<stop stop-color="#FBFCD0"/>
<stop offset="1" stop-color="#DFE4EC"/>
</linearGradient>
<linearGradient id="paint3_linear_1846_8880" x1="106387" y1="-9719.43" x2="106387" y2="-13038.8" gradientUnits="userSpaceOnUse">
<stop stop-color="#FBFCD0"/>
<stop offset="1" stop-color="#DFE4EC"/>
</linearGradient>
<clipPath id="clip0_1846_8880">
<rect width="95" height="50" fill="white"/>
</clipPath>
</defs>
</svg>
