<svg width="278" height="207" viewBox="0 0 278 207" fill="none" xmlns="http://www.w3.org/2000/svg">
<g clip-path="url(#clip0_1889_8551)">
<path d="M207.863 49.9321L203.801 60.4512L199.121 70.8229L194.07 81.0209L187.825 90.6555L183.613 101.247L178.986 111.73L158.638 110.868L167.954 99.7299L183.361 79.2912L192.07 69.8892L199.17 59.1802L207.863 49.9321Z" fill="#98A093"/>
<path d="M200.259 123.441H200.233L191.129 129.652L181.349 134.766L172.13 140.781L162.873 146.422L168.324 134.956L172.964 122.966L178.986 111.72L189.649 117.309L200.23 123.222V123.32C200.23 123.32 200.252 123.372 200.259 123.441Z" fill="#899085"/>
<path d="M200.259 123.441C200.501 125.194 203.651 148.302 203.654 148.338L189.998 147.683L176.356 147.231L162.873 146.422L172.124 140.774L181.342 134.759L191.129 129.652L200.239 123.457L200.259 123.441Z" fill="#899085"/>
<path d="M178.982 111.736L172.959 122.982L168.319 134.972L162.868 146.428L155.653 134.229L158.633 110.875L178.982 111.736Z" fill="#98A093"/>
<path d="M261.253 39.6582L264.399 51.4189L266.589 63.3204L269.36 75.0844L272.418 86.7828L274.706 98.6581L277.353 110.655L265.024 102.792L252.953 94.7598L249.753 83.6215L247.309 72.2965L244.329 61.214C244.352 61.1779 261.226 39.6877 261.253 39.6582Z" fill="#7A8076"/>
<path d="M244.326 61.2112L247.307 72.2938L249.751 83.6188L252.95 94.757L242.382 100.755L231.752 106.259L220.864 111.281L200.278 123.441C200.278 123.372 200.278 123.34 200.278 123.336V123.238L189.697 117.325L179.034 111.736L183.661 101.253L187.87 90.6621L194.069 81.0209L199.124 70.8229L203.803 60.4512L207.865 49.9321L220.109 53.2703L244.326 61.2112Z" fill="#899085"/>
<path d="M261.253 39.6553C261.227 39.6848 244.353 61.175 244.327 61.2078L220.106 53.2669L207.862 49.9287L216.617 47.6584L227.727 45.3358C236.35 44.1302 251.019 41.457 261.253 39.6553Z" fill="#98A093"/>
<path d="M214.329 143.241L203.643 148.345C203.643 148.302 200.49 125.194 200.248 123.447L220.835 111.287L231.726 106.265L242.356 100.752L252.924 94.7534L264.995 102.786L277.324 110.648L267.034 116.057L256.4 121.321L245.561 126.111L235.569 132.663L224.785 137.606L214.329 143.241Z" fill="#7A8076"/>
<path d="M203.65 148.345L189.994 147.683L176.352 147.231L162.869 146.428" stroke="#101820" stroke-width="1.48937" stroke-linecap="round" stroke-linejoin="round"/>
<path d="M203.65 148.345L214.336 143.241L224.773 137.593L235.573 132.653L245.559 126.124L256.424 121.315L267.057 116.047L277.347 110.639" stroke="#101820" stroke-width="1.48937" stroke-linecap="round" stroke-linejoin="round"/>
<path d="M207.862 49.9319L216.617 47.6617L227.727 45.3358C236.357 44.1302 251.022 41.457 261.26 39.6553" stroke="#101820" stroke-width="1.48937" stroke-linecap="round" stroke-linejoin="round"/>
<path d="M277.346 110.639L274.7 98.6421L272.415 86.7668L269.357 75.0683L266.586 63.3044L264.396 51.4028L261.253 39.6553" stroke="#101820" stroke-width="1.48937" stroke-linecap="round" stroke-linejoin="round"/>
<path d="M242.379 100.745L252.947 94.7471" stroke="#101820" stroke-width="1.48937" stroke-linecap="round" stroke-linejoin="round"/>
<path d="M162.869 146.422L172.12 140.777L181.342 134.76L191.128 129.652L200.235 123.457L220.865 111.281" stroke="#101820" stroke-width="1.48937" stroke-linecap="round" stroke-linejoin="round"/>
<path d="M194.065 81.0209L199.117 70.8262L203.797 60.4512L207.858 49.9321" stroke="#101820" stroke-width="1.48937" stroke-linecap="round" stroke-linejoin="round"/>
<path d="M162.869 146.429L168.32 134.973L172.96 122.986L178.982 111.736L183.609 101.247" stroke="#101820" stroke-width="1.48937" stroke-linecap="round" stroke-linejoin="round"/>
<path d="M244.327 61.2112L220.106 53.2736L207.862 49.9321" stroke="#101820" stroke-width="1.48937" stroke-linecap="round" stroke-linejoin="round"/>
<path d="M277.346 110.639L265.017 102.78L252.946 94.7471" stroke="#101820" stroke-width="1.48937" stroke-linecap="round" stroke-linejoin="round"/>
<path d="M252.946 94.7469L249.747 83.6185L247.303 72.2935L244.326 61.2109" stroke="#101820" stroke-width="1.48937" stroke-linecap="round" stroke-linejoin="round"/>
<path d="M244.326 61.2111L261.253 39.6553" stroke="#101820" stroke-width="1.48937" stroke-linecap="round" stroke-linejoin="round"/>
<path d="M203.653 148.345L200.245 123.339" stroke="#101820" stroke-width="1.48937" stroke-linecap="round" stroke-linejoin="round"/>
<path d="M200.226 123.241L189.645 117.325L178.982 111.736" stroke="#101820" stroke-width="1.48937" stroke-linecap="round" stroke-linejoin="round"/>
<path d="M178.985 111.736L158.634 110.875" stroke="#101820" stroke-width="1.48937" stroke-linecap="round" stroke-linejoin="round"/>
<path d="M162.868 146.422L155.653 134.222L158.633 110.871L167.953 99.7328L183.36 79.2941L192.069 69.8921L199.166 59.183L207.862 49.9219" stroke="#101820" stroke-width="1.48937" stroke-linecap="round" stroke-linejoin="round"/>
</g>
<g clip-path="url(#clip1_1889_8551)">
<path d="M97.5513 202.857L96.5391 196.954L100.758 201.675L101.347 206.399L97.5513 202.857Z" fill="#7A8076"/>
<path d="M101.347 206.398L100.759 201.675L111.219 193.577L110.457 199.566L101.347 206.398Z" fill="#7A8076"/>
<path d="M100.758 201.674L96.5391 196.953L98.7336 190.54L111.218 193.576L100.758 201.674Z" fill="#98A093"/>
<path d="M108.111 195.981L111.218 193.576L98.7336 190.54L96.5391 196.953L100.758 201.674L104.211 199.002" stroke="#101820" stroke-width="1.48937" stroke-linecap="round" stroke-linejoin="round"/>
<path d="M111.218 193.577L110.457 199.566L101.347 206.398L97.5513 202.857L96.5391 196.954" stroke="#101820" stroke-width="1.48937" stroke-linecap="round" stroke-linejoin="round"/>
<path d="M100.759 201.675L101.347 206.399" stroke="#101820" stroke-width="1.48937" stroke-linecap="round" stroke-linejoin="round"/>
</g>
<g clip-path="url(#clip2_1889_8551)">
<path d="M227.27 26.57L209.671 17.4113L229.837 0.661133L238.339 12.1542L227.27 26.57Z" fill="#98A093"/>
<path d="M228.652 35.3389L212.342 25.6941L209.671 17.4116L227.27 26.5703L228.652 35.3389Z" fill="#7A8076"/>
<path d="M228.652 35.3382L227.27 26.5697L238.339 12.1538L239.329 18.3897L228.652 35.3382Z" fill="#7A8076"/>
<path d="M234.779 16.793L238.339 12.1542L229.837 0.661133L209.671 17.4113L227.27 26.57L230.927 21.8055" stroke="#101820" stroke-width="1.48937" stroke-linecap="round" stroke-linejoin="round"/>
<path d="M238.339 12.1538L239.329 18.3897L228.652 35.3382L212.342 25.6935L209.671 17.411" stroke="#101820" stroke-width="1.48937" stroke-linecap="round" stroke-linejoin="round"/>
<path d="M227.27 26.5732L228.652 35.3385" stroke="#101820" stroke-width="1.48937" stroke-linecap="round" stroke-linejoin="round"/>
</g>
<g clip-path="url(#clip3_1889_8551)">
<path d="M133.276 103.347L164.35 67.1L160.007 61.8169L126.651 100.248L133.276 103.347Z" fill="#7A8076"/>
<path d="M126.651 100.248L160.007 61.8168L132.378 58.6528L126.651 100.248Z" fill="#98A093"/>
<path d="M136.903 88.4379L126.651 100.248L132.378 58.6528L160.007 61.8168L149.888 73.4768" stroke="#101820" stroke-width="1.48937" stroke-linecap="round" stroke-linejoin="round"/>
<path d="M126.651 100.248L133.276 103.347L164.35 67.1L160.007 61.8169" stroke="#101820" stroke-width="1.48937" stroke-linecap="round" stroke-linejoin="round"/>
</g>
<g clip-path="url(#clip4_1889_8551)">
<path d="M152.435 172.987L153.22 179.061L146.472 184.122L146.585 178.613L152.435 172.987Z" fill="#7A8076"/>
<path d="M146.586 178.613L146.472 184.123L139.387 177.712L138.264 172.313L146.586 178.613Z" fill="#7A8076"/>
<path d="M143.662 163.54L152.435 172.987L146.586 178.613L138.264 172.312L143.662 163.54Z" fill="#98A093"/>
<path d="M144.243 176.839L146.586 178.613L152.435 172.987L143.662 163.54L138.264 172.312L140.842 174.264" stroke="#101820" stroke-width="1.48937" stroke-linecap="round" stroke-linejoin="round"/>
<path d="M138.264 172.313L139.387 177.712L146.472 184.123L153.221 179.061L152.435 172.988" stroke="#101820" stroke-width="1.48937" stroke-linecap="round" stroke-linejoin="round"/>
<path d="M146.585 178.613L146.472 184.122" stroke="#101820" stroke-width="1.48937" stroke-linecap="round" stroke-linejoin="round"/>
</g>
<g clip-path="url(#clip5_1889_8551)">
<path d="M109.729 68.7412L98.6484 72.3958L103.78 63.6748L109.729 68.7412Z" fill="#98A093"/>
<path d="M111.351 73.9466L102.836 77.3242L98.6484 72.3963L109.729 68.7417L111.351 73.9466Z" fill="#7A8076"/>
<path d="M107.322 69.535L109.729 68.7412L103.78 63.6748L98.6484 72.3958L102.583 71.0988" stroke="#101820" stroke-width="1.48937" stroke-linecap="round" stroke-linejoin="round"/>
<path d="M109.729 68.7417L111.351 73.9466L102.836 77.3242L98.6484 72.3963" stroke="#101820" stroke-width="1.48937" stroke-linecap="round" stroke-linejoin="round"/>
</g>
<g clip-path="url(#clip6_1889_8551)">
<path d="M84.2377 114.636L76.8064 120.194L70.0608 126.548L62.7348 132.23L56.2402 138.871L48.9223 144.561L42.0633 150.778L35.2313 157.029L27.7704 162.549L20.8682 168.815L21.1516 159.634L21.3783 150.451L22.4095 141.306L22.5849 137.265L28.2265 131.604L33.6414 124.489L39.2047 117.5L44.9354 110.647L50.6823 103.645L54.1509 104.767L64.1196 107.893L74.0153 111.251L84.2377 114.636Z" fill="#899085"/>
<path d="M79.3117 106.09L84.238 114.636L74.0157 111.251L64.1199 107.893L54.1513 104.767L50.6826 103.644L55.4928 96.4533L59.9062 88.8493L64.7866 81.5449L69.5914 89.7806L74.2316 98.0621L79.3117 106.09Z" fill="#899085"/>
<path d="M84.2377 114.636L80.1212 122.61L75.7618 130.616L71.4267 138.631L66.7217 146.456L62.9211 154.754L54.5154 157.75L46.0583 160.317L37.7633 163.365L29.2199 165.689L20.8682 168.815L27.7704 162.549L35.2313 157.029L42.0633 150.778L48.9223 144.561L56.2402 138.871L62.7348 132.23L70.0608 126.548L76.8064 120.194L84.2377 114.636Z" fill="#7A8076"/>
<path d="M50.6833 103.645L44.9364 110.647L39.2057 117.5L33.6424 124.489L28.2275 131.604L22.5859 137.265L22.81 132.133L22.7965 122.942L23.4983 113.783L23.4929 104.595L24.3999 95.4468L34.1904 98.5969L44.2157 101.55L50.6833 103.645Z" fill="#98A093"/>
<path d="M64.7868 81.5449L59.9064 88.8493L55.493 96.4534L50.6828 103.644L44.2152 101.55L34.1899 98.5966L24.3994 95.4465L33.4692 88.5497L42.6145 81.5396L53.7331 81.553L64.7868 81.5449Z" fill="#98A093"/>
<path d="M24.3994 95.4468L23.4925 104.595L23.4979 113.783L22.796 122.942L22.8095 132.133L22.5855 137.265L11.332 143.163L0.540039 148.424L4.14635 139.419L8.50577 130.776L11.9717 121.736L15.9775 112.933L20.7041 104.454L24.3994 95.4468Z" fill="#98A093"/>
<path d="M22.5855 137.265L22.41 141.306L21.3789 150.451L21.1521 159.634L20.8687 168.814L14.3012 161.853L7.46923 155.067L0.540039 148.424L11.332 143.163L22.5855 137.265Z" fill="#98A093"/>
<path d="M0.540039 148.421L4.14635 139.419L8.50307 130.776L11.969 121.733L15.9775 112.933L20.7014 104.454L24.3967 95.4468" stroke="#101820" stroke-width="1.48937" stroke-linecap="round" stroke-linejoin="round"/>
<path d="M20.8687 168.812L14.3012 161.851L7.46653 155.067L0.540039 148.421" stroke="#101820" stroke-width="1.48937" stroke-linecap="round" stroke-linejoin="round"/>
<path d="M62.9184 154.754L54.5154 157.747L46.0583 160.317L37.7606 163.365L29.2199 165.689L20.8682 168.812" stroke="#101820" stroke-width="1.48937" stroke-linecap="round" stroke-linejoin="round"/>
<path d="M84.2383 114.636L80.1218 122.61L75.7597 130.614L71.4272 138.631L66.7223 146.456L62.9189 154.754" stroke="#101820" stroke-width="1.48937" stroke-linecap="round" stroke-linejoin="round"/>
<path d="M64.7861 81.5425L69.5909 89.7781L74.2311 98.0624L79.3112 106.088L84.2375 114.636" stroke="#101820" stroke-width="1.48937" stroke-linecap="round" stroke-linejoin="round"/>
<path d="M42.6143 81.5396L53.7328 81.553L64.7866 81.5423" stroke="#101820" stroke-width="1.48937" stroke-linecap="round" stroke-linejoin="round"/>
<path d="M24.3965 95.4465L33.4662 88.5497L42.6143 81.5396" stroke="#101820" stroke-width="1.48937" stroke-linecap="round" stroke-linejoin="round"/>
<path d="M84.238 114.636L74.0129 111.251L64.1199 107.893L54.1512 104.768L44.2123 101.547L34.187 98.5969L24.3965 95.4468" stroke="#101820" stroke-width="1.48937" stroke-linecap="round" stroke-linejoin="round"/>
<path d="M62.7354 132.23L70.0586 126.548L76.8043 120.194L84.2382 114.636" stroke="#101820" stroke-width="1.48937" stroke-linecap="round" stroke-linejoin="round"/>
<path d="M20.8682 168.812L27.7677 162.549L35.2286 157.027L42.0606 150.778L48.9223 144.561" stroke="#101820" stroke-width="1.48937" stroke-linecap="round" stroke-linejoin="round"/>
<path d="M24.3962 95.4468L23.4892 104.595L23.4946 113.783L22.7955 122.942L22.8063 132.133L22.4068 141.306L21.3756 150.451L21.1516 159.634L20.8682 168.812" stroke="#101820" stroke-width="1.48937" stroke-linecap="round" stroke-linejoin="round"/>
<path d="M22.5828 137.262L11.332 143.16L0.540039 148.421" stroke="#101820" stroke-width="1.48937" stroke-linecap="round" stroke-linejoin="round"/>
<path d="M39.2055 117.498L33.6422 124.489L28.2246 131.604L22.583 137.262" stroke="#101820" stroke-width="1.48937" stroke-linecap="round" stroke-linejoin="round"/>
<path d="M50.6797 103.645L44.9355 110.647" stroke="#101820" stroke-width="1.48937" stroke-linecap="round" stroke-linejoin="round"/>
<path d="M64.7874 81.5425L59.9043 88.8496L55.4909 96.4536L50.6807 103.645" stroke="#101820" stroke-width="1.48937" stroke-linecap="round" stroke-linejoin="round"/>
</g>
<defs>
<clipPath id="clip0_1889_8551">
<rect width="123" height="110" fill="white" transform="translate(155 39)"/>
</clipPath>
<clipPath id="clip1_1889_8551">
<rect width="15.7587" height="16.9383" fill="white" transform="translate(96 190)"/>
</clipPath>
<clipPath id="clip2_1889_8551">
<rect width="31" height="36" fill="white" transform="translate(209)"/>
</clipPath>
<clipPath id="clip3_1889_8551">
<rect width="39" height="46" fill="white" transform="translate(126 58)"/>
</clipPath>
<clipPath id="clip4_1889_8551">
<rect width="16.0367" height="21.6621" fill="white" transform="translate(137.724 163)"/>
</clipPath>
<clipPath id="clip5_1889_8551">
<rect width="14" height="15" fill="white" transform="translate(98 63)"/>
</clipPath>
<clipPath id="clip6_1889_8551">
<rect width="84.7779" height="88.3519" fill="white" transform="translate(0 81)"/>
</clipPath>
</defs>
</svg>
